{"glyphs":{"0":{"ha":864,"x_min":63,"x_max":801,"o":"m 432 -19 q 154 120 246 -19 q 63 479 63 260 q 154 840 63 700 q 432 979 246 979 q 710 840 618 979 q 801 479 801 700 q 710 120 801 260 q 432 -19 618 -19 m 193 479 q 249 199 193 307 q 432 92 304 92 q 615 199 560 92 q 671 479 671 307 q 615 760 671 651 q 432 868 560 868 q 249 760 304 868 q 193 479 193 651 z "},"1":{"ha":451,"x_min":18,"x_max":343,"o":"m 218 732 q 140 694 189 704 q 18 685 92 685 l 18 789 q 152 810 106 792 q 218 863 199 828 q 246 960 238 897 l 343 960 l 343 0 l 218 0 l 218 732 z "},"2":{"ha":776,"x_min":40,"x_max":719,"o":"m 40 0 q 326 413 40 246 l 374 440 q 503 520 463 490 q 567 590 544 550 q 589 690 589 629 q 550 817 589 765 q 411 868 511 868 q 247 801 294 868 q 199 624 199 735 l 68 624 q 156 880 68 781 q 414 979 243 979 q 567 945 497 979 q 678 846 636 911 q 719 692 719 781 q 679 541 719 606 q 581 433 639 476 q 429 336 522 389 q 266 228 322 275 q 192 114 210 181 l 192 111 l 706 111 l 706 0 l 40 0 z "},"3":{"ha":829,"x_min":49,"x_max":769,"o":"m 429 -19 q 148 71 247 -19 q 49 325 49 161 l 179 325 q 235 153 179 214 q 419 92 290 92 q 588 137 538 92 q 639 269 639 182 q 583 407 639 368 q 442 446 526 446 l 339 446 l 339 557 l 436 557 q 559 595 514 557 q 604 714 604 633 q 561 824 604 779 q 426 868 518 868 q 251 813 299 868 q 204 672 204 758 l 74 672 q 164 894 74 810 q 426 979 254 979 q 580 948 510 979 q 692 856 650 917 q 735 714 735 796 q 698 589 735 639 q 588 510 661 539 l 588 507 q 769 269 769 450 q 677 57 769 133 q 429 -19 585 -19 z "},"4":{"ha":797,"x_min":35,"x_max":754,"o":"m 497 225 l 35 225 l 35 336 l 497 960 l 622 960 l 622 336 l 754 336 l 754 225 l 622 225 l 622 0 l 497 0 l 497 225 m 497 336 l 497 786 l 163 336 l 497 336 z "},"5":{"ha":792,"x_min":50,"x_max":742,"o":"m 397 -19 q 214 22 292 -19 q 94 130 136 63 q 50 276 53 197 l 181 276 q 240 144 190 196 q 392 92 289 92 q 552 153 493 92 q 611 328 611 214 q 557 483 611 432 q 406 533 503 533 q 196 443 267 533 l 63 443 l 163 960 l 690 960 l 690 849 l 264 849 l 207 558 l 207 556 q 435 644 285 644 q 594 603 524 644 q 703 489 664 561 q 742 328 742 417 q 697 147 742 226 q 572 24 651 68 q 397 -19 493 -19 z "},"6":{"ha":814,"x_min":64,"x_max":757,"o":"m 424 -19 q 149 110 235 -19 q 64 481 64 240 q 159 846 64 713 q 429 979 254 979 q 581 944 515 979 q 686 848 647 908 q 732 717 725 788 l 601 717 q 429 868 581 868 q 242 764 296 868 q 189 501 189 660 l 189 489 l 192 488 q 296 591 229 556 q 446 626 363 626 q 607 587 536 626 q 717 476 678 547 q 757 310 757 404 q 717 144 757 219 q 601 25 676 69 q 424 -19 525 -19 m 208 299 q 265 148 208 204 q 424 92 321 92 q 574 148 521 92 q 626 301 626 204 q 574 459 626 403 q 435 515 522 515 q 270 456 332 515 q 208 299 208 396 z "},"7":{"ha":710,"x_min":14,"x_max":679,"o":"m 153 0 q 212 318 153 151 q 361 626 271 485 q 540 846 451 767 l 540 849 l 14 849 l 14 960 l 679 960 l 679 863 q 481 627 571 771 q 338 317 390 483 q 285 0 285 151 l 153 0 z "},"8":{"ha":831,"x_min":56,"x_max":775,"o":"m 415 -19 q 155 55 254 -19 q 56 269 56 129 q 104 417 56 361 q 233 508 153 472 l 233 511 q 104 717 104 579 q 190 909 104 839 q 415 979 275 979 q 641 909 556 979 q 726 717 726 839 q 597 511 726 581 l 597 508 q 726 417 678 472 q 775 269 775 361 q 676 55 775 129 q 415 -19 576 -19 m 186 274 q 247 138 186 185 q 415 92 307 92 q 584 138 524 92 q 644 274 644 185 q 584 407 644 360 q 415 454 524 454 q 247 407 307 454 q 186 274 186 360 m 235 717 q 415 565 235 565 q 596 717 596 565 q 549 831 596 793 q 415 868 501 868 q 282 831 329 868 q 235 717 235 793 z "},"9":{"ha":817,"x_min":58,"x_max":751,"o":"m 386 -19 q 234 16 300 -19 q 129 112 168 51 q 83 243 90 172 l 214 243 q 386 92 235 92 q 573 196 519 92 q 626 458 626 300 l 626 471 l 624 472 q 519 369 586 404 q 369 333 453 333 q 208 373 279 333 q 98 484 138 413 q 58 650 58 556 q 99 815 58 740 q 215 935 139 890 q 392 979 290 979 q 666 849 581 979 q 751 479 751 719 q 656 114 751 247 q 386 -19 561 -19 m 189 658 q 241 501 189 557 q 381 444 293 444 q 545 504 483 444 q 607 661 607 564 q 551 812 607 756 q 392 868 494 868 q 242 812 294 868 q 189 658 189 756 z "},"\r":{"ha":297,"x_min":0,"x_max":0,"o":""}," ":{"ha":297,"x_min":0,"x_max":0,"o":""},"!":{"ha":300,"x_min":83,"x_max":217,"o":"m 83 133 l 217 133 l 217 0 l 83 0 l 83 133 m 88 993 l 213 993 l 213 708 l 185 256 l 115 256 l 88 708 l 88 993 z "},"\"":{"ha":438,"x_min":63,"x_max":375,"o":"m 63 993 l 174 993 l 160 654 l 76 654 l 63 993 m 264 993 l 375 993 l 361 654 l 278 654 l 264 993 z "},"#":{"ha":796,"x_min":40,"x_max":758,"o":"m 438 288 l 271 288 l 214 0 l 117 0 l 174 288 l 40 288 l 57 385 l 193 385 l 235 599 l 83 599 l 100 696 l 254 696 l 306 960 l 403 960 l 351 696 l 518 696 l 569 960 l 667 960 l 615 696 l 758 696 l 740 599 l 596 599 l 554 385 l 715 385 l 700 288 l 535 288 l 478 0 l 381 0 l 438 288 m 457 385 l 499 599 l 332 599 l 290 385 l 457 385 z "},"$":{"ha":825,"x_min":38,"x_max":778,"o":"m 383 -17 q 142 85 238 -1 q 38 318 46 171 l 156 318 q 222 160 165 219 q 383 88 278 100 l 383 451 q 163 544 247 488 q 79 710 79 600 q 161 896 79 825 q 383 971 243 967 l 383 1069 l 464 1069 l 464 967 q 663 871 586 950 q 750 661 740 792 l 632 661 q 464 860 614 829 l 464 539 q 641 475 578 506 q 741 390 704 444 q 778 246 778 336 q 697 60 778 135 q 464 -19 617 -14 l 464 -140 l 383 -140 l 383 -17 m 197 722 q 243 625 197 658 q 383 563 289 592 l 383 865 q 247 824 297 863 q 197 722 197 786 m 464 85 q 613 132 567 89 q 660 246 660 175 q 617 358 660 319 q 464 429 574 397 l 464 85 z "},"%":{"ha":1132,"x_min":31,"x_max":1103,"o":"m 778 960 l 889 960 l 354 0 l 243 0 l 778 960 m 31 704 q 88 901 31 824 q 258 979 146 979 q 427 901 368 979 q 486 704 486 822 q 428 507 486 585 q 258 429 371 429 q 90 508 149 429 q 31 704 31 586 m 132 704 q 164 572 132 621 q 258 522 196 522 q 353 572 321 522 q 385 704 385 621 q 353 837 385 788 q 258 886 321 886 q 164 837 196 886 q 132 704 132 788 m 647 256 q 705 453 647 375 q 875 531 763 531 q 1044 452 985 531 q 1103 256 1103 374 q 1045 58 1103 136 q 875 -19 988 -19 q 706 59 765 -19 q 647 256 647 138 m 749 256 q 781 123 749 172 q 875 74 813 74 q 969 123 938 74 q 1001 256 1001 172 q 969 388 1001 339 q 875 438 938 438 q 781 388 813 438 q 749 256 749 339 z "},"&":{"ha":839,"x_min":43,"x_max":843,"o":"m 343 -19 q 182 15 250 -19 q 78 108 114 49 q 43 240 43 167 q 104 409 43 342 q 271 538 165 476 q 185 666 213 611 q 157 783 157 721 q 183 896 157 843 q 263 981 210 949 q 390 1013 315 1013 q 517 981 464 1013 q 597 898 569 950 q 624 783 624 846 q 600 681 624 725 q 533 602 576 638 q 419 522 490 567 l 618 278 q 679 483 661 363 l 790 483 q 692 186 765 310 l 843 0 l 711 0 l 628 101 q 343 -19 514 -19 m 154 250 q 206 135 154 179 q 346 92 257 92 q 558 186 475 92 l 328 468 q 198 365 242 414 q 154 250 154 315 m 268 783 q 292 694 268 739 q 363 592 317 650 q 478 679 443 638 q 513 775 513 721 q 479 871 513 833 q 390 908 446 908 q 301 872 335 908 q 268 783 268 835 z "},"'":{"ha":236,"x_min":63,"x_max":174,"o":"m 63 993 l 174 993 l 160 654 l 76 654 l 63 993 z "},"(":{"ha":367,"x_min":49,"x_max":343,"o":"m 246 -162 q 103 107 158 -49 q 49 440 49 263 q 103 778 49 624 q 246 1049 157 933 l 343 1049 q 218 761 263 904 q 174 440 174 618 q 218 124 174 267 q 343 -162 263 -18 l 246 -162 z "},")":{"ha":367,"x_min":24,"x_max":318,"o":"m 24 -162 q 149 125 104 -18 q 193 446 193 268 q 149 762 193 619 q 24 1049 104 904 l 121 1049 q 263 779 208 935 q 318 446 318 624 q 264 108 318 263 q 121 -162 210 -47 l 24 -162 z "},"*":{"ha":628,"x_min":57,"x_max":571,"o":"m 122 578 l 240 728 l 57 783 l 86 858 l 268 806 l 268 993 l 360 993 l 358 806 l 542 858 l 571 783 l 388 728 l 506 578 l 435 528 l 314 685 l 194 528 l 122 578 z "},"+":{"ha":767,"x_min":68,"x_max":699,"o":"m 328 397 l 68 397 l 68 507 l 328 507 l 328 775 l 439 775 l 439 507 l 699 507 l 699 397 l 439 397 l 439 129 l 328 129 l 328 397 z "},",":{"ha":271,"x_min":68,"x_max":201,"o":"m 68 -107 q 119 -72 106 -94 q 132 0 133 -49 l 68 0 l 68 133 l 201 133 l 201 0 q 172 -110 201 -65 q 68 -176 142 -154 l 68 -107 z "},"-":{"ha":489,"x_min":58,"x_max":431,"o":"m 58 410 l 431 410 l 431 299 l 58 299 l 58 410 z "},".":{"ha":264,"x_min":65,"x_max":199,"o":"m 65 133 l 199 133 l 199 0 l 65 0 l 65 133 z "},"/":{"ha":531,"x_min":17,"x_max":513,"o":"m 401 993 l 513 993 l 128 0 l 17 0 l 401 993 z "},":":{"ha":278,"x_min":72,"x_max":206,"o":"m 72 557 l 206 557 l 206 424 l 72 424 l 72 557 m 72 133 l 206 133 l 206 0 l 72 0 l 72 133 z "},";":{"ha":278,"x_min":72,"x_max":206,"o":"m 72 557 l 206 557 l 206 424 l 72 424 l 72 557 m 72 -107 q 124 -72 110 -94 q 136 0 138 -49 l 72 0 l 72 133 l 206 133 l 206 0 q 176 -110 206 -65 q 72 -176 146 -154 l 72 -107 z "},"<":{"ha":707,"x_min":65,"x_max":631,"o":"m 65 371 l 65 496 l 631 731 l 631 619 l 156 435 l 156 432 l 631 246 l 631 135 l 65 371 z "},"=":{"ha":763,"x_min":72,"x_max":690,"o":"m 72 410 l 690 410 l 690 300 l 72 300 l 72 410 m 72 606 l 690 606 l 690 496 l 72 496 l 72 606 z "},">":{"ha":707,"x_min":76,"x_max":642,"o":"m 76 246 l 551 431 l 551 433 l 76 619 l 76 731 l 642 494 l 642 369 l 76 135 l 76 246 z "},"?":{"ha":681,"x_min":22,"x_max":657,"o":"m 238 133 l 371 133 l 371 0 l 238 0 l 238 133 m 22 671 q 60 848 22 771 q 173 969 99 925 q 353 1013 247 1013 q 513 980 444 1013 q 619 888 582 947 q 657 753 657 829 q 638 660 657 699 q 594 596 619 621 q 511 525 568 571 l 485 504 q 417 444 442 469 q 378 372 393 418 q 363 254 363 326 l 238 254 q 260 397 238 339 q 317 491 283 456 q 404 569 350 526 q 453 608 413 576 q 513 676 494 640 q 532 754 532 711 q 486 863 532 824 q 357 901 440 901 q 205 847 263 901 q 147 671 147 793 l 22 671 z "},"@":{"ha":1208,"x_min":43,"x_max":1160,"o":"m 594 -147 q 307 -79 432 -147 q 113 115 182 -11 q 43 410 43 240 q 115 701 43 568 q 315 912 186 833 q 608 990 443 990 q 899 919 774 990 q 1092 724 1024 847 q 1160 449 1160 600 q 1122 249 1160 325 q 1029 142 1085 174 q 915 110 974 110 q 812 138 853 110 q 742 222 771 167 l 739 222 q 659 143 707 171 q 539 115 611 115 q 421 150 474 115 q 338 249 368 185 q 307 400 307 314 q 342 566 307 493 q 436 678 376 639 q 567 718 496 718 q 690 683 635 718 q 764 597 744 647 l 767 597 l 782 708 l 879 708 l 835 360 q 832 319 832 332 q 855 236 832 265 q 924 207 878 207 q 1025 268 988 207 q 1063 444 1063 329 q 1006 677 1063 575 q 847 836 950 779 q 608 893 744 893 q 361 825 468 893 q 197 646 254 757 q 140 410 140 535 q 199 170 140 275 q 360 8 257 65 q 594 -50 464 -50 q 843 -8 740 -50 l 878 -87 q 744 -134 814 -121 q 594 -147 675 -147 m 404 396 q 443 263 404 313 q 558 213 482 213 q 690 276 642 213 q 739 438 739 340 q 695 574 739 526 q 585 621 651 621 q 451 558 499 621 q 404 396 404 494 z "},"A":{"ha":894,"x_min":10,"x_max":886,"o":"m 376 993 l 517 993 l 886 0 l 751 0 l 664 249 l 226 249 l 139 0 l 10 0 l 376 993 m 624 360 l 447 878 l 444 878 l 268 360 l 624 360 z "},"B":{"ha":917,"x_min":103,"x_max":867,"o":"m 103 993 l 503 993 q 741 926 654 993 q 828 743 828 858 q 674 538 828 590 l 674 535 q 813 458 758 521 q 867 289 867 394 q 776 76 867 153 q 531 0 686 0 l 103 0 l 103 993 m 538 111 q 736 289 736 111 q 690 418 736 369 q 565 467 643 467 l 228 467 l 228 111 l 538 111 m 517 578 q 657 617 617 578 q 697 729 697 656 q 656 841 697 800 q 531 882 614 882 l 228 882 l 228 578 l 517 578 z "},"C":{"ha":976,"x_min":53,"x_max":935,"o":"m 513 -19 q 274 47 378 -19 q 111 231 169 114 q 53 497 53 349 q 111 763 53 646 q 274 947 169 881 q 513 1013 378 1013 q 722 966 631 1013 q 868 840 814 919 q 935 665 922 761 l 804 665 q 719 830 786 758 q 513 901 651 901 q 326 844 400 901 q 218 696 253 788 q 183 497 183 604 q 218 298 183 390 q 326 149 253 206 q 513 92 400 92 q 726 170 656 92 q 804 358 797 249 l 935 358 q 869 163 924 249 q 724 28 815 76 q 513 -19 632 -19 z "},"D":{"ha":960,"x_min":103,"x_max":904,"o":"m 103 993 l 463 993 q 699 935 600 993 q 851 766 799 878 q 904 496 904 654 q 787 129 904 258 q 463 0 669 0 l 103 0 l 103 993 m 463 111 q 774 496 774 111 q 463 882 774 882 l 228 882 l 228 111 l 463 111 z "},"E":{"ha":850,"x_min":103,"x_max":807,"o":"m 103 993 l 790 993 l 790 882 l 228 882 l 228 569 l 724 569 l 724 458 l 228 458 l 228 111 l 807 111 l 807 0 l 103 0 l 103 993 z "},"F":{"ha":799,"x_min":103,"x_max":776,"o":"m 103 993 l 776 993 l 776 882 l 228 882 l 228 560 l 671 560 l 671 449 l 228 449 l 228 0 l 103 0 l 103 993 z "},"G":{"ha":1018,"x_min":54,"x_max":950,"o":"m 501 -19 q 259 47 360 -19 q 106 229 158 113 q 54 497 54 346 q 113 763 54 646 q 276 947 171 881 q 515 1013 381 1013 q 801 927 697 1013 q 933 693 906 842 l 803 693 q 706 849 782 797 q 515 901 631 901 q 330 842 404 901 q 220 690 256 782 q 185 497 185 597 q 258 210 185 329 q 501 92 331 92 q 664 131 590 92 q 781 243 738 171 q 825 406 825 315 l 501 406 l 501 517 l 950 517 l 950 0 l 867 0 l 825 140 l 822 140 q 688 20 764 60 q 501 -19 613 -19 z "},"H":{"ha":986,"x_min":103,"x_max":883,"o":"m 103 993 l 228 993 l 228 571 l 758 571 l 758 993 l 883 993 l 883 0 l 758 0 l 758 460 l 228 460 l 228 0 l 103 0 l 103 993 z "},"I":{"ha":331,"x_min":103,"x_max":228,"o":"m 103 993 l 228 993 l 228 0 l 103 0 l 103 993 z "},"J":{"ha":701,"x_min":25,"x_max":604,"o":"m 314 -19 q 92 72 160 -19 q 25 303 25 164 l 25 331 l 150 331 l 150 303 q 162 190 150 235 q 210 118 174 144 q 314 92 246 92 q 447 145 414 92 q 479 303 479 199 l 479 993 l 604 993 l 604 303 q 536 72 604 164 q 314 -19 468 -19 z "},"K":{"ha":888,"x_min":103,"x_max":907,"o":"m 103 993 l 228 993 l 228 468 l 732 993 l 874 993 l 482 586 l 907 0 l 761 0 l 401 503 l 228 324 l 228 0 l 103 0 l 103 993 z "},"L":{"ha":769,"x_min":103,"x_max":749,"o":"m 103 993 l 228 993 l 228 111 l 749 111 l 749 0 l 103 0 l 103 993 z "},"M":{"ha":1172,"x_min":103,"x_max":1069,"o":"m 103 993 l 274 993 l 585 168 l 588 168 l 899 993 l 1069 993 l 1069 0 l 944 0 l 944 817 l 942 817 l 642 0 l 531 0 l 231 817 l 228 817 l 228 0 l 103 0 l 103 993 z "},"N":{"ha":982,"x_min":103,"x_max":879,"o":"m 103 993 l 256 993 l 751 178 l 754 178 l 754 993 l 879 993 l 879 0 l 726 0 l 231 815 l 228 815 l 228 0 l 103 0 l 103 993 z "},"O":{"ha":1078,"x_min":53,"x_max":1025,"o":"m 539 -19 q 285 47 396 -19 q 114 231 175 114 q 53 497 53 349 q 114 763 53 646 q 285 947 175 881 q 539 1013 396 1013 q 792 947 682 1013 q 964 763 903 881 q 1025 497 1025 646 q 964 231 1025 349 q 792 47 903 114 q 539 -19 682 -19 m 183 497 q 222 293 183 385 q 340 147 260 201 q 539 92 419 92 q 738 147 658 92 q 856 293 818 201 q 894 497 894 385 q 856 700 894 608 q 738 847 818 792 q 539 901 658 901 q 340 847 419 901 q 222 700 260 792 q 183 497 183 608 z "},"P":{"ha":850,"x_min":103,"x_max":819,"o":"m 103 993 l 497 993 q 731 923 643 993 q 819 704 819 853 q 731 485 819 556 q 497 415 643 415 l 228 415 l 228 0 l 103 0 l 103 993 m 506 526 q 644 570 599 526 q 689 704 689 614 q 644 838 689 794 q 506 882 599 882 l 228 882 l 228 526 l 506 526 z "},"Q":{"ha":1078,"x_min":53,"x_max":1039,"o":"m 539 -19 q 285 47 396 -19 q 114 231 175 114 q 53 497 53 349 q 114 763 53 646 q 285 947 175 881 q 539 1013 396 1013 q 792 947 682 1013 q 964 763 903 881 q 1025 497 1025 646 q 997 309 1025 397 q 914 154 968 221 l 1039 29 l 960 -50 l 835 75 q 539 -19 710 -19 m 183 497 q 222 293 183 385 q 340 147 260 201 q 539 92 419 92 q 753 157 665 92 l 622 288 l 701 367 l 828 240 q 894 497 894 343 q 856 700 894 608 q 738 847 818 792 q 539 901 658 901 q 340 847 419 901 q 222 700 260 792 q 183 497 183 608 z "},"R":{"ha":897,"x_min":103,"x_max":847,"o":"m 103 993 l 501 993 q 749 919 664 993 q 833 707 833 846 q 783 549 833 615 q 653 464 732 483 l 653 461 q 758 393 722 447 q 806 274 794 339 q 824 119 818 210 q 832 38 828 63 q 847 8 836 13 l 847 0 l 713 0 q 701 33 704 8 q 699 100 699 57 q 685 249 696 189 q 635 356 675 310 q 513 401 594 401 l 228 401 l 228 0 l 103 0 l 103 993 m 472 513 q 647 562 586 513 q 708 704 708 611 q 653 838 708 793 q 476 882 599 882 l 228 882 l 228 513 l 472 513 z "},"S":{"ha":867,"x_min":35,"x_max":824,"o":"m 469 -19 q 250 23 346 -19 q 98 144 154 65 q 35 333 42 224 l 165 333 q 464 90 190 90 q 641 138 589 90 q 693 271 693 186 q 665 369 693 335 q 588 423 638 404 q 432 468 538 442 q 403 475 422 469 q 235 526 301 500 q 123 607 169 553 q 76 750 76 661 q 165 942 76 871 q 413 1013 254 1013 q 680 931 581 1013 q 792 699 779 849 l 661 699 q 589 852 647 801 q 414 903 531 903 q 259 865 311 903 q 207 756 207 828 q 240 664 207 697 q 319 614 272 631 q 454 576 367 597 q 653 519 579 547 q 775 432 726 490 q 824 275 824 374 q 735 63 824 144 q 469 -19 646 -19 z "},"T":{"ha":828,"x_min":21,"x_max":807,"o":"m 351 882 l 21 882 l 21 993 l 807 993 l 807 882 l 476 882 l 476 0 l 351 0 l 351 882 z "},"U":{"ha":953,"x_min":96,"x_max":857,"o":"m 476 -19 q 190 76 285 -19 q 96 331 96 171 l 96 993 l 221 993 l 221 331 q 284 151 221 210 q 476 92 347 92 q 669 151 606 92 q 732 331 732 210 l 732 993 l 857 993 l 857 331 q 763 76 857 171 q 476 -19 668 -19 z "},"V":{"ha":865,"x_min":11,"x_max":850,"o":"m 11 993 l 149 993 l 435 121 l 436 121 l 719 993 l 850 993 l 503 0 l 367 0 l 11 993 z "},"W":{"ha":1275,"x_min":22,"x_max":1253,"o":"m 22 993 l 154 993 l 343 179 l 346 179 l 568 993 l 707 993 l 929 179 l 932 179 l 1121 993 l 1253 993 l 1007 0 l 868 0 l 639 851 l 636 851 l 407 0 l 268 0 l 22 993 z "},"X":{"ha":807,"x_min":-4,"x_max":806,"o":"m 335 507 l 19 993 l 161 993 l 406 596 l 407 596 l 653 993 l 792 993 l 476 510 l 806 0 l 658 0 l 401 418 l 400 418 l 146 0 l -4 0 l 335 507 z "},"Y":{"ha":872,"x_min":13,"x_max":861,"o":"m 374 407 l 13 993 l 147 993 l 435 503 l 438 503 l 726 993 l 861 993 l 499 407 l 499 0 l 374 0 l 374 407 z "},"Z":{"ha":836,"x_min":29,"x_max":801,"o":"m 29 111 l 635 879 l 635 882 l 57 882 l 57 993 l 788 993 l 788 882 l 182 114 l 182 111 l 801 111 l 801 0 l 29 0 l 29 111 z "},"[":{"ha":388,"x_min":94,"x_max":357,"o":"m 94 1049 l 357 1049 l 357 938 l 219 938 l 219 -51 l 357 -51 l 357 -162 l 94 -162 l 94 1049 z "},"\\":{"ha":531,"x_min":18,"x_max":514,"o":"m 18 993 l 129 993 l 514 0 l 403 0 l 18 993 z "},"]":{"ha":388,"x_min":31,"x_max":293,"o":"m 31 -51 l 168 -51 l 168 938 l 31 938 l 31 1049 l 293 1049 l 293 -162 l 31 -162 l 31 -51 z "},"^":{"ha":660,"x_min":31,"x_max":629,"o":"m 275 993 l 386 993 l 629 611 l 506 611 l 331 892 l 329 892 l 156 611 l 31 611 l 275 993 z "},"_":{"ha":792,"x_min":35,"x_max":757,"o":"m 35 -92 l 757 -92 l 757 -203 l 35 -203 l 35 -92 z "},"`":{"ha":303,"x_min":44,"x_max":247,"o":"m 44 1007 l 176 1007 l 247 821 l 157 821 l 44 1007 z "},"a":{"ha":724,"x_min":43,"x_max":683,"o":"m 276 -19 q 106 36 169 -19 q 43 182 43 92 q 79 307 43 260 q 179 379 115 354 q 346 422 243 404 q 451 446 415 435 q 504 476 486 457 q 522 528 522 494 q 375 632 522 632 q 270 618 308 632 q 215 573 232 604 q 194 489 199 542 l 78 489 q 157 664 83 599 q 379 729 231 729 q 560 675 490 729 q 631 500 631 621 l 631 160 q 639 97 631 117 q 667 76 647 76 l 683 78 l 683 0 q 629 -7 653 -7 q 555 17 581 -7 q 524 104 529 42 l 521 104 q 424 13 485 44 q 276 -19 363 -19 m 160 188 q 190 106 160 133 q 288 78 221 78 q 458 127 393 78 q 522 274 522 176 l 522 386 q 356 331 497 358 q 204 278 249 308 q 160 188 160 247 z "},"b":{"ha":779,"x_min":81,"x_max":736,"o":"m 417 -19 q 194 92 271 -19 l 192 92 l 192 0 l 81 0 l 81 993 l 192 993 l 192 621 l 194 621 q 417 728 276 728 q 578 683 506 728 q 694 553 651 638 q 736 354 736 468 q 694 156 736 240 q 578 26 651 71 q 417 -19 506 -19 m 192 354 q 249 153 192 229 q 406 78 307 78 q 524 117 475 78 q 596 219 572 156 q 619 354 619 282 q 596 490 619 426 q 524 592 572 553 q 406 631 475 631 q 249 555 307 631 q 192 354 192 479 z "},"c":{"ha":731,"x_min":42,"x_max":696,"o":"m 385 -19 q 204 28 282 -19 q 84 160 126 75 q 42 354 42 244 q 84 549 42 464 q 204 681 126 633 q 385 728 282 728 q 538 692 471 728 q 647 594 606 657 q 696 453 688 532 l 579 453 q 527 577 574 524 q 385 631 481 631 q 213 549 268 631 q 158 354 158 468 q 213 159 158 240 q 385 78 268 78 q 528 132 482 78 q 579 261 574 186 l 696 261 q 650 117 692 181 q 540 17 608 53 q 385 -19 471 -19 z "},"d":{"ha":779,"x_min":43,"x_max":699,"o":"m 363 -19 q 201 26 274 -19 q 85 156 128 71 q 43 354 43 240 q 85 553 43 468 q 201 683 128 638 q 363 728 274 728 q 585 617 508 728 l 588 617 l 588 993 l 699 993 l 699 0 l 588 0 l 588 88 l 585 88 q 363 -19 503 -19 m 160 354 q 183 219 160 282 q 256 117 207 156 q 374 78 304 78 q 530 153 472 78 q 588 354 588 229 q 530 555 588 479 q 374 631 472 631 q 256 592 304 631 q 183 490 207 553 q 160 354 160 426 z "},"e":{"ha":757,"x_min":43,"x_max":715,"o":"m 388 -21 q 201 28 279 -21 q 83 162 124 76 q 43 356 43 247 q 85 553 43 468 q 206 683 128 638 q 388 729 283 729 q 563 685 489 729 q 676 563 638 642 q 715 381 715 485 q 714 325 715 336 l 160 325 q 221 149 163 222 q 389 75 279 75 q 531 121 481 75 q 593 218 581 167 l 706 218 q 597 45 676 111 q 388 -21 517 -21 m 597 422 q 571 529 597 481 q 495 606 544 578 q 382 633 446 633 q 228 574 290 633 q 160 422 165 515 l 597 422 z "},"f":{"ha":382,"x_min":29,"x_max":374,"o":"m 128 804 q 171 960 128 918 q 300 1001 214 1001 q 374 994 329 1001 l 374 900 q 315 904 332 904 q 254 885 269 904 q 239 810 239 867 l 239 708 l 374 708 l 374 611 l 239 611 l 239 0 l 128 0 l 128 611 l 29 611 l 29 708 l 128 708 l 128 804 z "},"g":{"ha":781,"x_min":46,"x_max":701,"o":"m 376 -254 q 154 -194 233 -254 q 67 -31 75 -133 l 183 -31 q 376 -157 208 -157 q 536 -110 482 -157 q 590 36 590 -64 l 590 147 l 588 147 q 363 36 511 36 q 201 75 272 36 q 88 192 129 114 q 46 382 46 269 q 88 572 46 494 q 201 689 129 650 q 363 728 272 728 q 588 621 506 728 l 590 621 l 590 708 l 701 708 l 701 47 q 615 -178 701 -101 q 376 -254 529 -254 m 163 382 q 217 203 163 272 q 376 133 272 133 q 534 197 478 133 q 590 382 590 260 q 534 567 590 504 q 376 631 478 631 q 217 561 272 631 q 163 382 163 492 z "},"h":{"ha":740,"x_min":81,"x_max":665,"o":"m 554 467 q 517 585 554 540 q 400 631 479 631 q 249 578 307 631 q 192 442 192 525 l 192 0 l 81 0 l 81 993 l 192 993 l 192 624 l 194 624 q 286 698 228 668 q 428 728 344 728 q 599 669 532 728 q 665 494 665 610 l 665 0 l 554 0 l 554 467 z "},"i":{"ha":272,"x_min":69,"x_max":203,"o":"m 81 708 l 192 708 l 192 0 l 81 0 l 81 708 m 69 979 l 203 979 l 203 846 l 69 846 l 69 979 z "},"j":{"ha":272,"x_min":-36,"x_max":203,"o":"m 38 -250 q -36 -243 4 -250 l -36 -149 q 19 -153 -1 -153 q 67 -128 53 -153 q 81 -44 81 -104 l 81 708 l 192 708 l 192 -56 q 149 -203 192 -157 q 38 -250 106 -250 m 69 979 l 203 979 l 203 846 l 69 846 l 69 979 z "},"k":{"ha":667,"x_min":81,"x_max":685,"o":"m 81 993 l 192 993 l 192 399 l 522 708 l 656 708 l 376 451 l 685 0 l 553 0 l 301 382 l 192 282 l 192 0 l 81 0 l 81 993 z "},"l":{"ha":272,"x_min":81,"x_max":192,"o":"m 81 993 l 192 993 l 192 0 l 81 0 l 81 993 z "},"m":{"ha":1108,"x_min":81,"x_max":1033,"o":"m 501 467 q 475 588 501 546 q 372 631 449 631 q 241 578 290 631 q 192 442 192 525 l 192 0 l 81 0 l 81 708 l 192 708 l 192 624 l 194 624 q 400 728 272 728 q 521 697 475 728 q 589 606 567 667 l 592 606 q 821 728 681 728 q 980 667 926 728 q 1033 494 1033 607 l 1033 0 l 922 0 l 922 467 q 896 588 922 546 q 793 631 869 631 q 662 578 711 631 q 613 442 613 525 l 613 0 l 501 0 l 501 467 z "},"n":{"ha":740,"x_min":81,"x_max":665,"o":"m 554 467 q 517 585 554 540 q 400 631 479 631 q 249 578 307 631 q 192 442 192 525 l 192 0 l 81 0 l 81 708 l 192 708 l 192 624 l 194 624 q 286 698 228 668 q 428 728 344 728 q 599 669 532 728 q 665 494 665 610 l 665 0 l 554 0 l 554 467 z "},"o":{"ha":776,"x_min":42,"x_max":735,"o":"m 389 -21 q 203 26 282 -21 q 83 159 125 74 q 42 354 42 244 q 83 549 42 464 q 203 682 125 635 q 389 729 282 729 q 573 682 494 729 q 693 549 651 635 q 735 354 735 464 q 693 159 735 244 q 573 26 651 74 q 389 -21 494 -21 m 158 354 q 217 155 158 233 q 389 76 275 76 q 560 155 501 76 q 618 354 618 233 q 560 553 618 475 q 389 632 501 632 q 217 553 275 632 q 158 354 158 475 z "},"p":{"ha":779,"x_min":81,"x_max":736,"o":"m 417 -19 q 194 92 271 -19 l 192 92 l 192 -246 l 81 -246 l 81 708 l 192 708 l 192 621 l 194 621 q 417 728 276 728 q 578 683 506 728 q 694 553 651 638 q 736 354 736 468 q 694 156 736 240 q 578 26 651 71 q 417 -19 506 -19 m 192 354 q 249 153 192 229 q 406 78 307 78 q 524 117 475 78 q 596 219 572 156 q 619 354 619 282 q 596 490 619 426 q 524 592 572 553 q 406 631 475 631 q 249 555 307 631 q 192 354 192 479 z "},"q":{"ha":778,"x_min":43,"x_max":699,"o":"m 363 -19 q 201 26 274 -19 q 85 156 128 71 q 43 354 43 240 q 85 553 43 468 q 201 683 128 638 q 363 728 274 728 q 585 617 508 728 l 588 617 l 588 708 l 699 708 l 699 -246 l 588 -246 l 588 88 l 585 88 q 363 -19 503 -19 m 160 354 q 183 219 160 282 q 256 117 207 156 q 374 78 304 78 q 530 153 472 78 q 588 354 588 229 q 530 555 588 479 q 374 631 472 631 q 256 592 304 631 q 183 490 207 553 q 160 354 160 426 z "},"r":{"ha":468,"x_min":81,"x_max":456,"o":"m 192 0 l 81 0 l 81 708 l 192 708 l 192 568 l 194 568 q 272 686 225 644 q 390 728 318 728 q 456 724 426 728 l 456 613 q 410 617 431 617 q 252 549 313 617 q 192 378 192 481 l 192 0 z "},"s":{"ha":665,"x_min":31,"x_max":633,"o":"m 349 -19 q 117 51 200 -19 q 31 236 33 122 l 147 236 q 199 121 151 164 q 349 78 246 78 q 479 112 442 78 q 517 194 517 146 q 494 258 517 235 q 441 293 472 282 q 356 315 410 304 l 328 321 q 190 360 243 340 q 97 420 136 379 q 58 529 58 461 q 127 674 58 619 q 317 728 196 728 q 523 665 449 728 q 606 506 597 603 l 489 506 q 442 595 478 560 q 318 631 406 631 q 210 604 246 631 q 175 533 175 578 q 195 480 175 500 q 246 449 215 460 q 331 428 276 439 q 364 421 342 426 q 502 381 447 401 q 595 316 557 360 q 633 199 633 272 q 558 39 633 97 q 349 -19 483 -19 z "},"t":{"ha":410,"x_min":19,"x_max":374,"o":"m 300 -7 q 169 35 214 -7 q 124 190 124 78 l 124 611 l 19 611 l 19 708 l 124 708 l 124 944 l 235 944 l 235 708 l 374 708 l 374 611 l 235 611 l 235 185 q 251 110 235 129 q 315 90 268 90 q 374 94 339 90 l 374 0 q 300 -7 333 -7 z "},"u":{"ha":740,"x_min":75,"x_max":660,"o":"m 313 -19 q 142 40 208 -19 q 75 214 75 99 l 75 708 l 186 708 l 186 242 q 224 123 186 168 q 340 78 261 78 q 491 131 433 78 q 549 267 549 183 l 549 708 l 660 708 l 660 0 l 549 0 l 549 85 l 546 85 q 454 10 513 40 q 313 -19 396 -19 z "},"v":{"ha":660,"x_min":13,"x_max":647,"o":"m 13 708 l 135 708 l 332 111 l 333 111 l 528 708 l 647 708 l 393 0 l 267 0 l 13 708 z "},"w":{"ha":1039,"x_min":15,"x_max":1025,"o":"m 15 708 l 140 708 l 303 125 l 306 125 l 461 708 l 582 708 l 738 125 l 740 125 l 904 708 l 1025 708 l 799 0 l 678 0 l 521 575 l 518 575 l 361 0 l 240 0 l 15 708 z "},"x":{"ha":663,"x_min":-10,"x_max":674,"o":"m 264 363 l 13 708 l 146 708 l 331 440 l 333 440 l 515 708 l 647 708 l 397 363 l 674 0 l 540 0 l 331 286 l 328 286 l 122 0 l -10 0 l 264 363 z "},"y":{"ha":683,"x_min":1,"x_max":675,"o":"m 154 -249 q 81 -242 121 -249 l 81 -147 q 136 -151 117 -151 q 227 -115 186 -151 q 289 7 268 -78 l 1 708 l 126 708 l 344 144 l 347 144 l 556 708 l 675 708 l 389 -21 q 283 -199 338 -150 q 154 -249 229 -249 z "},"z":{"ha":626,"x_min":26,"x_max":599,"o":"m 26 83 l 426 608 l 426 611 l 50 611 l 50 708 l 583 708 l 583 642 l 171 100 l 171 97 l 599 97 l 599 0 l 26 0 l 26 83 z "},"{":{"ha":403,"x_min":35,"x_max":371,"o":"m 344 -162 q 212 -142 260 -162 q 140 -61 164 -121 q 115 113 115 -1 l 115 256 q 99 353 115 318 q 35 388 82 388 l 35 499 q 99 532 82 497 q 115 629 115 567 l 115 779 q 139 951 115 893 q 210 1029 163 1010 q 344 1049 258 1049 l 371 1049 l 371 938 l 344 938 q 266 909 292 938 q 240 808 240 881 l 240 593 q 219 503 240 538 q 158 444 197 468 l 158 442 q 219 383 197 418 q 240 292 240 349 l 240 83 q 266 -22 240 7 q 344 -51 292 -51 l 371 -51 l 371 -162 l 344 -162 z "},"|":{"ha":303,"x_min":103,"x_max":200,"o":"m 103 1033 l 200 1033 l 200 -178 l 103 -178 l 103 1033 z "},"}":{"ha":403,"x_min":32,"x_max":368,"o":"m 32 -51 l 58 -51 q 137 -23 111 -51 q 163 78 163 6 l 163 293 q 184 383 163 349 q 244 442 206 418 l 244 444 q 184 503 206 468 q 163 594 163 538 l 163 803 q 137 908 163 879 q 58 938 111 938 l 32 938 l 32 1049 l 58 1049 q 191 1028 143 1049 q 263 947 239 1007 q 288 774 288 888 l 288 631 q 304 533 288 568 q 368 499 321 499 l 368 388 q 304 354 321 389 q 288 257 288 319 l 288 107 q 264 -65 288 -7 q 192 -143 240 -124 q 58 -162 144 -162 l 32 -162 l 32 -51 z "},"~":{"ha":594,"x_min":75,"x_max":521,"o":"m 75 375 q 108 493 75 447 q 199 539 142 539 q 254 530 229 539 q 311 503 279 521 q 342 486 326 493 q 371 479 358 479 q 411 498 399 479 q 424 539 424 517 l 521 539 q 488 421 521 467 q 397 375 454 375 q 341 385 367 375 q 286 411 315 394 q 253 428 269 421 q 225 435 238 435 q 185 416 197 435 q 172 375 172 397 l 75 375 z "}," ":{"ha":297,"x_min":0,"x_max":0,"o":""},"¡":{"ha":294,"x_min":81,"x_max":214,"o":"m 85 104 l 113 557 l 182 557 l 210 104 l 210 -181 l 85 -181 l 85 104 m 81 813 l 214 813 l 214 679 l 81 679 l 81 813 z "},"¢":{"ha":775,"x_min":67,"x_max":721,"o":"m 364 129 q 147 245 228 144 q 67 500 67 346 q 147 755 67 654 q 364 871 228 856 l 364 981 l 447 981 l 447 872 q 635 786 561 861 q 721 599 710 711 l 604 599 q 561 713 599 663 q 447 774 524 763 l 447 226 q 562 288 525 238 q 604 407 599 339 l 721 407 q 639 217 714 294 q 447 128 564 140 l 447 7 l 364 7 l 364 129 m 183 500 q 227 322 183 399 q 364 228 271 244 l 364 772 q 227 678 271 756 q 183 500 183 601 z "},"£":{"ha":796,"x_min":54,"x_max":758,"o":"m 564 -19 q 488 -8 521 -19 q 408 26 454 4 q 346 56 372 46 q 290 65 319 65 q 214 51 249 65 q 121 0 179 38 l 54 92 q 148 203 113 129 q 183 369 183 278 l 183 383 l 68 383 l 68 488 l 151 488 q 109 591 122 550 q 96 692 96 632 q 128 819 96 756 q 233 927 161 883 q 413 971 304 971 q 652 881 574 971 q 731 644 731 792 l 606 644 q 560 805 606 750 q 413 860 514 860 q 272 811 322 860 q 221 682 221 763 q 232 605 221 639 q 265 519 243 571 q 281 488 275 503 l 503 488 l 503 383 l 307 383 q 308 363 308 376 q 278 224 308 286 q 196 125 247 163 l 197 122 q 228 138 206 126 q 278 158 251 150 q 333 165 304 165 q 394 157 368 165 q 453 132 419 149 q 503 110 483 117 q 550 103 524 103 q 628 118 594 103 q 706 165 663 133 l 758 64 q 663 1 704 22 q 564 -19 622 -19 z "},"¤":{"ha":733,"x_min":54,"x_max":679,"o":"m 367 201 q 203 256 274 201 l 114 167 l 54 225 l 144 315 q 96 478 96 383 q 144 642 96 574 l 54 732 l 114 790 l 203 701 q 367 754 276 754 q 529 700 458 754 l 618 789 l 679 731 l 588 640 q 636 478 636 572 q 589 317 636 386 l 679 226 l 619 167 l 531 256 q 453 215 496 229 q 367 201 410 201 m 207 478 q 251 344 207 389 q 367 299 296 299 q 481 344 438 299 q 525 478 525 389 q 481 612 525 567 q 367 657 438 657 q 251 612 296 657 q 207 478 207 567 z "},"¥":{"ha":822,"x_min":35,"x_max":788,"o":"m 349 178 l 106 178 l 106 261 l 349 261 l 349 340 l 106 340 l 106 424 l 332 424 l 35 953 l 169 953 l 410 494 l 413 494 l 653 953 l 788 953 l 490 424 l 717 424 l 717 340 l 474 340 l 474 261 l 717 261 l 717 178 l 474 178 l 474 0 l 349 0 l 349 178 z "},"¦":{"ha":303,"x_min":103,"x_max":200,"o":"m 103 340 l 200 340 l 200 -178 l 103 -178 l 103 340 m 103 1033 l 200 1033 l 200 533 l 103 533 l 103 1033 z "},"§":{"ha":819,"x_min":61,"x_max":758,"o":"m 413 -262 q 213 -197 279 -262 q 142 -31 146 -132 l 253 -31 q 288 -126 253 -87 q 413 -165 324 -165 q 564 -54 564 -165 q 543 19 564 -11 q 495 69 522 50 q 407 124 468 88 l 339 164 l 285 196 q 161 272 206 240 q 89 345 117 303 q 61 444 61 388 q 99 566 61 519 q 203 631 136 613 q 144 782 144 693 q 211 940 144 878 q 407 1001 278 1001 q 607 936 540 1001 q 678 769 674 871 l 567 769 q 553 836 563 810 q 509 883 543 863 q 407 904 475 904 q 256 793 256 904 q 277 714 256 746 q 326 665 299 682 q 419 611 353 647 l 488 574 l 513 560 q 650 477 603 510 q 728 400 697 444 q 758 294 758 356 q 722 174 758 221 q 618 110 685 128 q 675 -43 675 46 q 608 -201 675 -139 q 413 -262 542 -262 m 172 465 q 199 394 172 426 q 270 333 226 361 q 403 254 314 304 l 485 208 q 539 176 503 199 q 621 209 594 182 q 647 274 647 236 q 592 375 647 329 q 424 485 538 421 l 342 531 l 286 563 q 200 531 228 558 q 172 465 172 503 z "},"¨":{"ha":475,"x_min":57,"x_max":407,"o":"m 57 979 l 190 979 l 190 846 l 57 846 l 57 979 m 274 979 l 407 979 l 407 846 l 274 846 l 274 979 z "},"©":{"ha":1175,"x_min":68,"x_max":1107,"o":"m 589 -19 q 313 43 431 -19 q 132 222 196 106 q 68 496 68 339 q 132 769 68 653 q 313 949 196 886 q 589 1013 431 1013 q 863 950 746 1013 q 1044 770 981 888 q 1107 496 1107 653 q 1044 222 1107 339 q 863 43 981 106 q 589 -19 746 -19 m 171 496 q 222 269 171 365 q 368 122 274 174 q 589 69 463 69 q 808 122 714 69 q 953 269 903 174 q 1004 496 1004 365 q 953 723 1004 626 q 808 872 903 819 q 589 924 714 924 q 368 872 463 924 q 222 723 274 819 q 171 496 171 626 m 307 496 q 382 722 307 636 q 590 808 457 808 q 776 744 704 808 q 858 585 847 681 l 761 585 q 716 669 754 628 q 594 711 678 711 q 451 651 493 711 q 410 496 410 592 q 451 342 410 401 q 594 282 493 282 q 717 323 679 282 q 761 410 754 364 l 858 410 q 822 296 854 347 q 733 215 790 244 q 601 185 676 185 q 385 270 464 185 q 307 496 307 356 z "},"ª":{"ha":594,"x_min":46,"x_max":546,"o":"m 219 424 q 92 467 139 424 q 46 585 46 511 q 103 702 46 664 q 269 760 160 740 q 344 776 318 769 q 385 800 369 783 q 401 847 401 817 q 296 919 401 919 q 206 893 233 919 q 176 813 179 867 l 68 813 q 130 950 71 897 q 303 1003 189 1003 q 504 818 504 1003 l 504 563 q 510 522 504 536 q 531 508 515 508 l 546 508 l 546 442 q 489 433 513 433 q 427 453 447 433 q 403 517 407 474 l 399 517 q 326 449 372 474 q 219 424 279 424 m 156 589 q 250 513 156 513 q 359 550 317 513 q 401 653 401 588 l 401 729 q 285 688 382 708 q 189 651 222 674 q 156 589 156 628 z "},"«":{"ha":647,"x_min":63,"x_max":576,"o":"m 300 288 l 300 419 l 576 643 l 576 518 l 364 354 l 364 351 l 576 189 l 576 63 l 300 288 m 63 419 l 339 643 l 339 518 l 126 354 l 126 351 l 339 189 l 339 63 l 63 288 l 63 419 z "},"¬":{"ha":717,"x_min":57,"x_max":632,"o":"m 507 442 l 57 442 l 57 553 l 632 553 l 632 200 l 507 200 l 507 442 z "},"­":{"ha":489,"x_min":58,"x_max":431,"o":"m 58 410 l 431 410 l 431 299 l 58 299 l 58 410 z "},"®":{"ha":794,"x_min":67,"x_max":728,"o":"m 397 343 q 230 387 306 343 q 110 508 154 431 q 67 679 67 585 q 110 851 67 774 q 230 972 154 928 q 397 1015 306 1015 q 565 972 489 1015 q 684 851 640 928 q 728 679 728 774 q 684 508 728 585 q 565 387 640 431 q 397 343 489 343 m 128 679 q 163 535 128 600 q 260 434 199 471 q 397 397 322 397 q 534 434 472 397 q 631 535 596 471 q 667 679 667 600 q 631 823 667 758 q 534 924 596 888 q 397 961 472 961 q 260 924 322 961 q 163 823 199 888 q 128 679 128 758 m 260 865 l 408 865 q 508 837 474 865 q 542 756 542 808 q 463 663 542 681 l 463 660 q 518 622 504 653 q 539 539 532 590 q 543 512 540 524 q 550 499 546 500 l 550 494 l 461 494 q 453 531 456 500 q 438 601 450 575 q 383 626 425 626 l 347 626 l 347 494 l 260 494 l 260 865 m 386 697 q 440 708 419 697 q 460 749 460 718 q 440 786 460 776 q 386 796 421 796 l 347 796 l 347 697 l 386 697 z "},"¯":{"ha":469,"x_min":56,"x_max":414,"o":"m 56 943 l 414 943 l 414 846 l 56 846 l 56 943 z "},"°":{"ha":531,"x_min":51,"x_max":479,"o":"m 265 596 q 147 627 196 596 q 75 706 99 658 q 51 804 51 754 q 75 902 51 854 q 147 981 99 950 q 265 1013 196 1013 q 383 981 335 1013 q 455 902 431 950 q 479 804 479 854 q 455 706 479 754 q 383 627 431 658 q 265 596 335 596 m 140 804 q 174 715 140 750 q 265 679 208 679 q 356 715 322 679 q 390 804 390 750 q 356 894 390 858 q 265 929 322 929 q 174 894 208 929 q 140 804 140 858 z "},"±":{"ha":767,"x_min":68,"x_max":699,"o":"m 328 436 l 68 436 l 68 546 l 328 546 l 328 814 l 439 814 l 439 546 l 699 546 l 699 436 l 439 436 l 439 168 l 328 168 l 328 436 m 68 99 l 699 99 l 699 -11 l 68 -11 l 68 99 z "},"²":{"ha":488,"x_min":28,"x_max":447,"o":"m 28 504 q 60 623 28 574 q 158 721 93 672 l 215 760 q 306 831 278 801 q 335 907 335 861 q 315 968 335 944 q 250 992 294 992 q 147 867 147 992 l 40 867 q 95 1022 40 961 q 254 1082 150 1082 q 394 1038 342 1082 q 447 914 447 993 q 426 826 447 864 q 373 760 404 788 q 288 697 342 733 q 215 644 242 667 q 175 596 189 622 l 175 594 l 443 594 l 443 504 l 28 504 z "},"³":{"ha":514,"x_min":31,"x_max":475,"o":"m 265 501 q 92 556 153 501 q 31 710 31 610 l 139 710 q 167 622 139 651 q 257 592 194 592 q 361 676 361 592 q 254 765 361 765 l 211 765 l 211 847 l 251 847 q 344 922 344 847 q 322 981 344 960 q 257 1001 300 1001 q 179 976 204 1001 q 154 907 154 951 l 47 907 q 104 1040 47 989 q 264 1092 161 1092 q 399 1049 343 1092 q 456 935 456 1007 q 371 813 456 850 l 371 811 q 475 672 475 779 q 417 547 475 592 q 265 501 360 501 z "},"´":{"ha":303,"x_min":42,"x_max":258,"o":"m 126 1007 l 258 1007 l 132 821 l 42 821 l 126 1007 z "},"µ":{"ha":774,"x_min":94,"x_max":679,"o":"m 94 708 l 206 708 l 206 242 q 243 122 206 167 q 363 78 281 78 q 510 131 453 78 q 568 267 568 185 l 568 708 l 679 708 l 679 0 l 568 0 l 568 85 l 565 85 q 479 11 535 42 q 349 -19 424 -19 q 206 24 263 -19 l 206 -246 l 94 -246 l 94 708 z "},"¶":{"ha":763,"x_min":26,"x_max":656,"o":"m 356 465 l 292 465 q 94 532 161 465 q 26 725 26 599 q 94 923 26 853 q 292 993 161 993 l 656 993 l 656 0 l 558 0 l 558 882 l 453 882 l 453 0 l 356 0 l 356 465 z "},"·":{"ha":275,"x_min":71,"x_max":204,"o":"m 71 414 l 204 414 l 204 281 l 71 281 l 71 414 z "},"¸":{"ha":404,"x_min":56,"x_max":349,"o":"m 204 -275 q 125 -263 164 -275 q 56 -232 86 -251 l 85 -197 q 182 -218 140 -218 q 234 -204 217 -218 q 251 -167 251 -190 q 197 -124 251 -124 q 167 -126 183 -124 q 140 -133 150 -129 l 124 -107 l 211 0 l 281 0 l 215 -76 l 215 -79 q 239 -78 222 -78 q 316 -100 283 -78 q 349 -168 349 -122 q 307 -249 349 -222 q 204 -275 265 -275 z "},"¹":{"ha":314,"x_min":18,"x_max":247,"o":"m 138 906 q 18 883 108 883 l 18 971 q 121 996 86 972 q 157 1069 156 1019 l 247 1069 l 247 506 l 138 506 l 138 906 z "},"º":{"ha":618,"x_min":42,"x_max":576,"o":"m 310 424 q 114 503 186 424 q 42 714 42 583 q 114 923 42 843 q 310 1003 186 1003 q 505 923 433 1003 q 576 714 576 843 q 505 503 576 583 q 310 424 433 424 m 147 714 q 188 570 147 626 q 310 514 229 514 q 431 570 390 514 q 471 714 471 626 q 431 857 471 801 q 310 913 390 913 q 188 857 229 913 q 147 714 147 801 z "},"»":{"ha":647,"x_min":71,"x_max":585,"o":"m 308 188 l 521 351 l 521 354 l 308 517 l 308 643 l 585 418 l 585 286 l 308 63 l 308 188 m 71 188 l 283 351 l 283 354 l 71 517 l 71 643 l 347 418 l 347 286 l 71 63 l 71 188 z "},"¼":{"ha":1025,"x_min":24,"x_max":1003,"o":"m 143 829 q 24 807 114 807 l 24 894 q 126 919 92 896 q 163 993 161 943 l 253 993 l 253 429 l 143 429 l 143 829 m 714 993 l 842 993 l 213 0 l 85 0 l 714 993 m 813 125 l 550 125 l 550 229 l 813 564 l 922 564 l 922 215 l 1003 215 l 1003 125 l 922 125 l 922 0 l 813 0 l 813 125 m 813 215 l 813 436 l 640 215 l 813 215 z "},"½":{"ha":1092,"x_min":26,"x_max":1046,"o":"m 146 829 q 26 807 117 807 l 26 894 q 129 919 94 896 q 165 993 164 943 l 256 993 l 256 429 l 146 429 l 146 829 m 717 993 l 844 993 l 215 0 l 88 0 l 717 993 m 626 0 q 659 119 626 69 q 757 217 692 168 l 814 256 q 905 327 876 297 q 933 403 933 357 q 913 464 933 440 q 849 488 893 488 q 746 363 746 488 l 639 363 q 694 517 639 457 q 853 578 749 578 q 993 533 940 578 q 1046 410 1046 489 q 1024 322 1046 360 q 972 256 1003 283 q 886 193 940 229 q 814 140 840 163 q 774 92 788 118 l 774 90 l 1042 90 l 1042 0 l 626 0 z "},"¾":{"ha":1258,"x_min":42,"x_max":1229,"o":"m 276 418 q 103 472 164 418 q 42 626 42 526 l 150 626 q 178 538 150 568 q 268 508 206 508 q 372 593 372 508 q 265 682 372 682 l 222 682 l 222 764 l 263 764 q 356 839 356 764 q 333 897 356 876 q 268 918 311 918 q 190 893 215 918 q 165 824 165 868 l 58 824 q 115 957 58 906 q 275 1008 172 1008 q 410 966 354 1008 q 467 851 467 924 q 382 729 467 767 l 382 728 q 486 589 486 696 q 428 463 486 508 q 276 418 371 418 m 940 993 l 1068 993 l 439 0 l 311 0 l 940 993 m 1039 125 l 776 125 l 776 229 l 1039 564 l 1149 564 l 1149 215 l 1229 215 l 1229 125 l 1149 125 l 1149 0 l 1039 0 l 1039 125 m 1039 215 l 1039 436 l 867 215 l 1039 215 z "},"¿":{"ha":682,"x_min":25,"x_max":660,"o":"m 329 -201 q 169 -169 238 -201 q 63 -77 100 -136 q 25 58 25 -18 q 44 151 25 113 q 88 215 63 190 q 171 286 114 240 l 197 307 q 265 367 240 342 q 304 439 289 393 q 319 557 319 485 l 444 557 q 422 414 444 472 q 365 320 399 356 q 278 242 332 285 q 228 203 269 235 q 169 135 188 171 q 150 57 150 100 q 196 -51 150 -12 q 325 -90 242 -90 q 477 -36 419 -90 q 535 140 535 18 l 660 140 q 622 -37 660 40 q 509 -158 583 -114 q 329 -201 435 -201 m 311 811 l 444 811 l 444 678 l 311 678 l 311 811 z "},"À":{"ha":894,"x_min":10,"x_max":886,"o":"m 376 993 l 517 993 l 886 0 l 751 0 l 664 249 l 226 249 l 139 0 l 10 0 l 376 993 m 624 360 l 447 878 l 444 878 l 268 360 l 624 360 m 283 1292 l 415 1292 l 486 1106 l 396 1106 l 283 1292 z "},"Á":{"ha":894,"x_min":10,"x_max":886,"o":"m 376 993 l 517 993 l 886 0 l 751 0 l 664 249 l 226 249 l 139 0 l 10 0 l 376 993 m 624 360 l 447 878 l 444 878 l 268 360 l 624 360 m 471 1292 l 603 1292 l 476 1106 l 386 1106 l 471 1292 z "},"Â":{"ha":894,"x_min":10,"x_max":886,"o":"m 376 993 l 517 993 l 886 0 l 751 0 l 664 249 l 226 249 l 139 0 l 10 0 l 376 993 m 624 360 l 447 878 l 444 878 l 268 360 l 624 360 m 383 1292 l 508 1292 l 636 1106 l 525 1106 l 447 1232 l 444 1232 l 367 1106 l 256 1106 l 383 1292 z "},"Ã":{"ha":894,"x_min":10,"x_max":886,"o":"m 376 993 l 517 993 l 886 0 l 751 0 l 664 249 l 226 249 l 139 0 l 10 0 l 376 993 m 624 360 l 447 878 l 444 878 l 268 360 l 624 360 m 251 1122 q 281 1220 251 1188 q 354 1253 311 1253 q 403 1245 379 1253 q 463 1222 428 1238 q 491 1211 471 1219 q 524 1203 511 1203 q 556 1250 556 1203 l 639 1250 q 609 1151 639 1183 q 536 1119 579 1119 q 487 1127 511 1119 q 428 1150 463 1135 q 399 1161 419 1153 q 367 1169 379 1169 q 335 1122 335 1169 l 251 1122 z "},"Ä":{"ha":894,"x_min":10,"x_max":886,"o":"m 376 993 l 517 993 l 886 0 l 751 0 l 664 249 l 226 249 l 139 0 l 10 0 l 376 993 m 624 360 l 447 878 l 444 878 l 268 360 l 624 360 m 488 1264 l 621 1264 l 621 1131 l 488 1131 l 488 1264 m 271 1264 l 404 1264 l 404 1131 l 271 1131 l 271 1264 z "},"Å":{"ha":894,"x_min":10,"x_max":886,"o":"m 376 993 l 517 993 l 886 0 l 751 0 l 664 249 l 226 249 l 139 0 l 10 0 l 376 993 m 624 360 l 447 878 l 444 878 l 268 360 l 624 360 m 444 1063 q 358 1097 392 1063 q 324 1183 324 1131 q 358 1272 324 1238 q 444 1306 392 1306 q 533 1272 499 1306 q 567 1183 567 1238 q 533 1097 567 1131 q 444 1063 499 1063 m 381 1183 q 399 1135 381 1154 q 444 1117 417 1117 q 492 1135 474 1117 q 510 1183 510 1154 q 492 1232 510 1213 q 444 1251 474 1251 q 399 1232 417 1251 q 381 1183 381 1213 z "},"Æ":{"ha":1349,"x_min":10,"x_max":1306,"o":"m 376 993 l 1289 993 l 1289 882 l 726 882 l 726 569 l 1222 569 l 1222 458 l 726 458 l 726 111 l 1306 111 l 1306 0 l 601 0 l 601 249 l 226 249 l 139 0 l 10 0 l 376 993 m 601 360 l 601 878 l 444 878 l 268 360 l 601 360 z "},"Ç":{"ha":976,"x_min":53,"x_max":935,"o":"m 479 -275 q 400 -263 439 -275 q 331 -232 361 -251 l 360 -197 q 457 -218 415 -218 q 509 -204 492 -218 q 526 -167 526 -190 q 472 -124 526 -124 q 442 -126 458 -124 q 415 -133 425 -129 l 399 -107 l 472 -18 q 253 60 349 -8 q 106 243 158 129 q 53 497 53 357 q 111 763 53 646 q 274 947 169 881 q 513 1013 378 1013 q 722 966 631 1013 q 868 840 814 919 q 935 665 922 761 l 804 665 q 719 830 786 758 q 513 901 651 901 q 326 844 400 901 q 218 696 253 788 q 183 497 183 604 q 218 298 183 390 q 326 149 253 206 q 513 92 400 92 q 726 170 656 92 q 804 358 797 249 l 935 358 q 874 169 924 253 q 738 36 824 86 q 539 -19 651 -14 l 490 -76 l 490 -79 q 514 -78 497 -78 q 591 -100 558 -78 q 624 -168 624 -122 q 582 -249 624 -222 q 479 -275 540 -275 z "},"È":{"ha":850,"x_min":103,"x_max":807,"o":"m 103 993 l 790 993 l 790 882 l 228 882 l 228 569 l 724 569 l 724 458 l 228 458 l 228 111 l 807 111 l 807 0 l 103 0 l 103 993 m 286 1292 l 418 1292 l 489 1106 l 399 1106 l 286 1292 z "},"É":{"ha":850,"x_min":103,"x_max":807,"o":"m 103 993 l 790 993 l 790 882 l 228 882 l 228 569 l 724 569 l 724 458 l 228 458 l 228 111 l 807 111 l 807 0 l 103 0 l 103 993 m 474 1292 l 606 1292 l 479 1106 l 389 1106 l 474 1292 z "},"Ê":{"ha":850,"x_min":103,"x_max":807,"o":"m 103 993 l 790 993 l 790 882 l 228 882 l 228 569 l 724 569 l 724 458 l 228 458 l 228 111 l 807 111 l 807 0 l 103 0 l 103 993 m 386 1292 l 511 1292 l 639 1106 l 528 1106 l 450 1232 l 447 1232 l 369 1106 l 258 1106 l 386 1292 z "},"Ë":{"ha":850,"x_min":103,"x_max":807,"o":"m 103 993 l 790 993 l 790 882 l 228 882 l 228 569 l 724 569 l 724 458 l 228 458 l 228 111 l 807 111 l 807 0 l 103 0 l 103 993 m 490 1264 l 624 1264 l 624 1131 l 490 1131 l 490 1264 m 274 1264 l 407 1264 l 407 1131 l 274 1131 l 274 1264 z "},"Ì":{"ha":331,"x_min":3,"x_max":228,"o":"m 103 993 l 228 993 l 228 0 l 103 0 l 103 993 m 3 1292 l 135 1292 l 206 1106 l 115 1106 l 3 1292 z "},"Í":{"ha":331,"x_min":103,"x_max":322,"o":"m 103 993 l 228 993 l 228 0 l 103 0 l 103 993 m 190 1292 l 322 1292 l 196 1106 l 106 1106 l 190 1292 z "},"Î":{"ha":331,"x_min":-25,"x_max":356,"o":"m 103 993 l 228 993 l 228 0 l 103 0 l 103 993 m 103 1292 l 228 1292 l 356 1106 l 244 1106 l 167 1232 l 164 1232 l 86 1106 l -25 1106 l 103 1292 z "},"Ï":{"ha":331,"x_min":-10,"x_max":340,"o":"m 103 993 l 228 993 l 228 0 l 103 0 l 103 993 m 207 1264 l 340 1264 l 340 1131 l 207 1131 l 207 1264 m -10 1264 l 124 1264 l 124 1131 l -10 1131 l -10 1264 z "},"Ð":{"ha":999,"x_min":17,"x_max":943,"o":"m 142 465 l 17 465 l 17 563 l 142 563 l 142 993 l 501 993 q 738 935 639 993 q 890 766 838 878 q 943 496 943 654 q 826 129 943 258 q 501 0 708 0 l 142 0 l 142 465 m 501 111 q 813 496 813 111 q 501 882 813 882 l 267 882 l 267 563 l 556 563 l 556 465 l 267 465 l 267 111 l 501 111 z "},"Ñ":{"ha":982,"x_min":103,"x_max":879,"o":"m 103 993 l 256 993 l 751 178 l 754 178 l 754 993 l 879 993 l 879 0 l 726 0 l 231 815 l 228 815 l 228 0 l 103 0 l 103 993 m 297 1122 q 327 1220 297 1188 q 400 1253 357 1253 q 449 1245 425 1253 q 508 1222 474 1238 q 537 1211 517 1219 q 569 1203 557 1203 q 601 1250 601 1203 l 685 1250 q 655 1151 685 1183 q 582 1119 625 1119 q 533 1127 557 1119 q 474 1150 508 1135 q 445 1161 465 1153 q 413 1169 425 1169 q 381 1122 381 1169 l 297 1122 z "},"Ò":{"ha":1078,"x_min":53,"x_max":1025,"o":"m 539 -19 q 285 47 396 -19 q 114 231 175 114 q 53 497 53 349 q 114 763 53 646 q 285 947 175 881 q 539 1013 396 1013 q 792 947 682 1013 q 964 763 903 881 q 1025 497 1025 646 q 964 231 1025 349 q 792 47 903 114 q 539 -19 682 -19 m 183 497 q 222 293 183 385 q 340 147 260 201 q 539 92 419 92 q 738 147 658 92 q 856 293 818 201 q 894 497 894 385 q 856 700 894 608 q 738 847 818 792 q 539 901 658 901 q 340 847 419 901 q 222 700 260 792 q 183 497 183 608 m 376 1292 l 508 1292 l 579 1106 l 489 1106 l 376 1292 z "},"Ó":{"ha":1078,"x_min":53,"x_max":1025,"o":"m 539 -19 q 285 47 396 -19 q 114 231 175 114 q 53 497 53 349 q 114 763 53 646 q 285 947 175 881 q 539 1013 396 1013 q 792 947 682 1013 q 964 763 903 881 q 1025 497 1025 646 q 964 231 1025 349 q 792 47 903 114 q 539 -19 682 -19 m 183 497 q 222 293 183 385 q 340 147 260 201 q 539 92 419 92 q 738 147 658 92 q 856 293 818 201 q 894 497 894 385 q 856 700 894 608 q 738 847 818 792 q 539 901 658 901 q 340 847 419 901 q 222 700 260 792 q 183 497 183 608 m 564 1292 l 696 1292 l 569 1106 l 479 1106 l 564 1292 z "},"Ô":{"ha":1078,"x_min":53,"x_max":1025,"o":"m 539 -19 q 285 47 396 -19 q 114 231 175 114 q 53 497 53 349 q 114 763 53 646 q 285 947 175 881 q 539 1013 396 1013 q 792 947 682 1013 q 964 763 903 881 q 1025 497 1025 646 q 964 231 1025 349 q 792 47 903 114 q 539 -19 682 -19 m 183 497 q 222 293 183 385 q 340 147 260 201 q 539 92 419 92 q 738 147 658 92 q 856 293 818 201 q 894 497 894 385 q 856 700 894 608 q 738 847 818 792 q 539 901 658 901 q 340 847 419 901 q 222 700 260 792 q 183 497 183 608 m 476 1292 l 601 1292 l 729 1106 l 618 1106 l 540 1232 l 538 1232 l 460 1106 l 349 1106 l 476 1292 z "},"Õ":{"ha":1078,"x_min":53,"x_max":1025,"o":"m 539 -19 q 285 47 396 -19 q 114 231 175 114 q 53 497 53 349 q 114 763 53 646 q 285 947 175 881 q 539 1013 396 1013 q 792 947 682 1013 q 964 763 903 881 q 1025 497 1025 646 q 964 231 1025 349 q 792 47 903 114 q 539 -19 682 -19 m 183 497 q 222 293 183 385 q 340 147 260 201 q 539 92 419 92 q 738 147 658 92 q 856 293 818 201 q 894 497 894 385 q 856 700 894 608 q 738 847 818 792 q 539 901 658 901 q 340 847 419 901 q 222 700 260 792 q 183 497 183 608 m 344 1122 q 374 1220 344 1188 q 447 1253 404 1253 q 497 1245 472 1253 q 556 1222 521 1238 q 584 1211 564 1219 q 617 1203 604 1203 q 649 1250 649 1203 l 732 1250 q 702 1151 732 1183 q 629 1119 672 1119 q 580 1127 604 1119 q 521 1150 556 1135 q 492 1161 513 1153 q 460 1169 472 1169 q 428 1122 428 1169 l 344 1122 z "},"Ö":{"ha":1078,"x_min":53,"x_max":1025,"o":"m 539 -19 q 285 47 396 -19 q 114 231 175 114 q 53 497 53 349 q 114 763 53 646 q 285 947 175 881 q 539 1013 396 1013 q 792 947 682 1013 q 964 763 903 881 q 1025 497 1025 646 q 964 231 1025 349 q 792 47 903 114 q 539 -19 682 -19 m 183 497 q 222 293 183 385 q 340 147 260 201 q 539 92 419 92 q 738 147 658 92 q 856 293 818 201 q 894 497 894 385 q 856 700 894 608 q 738 847 818 792 q 539 901 658 901 q 340 847 419 901 q 222 700 260 792 q 183 497 183 608 m 581 1264 l 714 1264 l 714 1131 l 581 1131 l 581 1264 m 364 1264 l 497 1264 l 497 1131 l 364 1131 l 364 1264 z "},"×":{"ha":767,"x_min":94,"x_max":672,"o":"m 94 242 l 304 451 l 94 661 l 174 740 l 383 531 l 593 740 l 672 661 l 463 451 l 672 242 l 593 163 l 383 372 l 174 163 l 94 242 z "},"Ø":{"ha":1086,"x_min":53,"x_max":1032,"o":"m 53 56 l 160 164 q 83 315 110 231 q 57 497 57 400 q 118 763 57 646 q 290 947 179 881 q 543 1013 400 1013 q 729 979 643 1013 q 879 883 815 946 l 982 988 l 1032 940 l 925 832 q 1002 681 975 765 q 1029 497 1029 596 q 968 231 1029 349 q 797 47 907 114 q 543 -19 686 -19 q 356 15 442 -19 q 206 113 269 49 l 100 7 l 53 56 m 188 497 q 247 250 188 356 l 796 801 q 543 901 703 901 q 344 847 424 901 q 226 700 264 792 q 188 497 188 608 m 288 194 q 543 92 383 92 q 742 147 663 92 q 860 293 822 201 q 899 497 899 385 q 838 746 899 644 l 288 194 z "},"Ù":{"ha":953,"x_min":96,"x_max":857,"o":"m 476 -19 q 190 76 285 -19 q 96 331 96 171 l 96 993 l 221 993 l 221 331 q 284 151 221 210 q 476 92 347 92 q 669 151 606 92 q 732 331 732 210 l 732 993 l 857 993 l 857 331 q 763 76 857 171 q 476 -19 668 -19 m 314 1292 l 446 1292 l 517 1106 l 426 1106 l 314 1292 z "},"Ú":{"ha":953,"x_min":96,"x_max":857,"o":"m 476 -19 q 190 76 285 -19 q 96 331 96 171 l 96 993 l 221 993 l 221 331 q 284 151 221 210 q 476 92 347 92 q 669 151 606 92 q 732 331 732 210 l 732 993 l 857 993 l 857 331 q 763 76 857 171 q 476 -19 668 -19 m 501 1292 l 633 1292 l 507 1106 l 417 1106 l 501 1292 z "},"Û":{"ha":953,"x_min":96,"x_max":857,"o":"m 476 -19 q 190 76 285 -19 q 96 331 96 171 l 96 993 l 221 993 l 221 331 q 284 151 221 210 q 476 92 347 92 q 669 151 606 92 q 732 331 732 210 l 732 993 l 857 993 l 857 331 q 763 76 857 171 q 476 -19 668 -19 m 414 1292 l 539 1292 l 667 1106 l 556 1106 l 478 1232 l 475 1232 l 397 1106 l 286 1106 l 414 1292 z "},"Ü":{"ha":953,"x_min":96,"x_max":857,"o":"m 476 -19 q 190 76 285 -19 q 96 331 96 171 l 96 993 l 221 993 l 221 331 q 284 151 221 210 q 476 92 347 92 q 669 151 606 92 q 732 331 732 210 l 732 993 l 857 993 l 857 331 q 763 76 857 171 q 476 -19 668 -19 m 518 1264 l 651 1264 l 651 1131 l 518 1131 l 518 1264 m 301 1264 l 435 1264 l 435 1131 l 301 1131 l 301 1264 z "},"Ý":{"ha":872,"x_min":13,"x_max":861,"o":"m 374 407 l 13 993 l 147 993 l 435 503 l 438 503 l 726 993 l 861 993 l 499 407 l 499 0 l 374 0 l 374 407 m 463 1292 l 594 1292 l 468 1106 l 378 1106 l 463 1292 z "},"Þ":{"ha":850,"x_min":103,"x_max":819,"o":"m 103 993 l 228 993 l 228 826 l 497 826 q 731 756 643 826 q 819 538 819 686 q 731 319 819 389 q 497 249 643 249 l 228 249 l 228 0 l 103 0 l 103 993 m 511 360 q 649 403 604 360 q 694 538 694 447 q 649 672 694 628 q 511 715 604 715 l 228 715 l 228 360 l 511 360 z "},"ß":{"ha":718,"x_min":81,"x_max":676,"o":"m 408 -19 q 275 0 344 -19 l 275 97 q 382 75 332 75 q 513 131 465 75 q 560 278 560 188 q 492 445 560 389 q 331 501 425 501 l 289 501 l 289 599 l 326 599 q 460 642 403 599 q 518 767 518 685 q 481 872 518 829 q 361 915 443 915 q 228 857 265 915 q 192 700 192 799 l 192 0 l 81 0 l 81 728 q 156 936 81 860 q 360 1013 231 1013 q 558 947 482 1013 q 635 769 635 881 q 591 635 635 686 q 471 551 547 585 l 471 549 q 676 265 676 479 q 606 58 676 136 q 408 -19 536 -19 z "},"à":{"ha":724,"x_min":43,"x_max":683,"o":"m 276 -19 q 106 36 169 -19 q 43 182 43 92 q 79 307 43 260 q 179 379 115 354 q 346 422 243 404 q 451 446 415 435 q 504 476 486 457 q 522 528 522 494 q 375 632 522 632 q 270 618 308 632 q 215 573 232 604 q 194 489 199 542 l 78 489 q 157 664 83 599 q 379 729 231 729 q 560 675 490 729 q 631 500 631 621 l 631 160 q 639 97 631 117 q 667 76 647 76 l 683 78 l 683 0 q 629 -7 653 -7 q 555 17 581 -7 q 524 104 529 42 l 521 104 q 424 13 485 44 q 276 -19 363 -19 m 160 188 q 190 106 160 133 q 288 78 221 78 q 458 127 393 78 q 522 274 522 176 l 522 386 q 356 331 497 358 q 204 278 249 308 q 160 188 160 247 m 213 1007 l 344 1007 l 415 821 l 325 821 l 213 1007 z "},"á":{"ha":724,"x_min":43,"x_max":683,"o":"m 276 -19 q 106 36 169 -19 q 43 182 43 92 q 79 307 43 260 q 179 379 115 354 q 346 422 243 404 q 451 446 415 435 q 504 476 486 457 q 522 528 522 494 q 375 632 522 632 q 270 618 308 632 q 215 573 232 604 q 194 489 199 542 l 78 489 q 157 664 83 599 q 379 729 231 729 q 560 675 490 729 q 631 500 631 621 l 631 160 q 639 97 631 117 q 667 76 647 76 l 683 78 l 683 0 q 629 -7 653 -7 q 555 17 581 -7 q 524 104 529 42 l 521 104 q 424 13 485 44 q 276 -19 363 -19 m 160 188 q 190 106 160 133 q 288 78 221 78 q 458 127 393 78 q 522 274 522 176 l 522 386 q 356 331 497 358 q 204 278 249 308 q 160 188 160 247 m 400 1007 l 532 1007 l 406 821 l 315 821 l 400 1007 z "},"â":{"ha":724,"x_min":43,"x_max":683,"o":"m 276 -19 q 106 36 169 -19 q 43 182 43 92 q 79 307 43 260 q 179 379 115 354 q 346 422 243 404 q 451 446 415 435 q 504 476 486 457 q 522 528 522 494 q 375 632 522 632 q 270 618 308 632 q 215 573 232 604 q 194 489 199 542 l 78 489 q 157 664 83 599 q 379 729 231 729 q 560 675 490 729 q 631 500 631 621 l 631 160 q 639 97 631 117 q 667 76 647 76 l 683 78 l 683 0 q 629 -7 653 -7 q 555 17 581 -7 q 524 104 529 42 l 521 104 q 424 13 485 44 q 276 -19 363 -19 m 160 188 q 190 106 160 133 q 288 78 221 78 q 458 127 393 78 q 522 274 522 176 l 522 386 q 356 331 497 358 q 204 278 249 308 q 160 188 160 247 m 313 1007 l 438 1007 l 565 821 l 454 821 l 376 947 l 374 947 l 296 821 l 185 821 l 313 1007 z "},"ã":{"ha":724,"x_min":43,"x_max":683,"o":"m 276 -19 q 106 36 169 -19 q 43 182 43 92 q 79 307 43 260 q 179 379 115 354 q 346 422 243 404 q 451 446 415 435 q 504 476 486 457 q 522 528 522 494 q 375 632 522 632 q 270 618 308 632 q 215 573 232 604 q 194 489 199 542 l 78 489 q 157 664 83 599 q 379 729 231 729 q 560 675 490 729 q 631 500 631 621 l 631 160 q 639 97 631 117 q 667 76 647 76 l 683 78 l 683 0 q 629 -7 653 -7 q 555 17 581 -7 q 524 104 529 42 l 521 104 q 424 13 485 44 q 276 -19 363 -19 m 160 188 q 190 106 160 133 q 288 78 221 78 q 458 127 393 78 q 522 274 522 176 l 522 386 q 356 331 497 358 q 204 278 249 308 q 160 188 160 247 m 181 838 q 210 935 181 903 q 283 968 240 968 q 333 960 308 968 q 392 938 357 953 q 420 926 400 935 q 453 918 440 918 q 485 965 485 918 l 568 965 q 538 867 568 899 q 465 835 508 835 q 416 842 440 835 q 357 865 392 850 q 328 876 349 868 q 296 885 308 885 q 264 838 264 885 l 181 838 z "},"ä":{"ha":724,"x_min":43,"x_max":683,"o":"m 276 -19 q 106 36 169 -19 q 43 182 43 92 q 79 307 43 260 q 179 379 115 354 q 346 422 243 404 q 451 446 415 435 q 504 476 486 457 q 522 528 522 494 q 375 632 522 632 q 270 618 308 632 q 215 573 232 604 q 194 489 199 542 l 78 489 q 157 664 83 599 q 379 729 231 729 q 560 675 490 729 q 631 500 631 621 l 631 160 q 639 97 631 117 q 667 76 647 76 l 683 78 l 683 0 q 629 -7 653 -7 q 555 17 581 -7 q 524 104 529 42 l 521 104 q 424 13 485 44 q 276 -19 363 -19 m 160 188 q 190 106 160 133 q 288 78 221 78 q 458 127 393 78 q 522 274 522 176 l 522 386 q 356 331 497 358 q 204 278 249 308 q 160 188 160 247 m 417 979 l 550 979 l 550 846 l 417 846 l 417 979 m 200 979 l 333 979 l 333 846 l 200 846 l 200 979 z "},"å":{"ha":724,"x_min":43,"x_max":683,"o":"m 276 -19 q 106 36 169 -19 q 43 182 43 92 q 79 307 43 260 q 179 379 115 354 q 346 422 243 404 q 451 446 415 435 q 504 476 486 457 q 522 528 522 494 q 375 632 522 632 q 270 618 308 632 q 215 573 232 604 q 194 489 199 542 l 78 489 q 157 664 83 599 q 379 729 231 729 q 560 675 490 729 q 631 500 631 621 l 631 160 q 639 97 631 117 q 667 76 647 76 l 683 78 l 683 0 q 629 -7 653 -7 q 555 17 581 -7 q 524 104 529 42 l 521 104 q 424 13 485 44 q 276 -19 363 -19 m 160 188 q 190 106 160 133 q 288 78 221 78 q 458 127 393 78 q 522 274 522 176 l 522 386 q 356 331 497 358 q 204 278 249 308 q 160 188 160 247 m 374 778 q 287 812 321 778 q 253 899 253 846 q 287 987 253 953 q 374 1021 321 1021 q 462 987 428 1021 q 496 899 496 953 q 462 812 496 846 q 374 778 428 778 m 310 899 q 328 851 310 869 q 374 832 346 832 q 421 851 403 832 q 439 899 439 869 q 421 947 439 928 q 374 967 403 967 q 328 947 346 967 q 310 899 310 928 z "},"æ":{"ha":1235,"x_min":43,"x_max":1193,"o":"m 276 -19 q 106 36 169 -19 q 43 182 43 92 q 79 307 43 260 q 179 379 115 354 q 346 422 243 404 q 451 446 415 435 q 504 476 486 457 q 522 528 522 494 q 375 632 522 632 q 269 618 307 632 q 215 574 232 604 q 194 489 199 543 l 78 489 q 156 664 83 599 q 375 729 228 729 q 513 701 453 729 q 604 615 574 674 q 717 699 650 669 q 865 729 783 729 q 1041 685 967 729 q 1154 563 1115 642 q 1193 381 1193 485 q 1192 325 1193 336 l 638 325 q 699 149 640 222 q 867 75 757 75 q 1008 121 958 75 q 1071 218 1058 167 l 1183 218 q 1074 45 1154 111 q 865 -21 994 -21 q 694 19 767 -21 q 578 131 621 58 q 449 17 529 54 q 276 -19 368 -19 m 160 188 q 190 106 160 133 q 288 78 221 78 q 463 130 404 78 q 522 274 522 182 l 522 317 q 521 356 521 329 q 522 386 521 375 q 356 331 494 358 q 204 278 249 308 q 160 188 160 247 m 1075 422 q 1049 529 1075 481 q 973 606 1022 578 q 860 633 924 633 q 706 574 768 633 q 638 422 643 515 l 1075 422 z "},"ç":{"ha":731,"x_min":42,"x_max":696,"o":"m 365 -275 q 286 -263 325 -275 q 217 -232 247 -251 l 246 -197 q 343 -218 301 -218 q 395 -204 378 -218 q 413 -167 413 -190 q 358 -124 413 -124 q 328 -126 344 -124 q 301 -133 311 -129 l 285 -107 l 357 -18 q 191 36 263 -12 q 81 167 119 85 q 42 354 42 249 q 84 549 42 464 q 204 681 126 633 q 385 728 282 728 q 538 692 471 728 q 647 594 606 657 q 696 453 688 532 l 579 453 q 527 577 574 524 q 385 631 481 631 q 213 549 268 631 q 158 354 158 468 q 213 159 158 240 q 385 78 268 78 q 528 132 482 78 q 579 261 574 186 l 696 261 q 615 73 689 150 q 428 -17 542 -4 l 376 -76 l 376 -79 q 400 -78 383 -78 q 477 -100 444 -78 q 510 -168 510 -122 q 468 -249 510 -222 q 365 -275 426 -275 z "},"è":{"ha":757,"x_min":43,"x_max":715,"o":"m 388 -21 q 201 28 279 -21 q 83 162 124 76 q 43 356 43 247 q 85 553 43 468 q 206 683 128 638 q 388 729 283 729 q 563 685 489 729 q 676 563 638 642 q 715 381 715 485 q 714 325 715 336 l 160 325 q 221 149 163 222 q 389 75 279 75 q 531 121 481 75 q 593 218 581 167 l 706 218 q 597 45 676 111 q 388 -21 517 -21 m 597 422 q 571 529 597 481 q 495 606 544 578 q 382 633 446 633 q 228 574 290 633 q 160 422 165 515 l 597 422 m 217 1010 l 349 1010 l 419 824 l 329 824 l 217 1010 z "},"é":{"ha":757,"x_min":43,"x_max":715,"o":"m 388 -21 q 201 28 279 -21 q 83 162 124 76 q 43 356 43 247 q 85 553 43 468 q 206 683 128 638 q 388 729 283 729 q 563 685 489 729 q 676 563 638 642 q 715 381 715 485 q 714 325 715 336 l 160 325 q 221 149 163 222 q 389 75 279 75 q 531 121 481 75 q 593 218 581 167 l 706 218 q 597 45 676 111 q 388 -21 517 -21 m 597 422 q 571 529 597 481 q 495 606 544 578 q 382 633 446 633 q 228 574 290 633 q 160 422 165 515 l 597 422 m 404 1010 l 536 1010 l 410 824 l 319 824 l 404 1010 z "},"ê":{"ha":757,"x_min":43,"x_max":715,"o":"m 388 -21 q 201 28 279 -21 q 83 162 124 76 q 43 356 43 247 q 85 553 43 468 q 206 683 128 638 q 388 729 283 729 q 563 685 489 729 q 676 563 638 642 q 715 381 715 485 q 714 325 715 336 l 160 325 q 221 149 163 222 q 389 75 279 75 q 531 121 481 75 q 593 218 581 167 l 706 218 q 597 45 676 111 q 388 -21 517 -21 m 597 422 q 571 529 597 481 q 495 606 544 578 q 382 633 446 633 q 228 574 290 633 q 160 422 165 515 l 597 422 m 317 1010 l 442 1010 l 569 824 l 458 824 l 381 950 l 378 950 l 300 824 l 189 824 l 317 1010 z "},"ë":{"ha":757,"x_min":43,"x_max":715,"o":"m 388 -21 q 201 28 279 -21 q 83 162 124 76 q 43 356 43 247 q 85 553 43 468 q 206 683 128 638 q 388 729 283 729 q 563 685 489 729 q 676 563 638 642 q 715 381 715 485 q 714 325 715 336 l 160 325 q 221 149 163 222 q 389 75 279 75 q 531 121 481 75 q 593 218 581 167 l 706 218 q 597 45 676 111 q 388 -21 517 -21 m 597 422 q 571 529 597 481 q 495 606 544 578 q 382 633 446 633 q 228 574 290 633 q 160 422 165 515 l 597 422 m 421 982 l 554 982 l 554 849 l 421 849 l 421 982 m 204 982 l 338 982 l 338 849 l 204 849 l 204 982 z "},"ì":{"ha":272,"x_min":-26,"x_max":192,"o":"m 81 708 l 192 708 l 192 0 l 81 0 l 81 708 m -26 1007 l 106 1007 l 176 821 l 86 821 l -26 1007 z "},"í":{"ha":272,"x_min":76,"x_max":293,"o":"m 81 708 l 192 708 l 192 0 l 81 0 l 81 708 m 161 1007 l 293 1007 l 167 821 l 76 821 l 161 1007 z "},"î":{"ha":272,"x_min":-54,"x_max":326,"o":"m 81 708 l 192 708 l 192 0 l 81 0 l 81 708 m 74 1007 l 199 1007 l 326 821 l 215 821 l 138 947 l 135 947 l 57 821 l -54 821 l 74 1007 z "},"ï":{"ha":272,"x_min":-39,"x_max":311,"o":"m 81 708 l 192 708 l 192 0 l 81 0 l 81 708 m 178 979 l 311 979 l 311 846 l 178 846 l 178 979 m -39 979 l 94 979 l 94 846 l -39 846 l -39 979 z "},"ð":{"ha":782,"x_min":42,"x_max":735,"o":"m 382 -22 q 131 81 221 -22 q 42 357 42 183 q 88 554 42 469 q 211 683 133 639 q 382 728 289 728 q 507 694 447 728 q 603 604 567 660 q 457 826 568 713 l 231 765 l 211 849 l 382 894 q 242 993 317 947 l 393 993 q 490 924 447 961 l 679 974 l 700 890 l 563 854 q 735 411 735 661 q 699 201 735 299 q 583 40 663 103 q 382 -22 504 -22 m 153 357 q 179 217 153 281 q 257 114 206 153 q 382 75 308 75 q 510 114 456 75 q 594 217 565 153 q 624 357 624 282 q 594 496 624 432 q 510 598 565 560 q 382 636 456 636 q 257 598 308 636 q 179 497 206 560 q 153 357 153 433 z "},"ñ":{"ha":740,"x_min":81,"x_max":665,"o":"m 554 467 q 517 585 554 540 q 400 631 479 631 q 249 578 307 631 q 192 442 192 525 l 192 0 l 81 0 l 81 708 l 192 708 l 192 624 l 194 624 q 286 698 228 668 q 428 728 344 728 q 599 669 532 728 q 665 494 665 610 l 665 0 l 554 0 l 554 467 m 179 838 q 209 935 179 903 q 282 968 239 968 q 331 960 307 968 q 390 938 356 953 q 419 926 399 935 q 451 918 439 918 q 483 965 483 918 l 567 965 q 537 867 567 899 q 464 835 507 835 q 415 842 439 835 q 356 865 390 850 q 327 876 347 868 q 294 885 307 885 q 263 838 263 885 l 179 838 z "},"ò":{"ha":776,"x_min":42,"x_max":735,"o":"m 389 -21 q 203 26 282 -21 q 83 159 125 74 q 42 354 42 244 q 83 549 42 464 q 203 682 125 635 q 389 729 282 729 q 573 682 494 729 q 693 549 651 635 q 735 354 735 464 q 693 159 735 244 q 573 26 651 74 q 389 -21 494 -21 m 158 354 q 217 155 158 233 q 389 76 275 76 q 560 155 501 76 q 618 354 618 233 q 560 553 618 475 q 389 632 501 632 q 217 553 275 632 q 158 354 158 475 m 226 1010 l 358 1010 l 429 824 l 339 824 l 226 1010 z "},"ó":{"ha":776,"x_min":42,"x_max":735,"o":"m 389 -21 q 203 26 282 -21 q 83 159 125 74 q 42 354 42 244 q 83 549 42 464 q 203 682 125 635 q 389 729 282 729 q 573 682 494 729 q 693 549 651 635 q 735 354 735 464 q 693 159 735 244 q 573 26 651 74 q 389 -21 494 -21 m 158 354 q 217 155 158 233 q 389 76 275 76 q 560 155 501 76 q 618 354 618 233 q 560 553 618 475 q 389 632 501 632 q 217 553 275 632 q 158 354 158 475 m 414 1010 l 546 1010 l 419 824 l 329 824 l 414 1010 z "},"ô":{"ha":776,"x_min":42,"x_max":735,"o":"m 389 -21 q 203 26 282 -21 q 83 159 125 74 q 42 354 42 244 q 83 549 42 464 q 203 682 125 635 q 389 729 282 729 q 573 682 494 729 q 693 549 651 635 q 735 354 735 464 q 693 159 735 244 q 573 26 651 74 q 389 -21 494 -21 m 158 354 q 217 155 158 233 q 389 76 275 76 q 560 155 501 76 q 618 354 618 233 q 560 553 618 475 q 389 632 501 632 q 217 553 275 632 q 158 354 158 475 m 326 1010 l 451 1010 l 579 824 l 468 824 l 390 950 l 388 950 l 310 824 l 199 824 l 326 1010 z "},"õ":{"ha":776,"x_min":42,"x_max":735,"o":"m 389 -21 q 203 26 282 -21 q 83 159 125 74 q 42 354 42 244 q 83 549 42 464 q 203 682 125 635 q 389 729 282 729 q 573 682 494 729 q 693 549 651 635 q 735 354 735 464 q 693 159 735 244 q 573 26 651 74 q 389 -21 494 -21 m 158 354 q 217 155 158 233 q 389 76 275 76 q 560 155 501 76 q 618 354 618 233 q 560 553 618 475 q 389 632 501 632 q 217 553 275 632 q 158 354 158 475 m 194 840 q 224 938 194 906 q 297 971 254 971 q 347 963 322 971 q 406 940 371 956 q 434 929 414 938 q 467 921 454 921 q 499 968 499 921 l 582 968 q 552 869 582 901 q 479 838 522 838 q 430 845 454 838 q 371 868 406 853 q 342 879 363 871 q 310 888 322 888 q 278 840 278 888 l 194 840 z "},"ö":{"ha":776,"x_min":42,"x_max":735,"o":"m 389 -21 q 203 26 282 -21 q 83 159 125 74 q 42 354 42 244 q 83 549 42 464 q 203 682 125 635 q 389 729 282 729 q 573 682 494 729 q 693 549 651 635 q 735 354 735 464 q 693 159 735 244 q 573 26 651 74 q 389 -21 494 -21 m 158 354 q 217 155 158 233 q 389 76 275 76 q 560 155 501 76 q 618 354 618 233 q 560 553 618 475 q 389 632 501 632 q 217 553 275 632 q 158 354 158 475 m 431 982 l 564 982 l 564 849 l 431 849 l 431 982 m 214 982 l 347 982 l 347 849 l 214 849 l 214 982 z "},"÷":{"ha":767,"x_min":68,"x_max":699,"o":"m 317 751 l 450 751 l 450 618 l 317 618 l 317 751 m 317 289 l 450 289 l 450 156 l 317 156 l 317 289 m 68 508 l 699 508 l 699 399 l 68 399 l 68 508 z "},"ø":{"ha":792,"x_min":29,"x_max":763,"o":"m 29 35 l 114 119 q 50 354 50 215 q 92 549 50 464 q 212 682 133 635 q 397 729 290 729 q 633 642 542 729 l 714 722 l 763 674 l 678 589 q 743 354 743 494 q 701 159 743 244 q 581 26 660 74 q 397 -21 503 -21 q 158 68 250 -21 l 76 -14 l 29 35 m 167 354 q 196 203 167 268 l 558 565 q 397 632 499 632 q 225 553 283 632 q 167 354 167 475 m 233 144 q 397 76 293 76 q 568 155 510 76 q 626 354 626 233 q 596 507 626 442 l 233 144 z "},"ù":{"ha":740,"x_min":75,"x_max":660,"o":"m 313 -19 q 142 40 208 -19 q 75 214 75 99 l 75 708 l 186 708 l 186 242 q 224 123 186 168 q 340 78 261 78 q 491 131 433 78 q 549 267 549 183 l 549 708 l 660 708 l 660 0 l 549 0 l 549 85 l 546 85 q 454 10 513 40 q 313 -19 396 -19 m 192 1007 l 324 1007 l 394 821 l 304 821 l 192 1007 z "},"ú":{"ha":740,"x_min":75,"x_max":660,"o":"m 313 -19 q 142 40 208 -19 q 75 214 75 99 l 75 708 l 186 708 l 186 242 q 224 123 186 168 q 340 78 261 78 q 491 131 433 78 q 549 267 549 183 l 549 708 l 660 708 l 660 0 l 549 0 l 549 85 l 546 85 q 454 10 513 40 q 313 -19 396 -19 m 379 1007 l 511 1007 l 385 821 l 294 821 l 379 1007 z "},"û":{"ha":740,"x_min":75,"x_max":660,"o":"m 313 -19 q 142 40 208 -19 q 75 214 75 99 l 75 708 l 186 708 l 186 242 q 224 123 186 168 q 340 78 261 78 q 491 131 433 78 q 549 267 549 183 l 549 708 l 660 708 l 660 0 l 549 0 l 549 85 l 546 85 q 454 10 513 40 q 313 -19 396 -19 m 292 1007 l 417 1007 l 544 821 l 433 821 l 356 947 l 353 947 l 275 821 l 164 821 l 292 1007 z "},"ü":{"ha":740,"x_min":75,"x_max":660,"o":"m 313 -19 q 142 40 208 -19 q 75 214 75 99 l 75 708 l 186 708 l 186 242 q 224 123 186 168 q 340 78 261 78 q 491 131 433 78 q 549 267 549 183 l 549 708 l 660 708 l 660 0 l 549 0 l 549 85 l 546 85 q 454 10 513 40 q 313 -19 396 -19 m 396 979 l 529 979 l 529 846 l 396 846 l 396 979 m 179 979 l 313 979 l 313 846 l 179 846 l 179 979 z "},"ý":{"ha":683,"x_min":1,"x_max":675,"o":"m 154 -249 q 81 -242 121 -249 l 81 -147 q 136 -151 117 -151 q 227 -115 186 -151 q 289 7 268 -78 l 1 708 l 126 708 l 344 144 l 347 144 l 556 708 l 675 708 l 389 -21 q 283 -199 338 -150 q 154 -249 229 -249 m 364 1007 l 496 1007 l 369 821 l 279 821 l 364 1007 z "},"þ":{"ha":779,"x_min":81,"x_max":736,"o":"m 417 -19 q 194 92 271 -19 l 192 92 l 192 -246 l 81 -246 l 81 993 l 192 993 l 192 621 l 194 621 q 417 728 276 728 q 578 683 506 728 q 694 553 651 638 q 736 354 736 468 q 694 156 736 240 q 578 26 651 71 q 417 -19 506 -19 m 192 354 q 249 153 192 229 q 406 78 307 78 q 524 117 475 78 q 596 219 572 156 q 619 354 619 282 q 596 490 619 426 q 524 592 572 553 q 406 631 475 631 q 249 555 307 631 q 192 354 192 479 z "},"ÿ":{"ha":683,"x_min":1,"x_max":675,"o":"m 154 -249 q 81 -242 121 -249 l 81 -147 q 136 -151 117 -151 q 227 -115 186 -151 q 289 7 268 -78 l 1 708 l 126 708 l 344 144 l 347 144 l 556 708 l 675 708 l 389 -21 q 283 -199 338 -150 q 154 -249 229 -249 m 381 979 l 514 979 l 514 846 l 381 846 l 381 979 m 164 979 l 297 979 l 297 846 l 164 846 l 164 979 z "},"Ā":{"ha":894,"x_min":10,"x_max":886,"o":"m 376 993 l 517 993 l 886 0 l 751 0 l 664 249 l 226 249 l 139 0 l 10 0 l 376 993 m 624 360 l 447 878 l 444 878 l 268 360 l 624 360 m 267 1228 l 625 1228 l 625 1131 l 267 1131 l 267 1228 z "},"ā":{"ha":724,"x_min":43,"x_max":683,"o":"m 276 -19 q 106 36 169 -19 q 43 182 43 92 q 79 307 43 260 q 179 379 115 354 q 346 422 243 404 q 451 446 415 435 q 504 476 486 457 q 522 528 522 494 q 375 632 522 632 q 270 618 308 632 q 215 573 232 604 q 194 489 199 542 l 78 489 q 157 664 83 599 q 379 729 231 729 q 560 675 490 729 q 631 500 631 621 l 631 160 q 639 97 631 117 q 667 76 647 76 l 683 78 l 683 0 q 629 -7 653 -7 q 555 17 581 -7 q 524 104 529 42 l 521 104 q 424 13 485 44 q 276 -19 363 -19 m 160 188 q 190 106 160 133 q 288 78 221 78 q 458 127 393 78 q 522 274 522 176 l 522 386 q 356 331 497 358 q 204 278 249 308 q 160 188 160 247 m 196 943 l 554 943 l 554 846 l 196 846 l 196 943 z "},"Ă":{"ha":894,"x_min":10,"x_max":886,"o":"m 376 993 l 517 993 l 886 0 l 751 0 l 664 249 l 226 249 l 139 0 l 10 0 l 376 993 m 624 360 l 447 878 l 444 878 l 268 360 l 624 360 m 446 1092 q 320 1139 368 1092 q 269 1278 272 1186 l 353 1278 q 378 1199 356 1224 q 446 1175 401 1175 q 513 1199 490 1175 q 539 1278 536 1224 l 622 1278 q 571 1140 618 1188 q 446 1092 524 1092 z "},"ă":{"ha":724,"x_min":43,"x_max":683,"o":"m 276 -19 q 106 36 169 -19 q 43 182 43 92 q 79 307 43 260 q 179 379 115 354 q 346 422 243 404 q 451 446 415 435 q 504 476 486 457 q 522 528 522 494 q 375 632 522 632 q 270 618 308 632 q 215 573 232 604 q 194 489 199 542 l 78 489 q 157 664 83 599 q 379 729 231 729 q 560 675 490 729 q 631 500 631 621 l 631 160 q 639 97 631 117 q 667 76 647 76 l 683 78 l 683 0 q 629 -7 653 -7 q 555 17 581 -7 q 524 104 529 42 l 521 104 q 424 13 485 44 q 276 -19 363 -19 m 160 188 q 190 106 160 133 q 288 78 221 78 q 458 127 393 78 q 522 274 522 176 l 522 386 q 356 331 497 358 q 204 278 249 308 q 160 188 160 247 m 375 807 q 249 854 297 807 q 199 993 201 901 l 282 993 q 308 915 285 939 q 375 890 331 890 q 442 915 419 890 q 468 993 465 939 l 551 993 q 500 855 547 903 q 375 807 453 807 z "},"Ą":{"ha":894,"x_min":10,"x_max":889,"o":"m 376 993 l 517 993 l 886 0 l 751 0 l 664 249 l 226 249 l 139 0 l 10 0 l 376 993 m 624 360 l 447 878 l 444 878 l 268 360 l 624 360 m 799 -246 q 705 -218 738 -246 q 672 -143 672 -190 q 704 -58 672 -97 q 778 0 736 -19 l 861 0 q 769 -119 769 -72 q 784 -151 769 -139 q 821 -162 799 -162 q 889 -149 857 -162 l 889 -232 q 799 -246 844 -246 z "},"ą":{"ha":724,"x_min":43,"x_max":711,"o":"m 276 -19 q 106 36 169 -19 q 43 182 43 92 q 79 307 43 260 q 179 379 115 354 q 346 422 243 404 q 451 446 415 435 q 504 476 486 457 q 522 528 522 494 q 375 632 522 632 q 270 618 308 632 q 215 573 232 604 q 194 489 199 542 l 78 489 q 157 664 83 599 q 379 729 231 729 q 560 675 490 729 q 631 500 631 621 l 631 160 q 639 97 631 117 q 667 76 647 76 l 683 78 l 683 0 q 592 -119 592 -72 q 606 -151 592 -139 q 643 -162 621 -162 q 711 -149 679 -162 l 711 -232 q 621 -246 667 -246 q 527 -218 560 -246 q 494 -143 494 -190 q 524 -62 494 -100 q 593 -3 553 -24 q 544 29 561 4 q 524 104 528 54 l 521 104 q 424 13 485 44 q 276 -19 363 -19 m 160 188 q 190 106 160 133 q 288 78 221 78 q 458 127 393 78 q 522 274 522 176 l 522 386 q 356 331 497 358 q 204 278 249 308 q 160 188 160 247 z "},"Ć":{"ha":976,"x_min":53,"x_max":935,"o":"m 513 -19 q 274 47 378 -19 q 111 231 169 114 q 53 497 53 349 q 111 763 53 646 q 274 947 169 881 q 513 1013 378 1013 q 722 966 631 1013 q 868 840 814 919 q 935 665 922 761 l 804 665 q 719 830 786 758 q 513 901 651 901 q 326 844 400 901 q 218 696 253 788 q 183 497 183 604 q 218 298 183 390 q 326 149 253 206 q 513 92 400 92 q 726 170 656 92 q 804 358 797 249 l 935 358 q 869 163 924 249 q 724 28 815 76 q 513 -19 632 -19 m 536 1292 l 668 1292 l 542 1106 l 451 1106 l 536 1292 z "},"ć":{"ha":731,"x_min":42,"x_max":696,"o":"m 385 -19 q 204 28 282 -19 q 84 160 126 75 q 42 354 42 244 q 84 549 42 464 q 204 681 126 633 q 385 728 282 728 q 538 692 471 728 q 647 594 606 657 q 696 453 688 532 l 579 453 q 527 577 574 524 q 385 631 481 631 q 213 549 268 631 q 158 354 158 468 q 213 159 158 240 q 385 78 268 78 q 528 132 482 78 q 579 261 574 186 l 696 261 q 650 117 692 181 q 540 17 608 53 q 385 -19 471 -19 m 410 1007 l 542 1007 l 415 821 l 325 821 l 410 1007 z "},"Ĉ":{"ha":976,"x_min":53,"x_max":935,"o":"m 513 -19 q 274 47 378 -19 q 111 231 169 114 q 53 497 53 349 q 111 763 53 646 q 274 947 169 881 q 513 1013 378 1013 q 722 966 631 1013 q 868 840 814 919 q 935 665 922 761 l 804 665 q 719 830 786 758 q 513 901 651 901 q 326 844 400 901 q 218 696 253 788 q 183 497 183 604 q 218 298 183 390 q 326 149 253 206 q 513 92 400 92 q 726 170 656 92 q 804 358 797 249 l 935 358 q 869 163 924 249 q 724 28 815 76 q 513 -19 632 -19 m 449 1292 l 574 1292 l 701 1106 l 590 1106 l 513 1232 l 510 1232 l 432 1106 l 321 1106 l 449 1292 z "},"ĉ":{"ha":731,"x_min":42,"x_max":696,"o":"m 385 -19 q 204 28 282 -19 q 84 160 126 75 q 42 354 42 244 q 84 549 42 464 q 204 681 126 633 q 385 728 282 728 q 538 692 471 728 q 647 594 606 657 q 696 453 688 532 l 579 453 q 527 577 574 524 q 385 631 481 631 q 213 549 268 631 q 158 354 158 468 q 213 159 158 240 q 385 78 268 78 q 528 132 482 78 q 579 261 574 186 l 696 261 q 650 117 692 181 q 540 17 608 53 q 385 -19 471 -19 m 322 1007 l 447 1007 l 575 821 l 464 821 l 386 947 l 383 947 l 306 821 l 194 821 l 322 1007 z "},"Ċ":{"ha":976,"x_min":53,"x_max":935,"o":"m 513 -19 q 274 47 378 -19 q 111 231 169 114 q 53 497 53 349 q 111 763 53 646 q 274 947 169 881 q 513 1013 378 1013 q 722 966 631 1013 q 868 840 814 919 q 935 665 922 761 l 804 665 q 719 830 786 758 q 513 901 651 901 q 326 844 400 901 q 218 696 253 788 q 183 497 183 604 q 218 298 183 390 q 326 149 253 206 q 513 92 400 92 q 726 170 656 92 q 804 358 797 249 l 935 358 q 869 163 924 249 q 724 28 815 76 q 513 -19 632 -19 m 444 1264 l 578 1264 l 578 1131 l 444 1131 l 444 1264 z "},"ċ":{"ha":731,"x_min":42,"x_max":696,"o":"m 385 -19 q 204 28 282 -19 q 84 160 126 75 q 42 354 42 244 q 84 549 42 464 q 204 681 126 633 q 385 728 282 728 q 538 692 471 728 q 647 594 606 657 q 696 453 688 532 l 579 453 q 527 577 574 524 q 385 631 481 631 q 213 549 268 631 q 158 354 158 468 q 213 159 158 240 q 385 78 268 78 q 528 132 482 78 q 579 261 574 186 l 696 261 q 650 117 692 181 q 540 17 608 53 q 385 -19 471 -19 m 318 979 l 451 979 l 451 846 l 318 846 l 318 979 z "},"Č":{"ha":976,"x_min":53,"x_max":935,"o":"m 513 -19 q 274 47 378 -19 q 111 231 169 114 q 53 497 53 349 q 111 763 53 646 q 274 947 169 881 q 513 1013 378 1013 q 722 966 631 1013 q 868 840 814 919 q 935 665 922 761 l 804 665 q 719 830 786 758 q 513 901 651 901 q 326 844 400 901 q 218 696 253 788 q 183 497 183 604 q 218 298 183 390 q 326 149 253 206 q 513 92 400 92 q 726 170 656 92 q 804 358 797 249 l 935 358 q 869 163 924 249 q 724 28 815 76 q 513 -19 632 -19 m 321 1292 l 432 1292 l 510 1165 l 513 1165 l 590 1292 l 701 1292 l 574 1106 l 449 1106 l 321 1292 z "},"č":{"ha":731,"x_min":42,"x_max":696,"o":"m 385 -19 q 204 28 282 -19 q 84 160 126 75 q 42 354 42 244 q 84 549 42 464 q 204 681 126 633 q 385 728 282 728 q 538 692 471 728 q 647 594 606 657 q 696 453 688 532 l 579 453 q 527 577 574 524 q 385 631 481 631 q 213 549 268 631 q 158 354 158 468 q 213 159 158 240 q 385 78 268 78 q 528 132 482 78 q 579 261 574 186 l 696 261 q 650 117 692 181 q 540 17 608 53 q 385 -19 471 -19 m 194 1007 l 306 1007 l 383 881 l 386 881 l 464 1007 l 575 1007 l 447 821 l 322 821 l 194 1007 z "},"Ď":{"ha":960,"x_min":103,"x_max":904,"o":"m 103 993 l 463 993 q 699 935 600 993 q 851 766 799 878 q 904 496 904 654 q 787 129 904 258 q 463 0 669 0 l 103 0 l 103 993 m 463 111 q 774 496 774 111 q 463 882 774 882 l 228 882 l 228 111 l 463 111 m 189 1292 l 300 1292 l 378 1165 l 381 1165 l 458 1292 l 569 1292 l 442 1106 l 317 1106 l 189 1292 z "},"ď":{"ha":796,"x_min":43,"x_max":918,"o":"m 363 -19 q 201 26 274 -19 q 85 156 128 71 q 43 354 43 240 q 85 553 43 468 q 201 683 128 638 q 363 728 274 728 q 585 617 508 728 l 588 617 l 588 993 l 699 993 l 699 0 l 588 0 l 588 88 l 585 88 q 363 -19 503 -19 m 160 354 q 183 219 160 282 q 256 117 207 156 q 374 78 304 78 q 530 153 472 78 q 588 354 588 229 q 530 555 588 479 q 374 631 472 631 q 256 592 304 631 q 183 490 207 553 q 160 354 160 426 m 788 993 l 918 993 l 842 726 l 756 726 l 788 993 z "},"Đ":{"ha":999,"x_min":17,"x_max":943,"o":"m 142 465 l 17 465 l 17 563 l 142 563 l 142 993 l 501 993 q 738 935 639 993 q 890 766 838 878 q 943 496 943 654 q 826 129 943 258 q 501 0 708 0 l 142 0 l 142 465 m 501 111 q 813 496 813 111 q 501 882 813 882 l 267 882 l 267 563 l 556 563 l 556 465 l 267 465 l 267 111 l 501 111 z "},"đ":{"ha":779,"x_min":43,"x_max":800,"o":"m 386 899 l 588 899 l 588 993 l 699 993 l 699 899 l 800 899 l 800 815 l 699 815 l 699 0 l 588 0 l 588 88 l 585 88 q 363 -19 503 -19 q 201 26 274 -19 q 85 156 128 71 q 43 354 43 240 q 85 553 43 468 q 201 683 128 638 q 363 728 274 728 q 585 617 508 728 l 588 617 l 588 815 l 386 815 l 386 899 m 160 354 q 183 219 160 282 q 256 117 207 156 q 374 78 304 78 q 530 153 472 78 q 588 354 588 229 q 530 555 588 479 q 374 631 472 631 q 256 592 304 631 q 183 490 207 553 q 160 354 160 426 z "},"Ē":{"ha":850,"x_min":103,"x_max":807,"o":"m 103 993 l 790 993 l 790 882 l 228 882 l 228 569 l 724 569 l 724 458 l 228 458 l 228 111 l 807 111 l 807 0 l 103 0 l 103 993 m 269 1228 l 628 1228 l 628 1131 l 269 1131 l 269 1228 z "},"ē":{"ha":757,"x_min":43,"x_max":715,"o":"m 388 -21 q 201 28 279 -21 q 83 162 124 76 q 43 356 43 247 q 85 553 43 468 q 206 683 128 638 q 388 729 283 729 q 563 685 489 729 q 676 563 638 642 q 715 381 715 485 q 714 325 715 336 l 160 325 q 221 149 163 222 q 389 75 279 75 q 531 121 481 75 q 593 218 581 167 l 706 218 q 597 45 676 111 q 388 -21 517 -21 m 597 422 q 571 529 597 481 q 495 606 544 578 q 382 633 446 633 q 228 574 290 633 q 160 422 165 515 l 597 422 m 200 946 l 558 946 l 558 849 l 200 849 l 200 946 z "},"Ė":{"ha":850,"x_min":103,"x_max":807,"o":"m 103 993 l 790 993 l 790 882 l 228 882 l 228 569 l 724 569 l 724 458 l 228 458 l 228 111 l 807 111 l 807 0 l 103 0 l 103 993 m 382 1264 l 515 1264 l 515 1131 l 382 1131 l 382 1264 z "},"ė":{"ha":757,"x_min":43,"x_max":715,"o":"m 388 -21 q 201 28 279 -21 q 83 162 124 76 q 43 356 43 247 q 85 553 43 468 q 206 683 128 638 q 388 729 283 729 q 563 685 489 729 q 676 563 638 642 q 715 381 715 485 q 714 325 715 336 l 160 325 q 221 149 163 222 q 389 75 279 75 q 531 121 481 75 q 593 218 581 167 l 706 218 q 597 45 676 111 q 388 -21 517 -21 m 597 422 q 571 529 597 481 q 495 606 544 578 q 382 633 446 633 q 228 574 290 633 q 160 422 165 515 l 597 422 m 313 982 l 446 982 l 446 849 l 313 849 l 313 982 z "},"Ę":{"ha":850,"x_min":103,"x_max":821,"o":"m 103 993 l 790 993 l 790 882 l 228 882 l 228 569 l 724 569 l 724 458 l 228 458 l 228 111 l 807 111 l 807 0 l 103 0 l 103 993 m 731 -246 q 637 -218 669 -246 q 604 -143 604 -190 q 636 -58 604 -97 q 710 0 668 -19 l 793 0 q 701 -119 701 -72 q 716 -151 701 -139 q 753 -162 731 -162 q 821 -149 789 -162 l 821 -232 q 731 -246 776 -246 z "},"ę":{"ha":757,"x_min":43,"x_max":715,"o":"m 432 -246 q 338 -218 371 -246 q 306 -143 306 -190 q 326 -76 306 -108 q 376 -21 346 -43 q 196 31 271 -18 q 82 165 121 81 q 43 356 43 249 q 85 553 43 468 q 206 683 128 638 q 388 729 283 729 q 563 685 489 729 q 676 563 638 642 q 715 381 715 485 q 714 325 715 336 l 160 325 q 221 149 163 222 q 389 75 279 75 q 531 121 481 75 q 593 218 581 167 l 706 218 q 626 73 682 133 q 482 -10 571 13 q 403 -119 403 -76 q 417 -151 403 -139 q 454 -162 432 -162 q 522 -149 490 -162 l 522 -232 q 432 -246 478 -246 m 597 422 q 571 529 597 481 q 495 606 544 578 q 382 633 446 633 q 228 574 290 633 q 160 422 165 515 l 597 422 z "},"Ě":{"ha":850,"x_min":103,"x_max":807,"o":"m 103 993 l 790 993 l 790 882 l 228 882 l 228 569 l 724 569 l 724 458 l 228 458 l 228 111 l 807 111 l 807 0 l 103 0 l 103 993 m 258 1292 l 369 1292 l 447 1165 l 450 1165 l 528 1292 l 639 1292 l 511 1106 l 386 1106 l 258 1292 z "},"ě":{"ha":757,"x_min":43,"x_max":715,"o":"m 388 -21 q 201 28 279 -21 q 83 162 124 76 q 43 356 43 247 q 85 553 43 468 q 206 683 128 638 q 388 729 283 729 q 563 685 489 729 q 676 563 638 642 q 715 381 715 485 q 714 325 715 336 l 160 325 q 221 149 163 222 q 389 75 279 75 q 531 121 481 75 q 593 218 581 167 l 706 218 q 597 45 676 111 q 388 -21 517 -21 m 597 422 q 571 529 597 481 q 495 606 544 578 q 382 633 446 633 q 228 574 290 633 q 160 422 165 515 l 597 422 m 189 1010 l 300 1010 l 378 883 l 381 883 l 458 1010 l 569 1010 l 442 824 l 317 824 l 189 1010 z "},"Ĝ":{"ha":1018,"x_min":54,"x_max":950,"o":"m 501 -19 q 259 47 360 -19 q 106 229 158 113 q 54 497 54 346 q 113 763 54 646 q 276 947 171 881 q 515 1013 381 1013 q 801 927 697 1013 q 933 693 906 842 l 803 693 q 706 849 782 797 q 515 901 631 901 q 330 842 404 901 q 220 690 256 782 q 185 497 185 597 q 258 210 185 329 q 501 92 331 92 q 664 131 590 92 q 781 243 738 171 q 825 406 825 315 l 501 406 l 501 517 l 950 517 l 950 0 l 867 0 l 825 140 l 822 140 q 688 20 764 60 q 501 -19 613 -19 m 446 1292 l 571 1292 l 699 1106 l 588 1106 l 510 1232 l 507 1232 l 429 1106 l 318 1106 l 446 1292 z "},"ĝ":{"ha":781,"x_min":46,"x_max":701,"o":"m 376 -254 q 154 -194 233 -254 q 67 -31 75 -133 l 183 -31 q 376 -157 208 -157 q 536 -110 482 -157 q 590 36 590 -64 l 590 147 l 588 147 q 363 36 511 36 q 201 75 272 36 q 88 192 129 114 q 46 382 46 269 q 88 572 46 494 q 201 689 129 650 q 363 728 272 728 q 588 621 506 728 l 590 621 l 590 708 l 701 708 l 701 47 q 615 -178 701 -101 q 376 -254 529 -254 m 163 382 q 217 203 163 272 q 376 133 272 133 q 534 197 478 133 q 590 382 590 260 q 534 567 590 504 q 376 631 478 631 q 217 561 272 631 q 163 382 163 492 m 311 1007 l 436 1007 l 564 821 l 453 821 l 375 947 l 372 947 l 294 821 l 183 821 l 311 1007 z "},"Ğ":{"ha":1018,"x_min":54,"x_max":950,"o":"m 501 -19 q 259 47 360 -19 q 106 229 158 113 q 54 497 54 346 q 113 763 54 646 q 276 947 171 881 q 515 1013 381 1013 q 801 927 697 1013 q 933 693 906 842 l 803 693 q 706 849 782 797 q 515 901 631 901 q 330 842 404 901 q 220 690 256 782 q 185 497 185 597 q 258 210 185 329 q 501 92 331 92 q 664 131 590 92 q 781 243 738 171 q 825 406 825 315 l 501 406 l 501 517 l 950 517 l 950 0 l 867 0 l 825 140 l 822 140 q 688 20 764 60 q 501 -19 613 -19 m 508 1092 q 383 1139 431 1092 q 332 1278 335 1186 l 415 1278 q 441 1199 418 1224 q 508 1175 464 1175 q 576 1199 553 1175 q 601 1278 599 1224 l 685 1278 q 633 1140 681 1188 q 508 1092 586 1092 z "},"ğ":{"ha":781,"x_min":46,"x_max":701,"o":"m 376 -254 q 154 -194 233 -254 q 67 -31 75 -133 l 183 -31 q 376 -157 208 -157 q 536 -110 482 -157 q 590 36 590 -64 l 590 147 l 588 147 q 363 36 511 36 q 201 75 272 36 q 88 192 129 114 q 46 382 46 269 q 88 572 46 494 q 201 689 129 650 q 363 728 272 728 q 588 621 506 728 l 590 621 l 590 708 l 701 708 l 701 47 q 615 -178 701 -101 q 376 -254 529 -254 m 163 382 q 217 203 163 272 q 376 133 272 133 q 534 197 478 133 q 590 382 590 260 q 534 567 590 504 q 376 631 478 631 q 217 561 272 631 q 163 382 163 492 m 374 807 q 248 854 296 807 q 197 993 200 901 l 281 993 q 306 915 283 939 q 374 890 329 890 q 441 915 418 890 q 467 993 464 939 l 550 993 q 499 855 546 903 q 374 807 451 807 z "},"Ġ":{"ha":1018,"x_min":54,"x_max":950,"o":"m 501 -19 q 259 47 360 -19 q 106 229 158 113 q 54 497 54 346 q 113 763 54 646 q 276 947 171 881 q 515 1013 381 1013 q 801 927 697 1013 q 933 693 906 842 l 803 693 q 706 849 782 797 q 515 901 631 901 q 330 842 404 901 q 220 690 256 782 q 185 497 185 597 q 258 210 185 329 q 501 92 331 92 q 664 131 590 92 q 781 243 738 171 q 825 406 825 315 l 501 406 l 501 517 l 950 517 l 950 0 l 867 0 l 825 140 l 822 140 q 688 20 764 60 q 501 -19 613 -19 m 442 1264 l 575 1264 l 575 1131 l 442 1131 l 442 1264 z "},"ġ":{"ha":781,"x_min":46,"x_max":701,"o":"m 376 -254 q 154 -194 233 -254 q 67 -31 75 -133 l 183 -31 q 376 -157 208 -157 q 536 -110 482 -157 q 590 36 590 -64 l 590 147 l 588 147 q 363 36 511 36 q 201 75 272 36 q 88 192 129 114 q 46 382 46 269 q 88 572 46 494 q 201 689 129 650 q 363 728 272 728 q 588 621 506 728 l 590 621 l 590 708 l 701 708 l 701 47 q 615 -178 701 -101 q 376 -254 529 -254 m 163 382 q 217 203 163 272 q 376 133 272 133 q 534 197 478 133 q 590 382 590 260 q 534 567 590 504 q 376 631 478 631 q 217 561 272 631 q 163 382 163 492 m 307 979 l 440 979 l 440 846 l 307 846 l 307 979 z "},"Ģ":{"ha":1018,"x_min":54,"x_max":950,"o":"m 501 -19 q 259 47 360 -19 q 106 229 158 113 q 54 497 54 346 q 113 763 54 646 q 276 947 171 881 q 515 1013 381 1013 q 801 927 697 1013 q 933 693 906 842 l 803 693 q 706 849 782 797 q 515 901 631 901 q 330 842 404 901 q 220 690 256 782 q 185 497 185 597 q 258 210 185 329 q 501 92 331 92 q 664 131 590 92 q 781 243 738 171 q 825 406 825 315 l 501 406 l 501 517 l 950 517 l 950 0 l 867 0 l 825 140 l 822 140 q 688 20 764 60 q 501 -19 613 -19 m 458 -264 q 510 -235 496 -253 q 522 -176 524 -217 l 458 -176 l 458 -68 l 592 -68 l 592 -176 q 562 -265 592 -229 q 458 -319 532 -301 l 458 -264 z "},"ģ":{"ha":781,"x_min":46,"x_max":701,"o":"m 376 -254 q 154 -194 233 -254 q 67 -31 75 -133 l 183 -31 q 376 -157 208 -157 q 536 -110 482 -157 q 590 36 590 -64 l 590 147 l 588 147 q 363 36 511 36 q 201 75 272 36 q 88 192 129 114 q 46 382 46 269 q 88 572 46 494 q 201 689 129 650 q 363 728 272 728 q 588 621 506 728 l 590 621 l 590 708 l 701 708 l 701 47 q 615 -178 701 -101 q 376 -254 529 -254 m 163 382 q 217 203 163 272 q 376 133 272 133 q 534 197 478 133 q 590 382 590 260 q 534 567 590 504 q 376 631 478 631 q 217 561 272 631 q 163 382 163 492 m 313 943 q 342 1044 313 1003 q 446 1104 372 1085 l 446 1040 q 394 1008 408 1029 q 382 943 381 988 l 446 943 l 446 821 l 313 821 l 313 943 z "},"Ĥ":{"ha":986,"x_min":103,"x_max":883,"o":"m 103 993 l 228 993 l 228 571 l 758 571 l 758 993 l 883 993 l 883 0 l 758 0 l 758 460 l 228 460 l 228 0 l 103 0 l 103 993 m 431 1292 l 556 1292 l 683 1106 l 572 1106 l 494 1232 l 492 1232 l 414 1106 l 303 1106 l 431 1292 z "},"ĥ":{"ha":740,"x_min":-54,"x_max":665,"o":"m 554 467 q 517 585 554 540 q 400 631 479 631 q 249 578 307 631 q 192 442 192 525 l 192 0 l 81 0 l 81 993 l 192 993 l 192 624 l 194 624 q 286 698 228 668 q 428 728 344 728 q 599 669 532 728 q 665 494 665 610 l 665 0 l 554 0 l 554 467 m 74 1229 l 199 1229 l 326 1043 l 215 1043 l 138 1169 l 135 1169 l 57 1043 l -54 1043 l 74 1229 z "},"Ħ":{"ha":1026,"x_min":22,"x_max":997,"o":"m 22 840 l 133 840 l 133 993 l 258 993 l 258 840 l 789 840 l 789 993 l 914 993 l 914 840 l 997 840 l 997 743 l 914 743 l 914 0 l 789 0 l 789 460 l 258 460 l 258 0 l 133 0 l 133 743 l 22 743 l 22 840 m 789 571 l 789 743 l 258 743 l 258 571 l 789 571 z "},"ħ":{"ha":740,"x_min":-3,"x_max":665,"o":"m -3 899 l 81 899 l 81 993 l 192 993 l 192 899 l 411 899 l 411 815 l 192 815 l 192 624 l 194 624 q 286 698 228 668 q 428 728 344 728 q 599 669 532 728 q 665 494 665 610 l 665 0 l 554 0 l 554 467 q 517 585 554 540 q 400 631 479 631 q 249 578 307 631 q 192 442 192 525 l 192 0 l 81 0 l 81 815 l -3 815 l -3 899 z "},"Ĩ":{"ha":331,"x_min":-29,"x_max":358,"o":"m 103 993 l 228 993 l 228 0 l 103 0 l 103 993 m -29 1122 q 1 1220 -29 1188 q 74 1253 31 1253 q 123 1245 99 1253 q 182 1222 147 1238 q 210 1211 190 1219 q 243 1203 231 1203 q 275 1250 275 1203 l 358 1250 q 328 1151 358 1183 q 256 1119 299 1119 q 206 1127 231 1119 q 147 1150 182 1135 q 119 1161 139 1153 q 86 1169 99 1169 q 54 1122 54 1169 l -29 1122 z "},"ĩ":{"ha":272,"x_min":-58,"x_max":329,"o":"m 81 708 l 192 708 l 192 0 l 81 0 l 81 708 m -58 838 q -28 935 -58 903 q 44 968 1 968 q 94 960 69 968 q 153 938 118 953 q 181 926 161 935 q 214 918 201 918 q 246 965 246 918 l 329 965 q 299 867 329 899 q 226 835 269 835 q 177 842 201 835 q 118 865 153 850 q 90 876 110 868 q 57 885 69 885 q 25 838 25 885 l -58 838 z "},"Ī":{"ha":331,"x_min":-14,"x_max":344,"o":"m 103 993 l 228 993 l 228 0 l 103 0 l 103 993 m -14 1228 l 344 1228 l 344 1131 l -14 1131 l -14 1228 z "},"ī":{"ha":272,"x_min":-43,"x_max":315,"o":"m 81 708 l 192 708 l 192 0 l 81 0 l 81 708 m -43 943 l 315 943 l 315 846 l -43 846 l -43 943 z "},"Į":{"ha":331,"x_min":25,"x_max":242,"o":"m 103 993 l 228 993 l 228 0 l 103 0 l 103 993 m 151 -246 q 58 -218 90 -246 q 25 -143 25 -190 q 57 -58 25 -97 q 131 0 89 -19 l 214 0 q 122 -119 122 -72 q 137 -151 122 -139 q 174 -162 151 -162 q 242 -149 210 -162 l 242 -232 q 151 -246 197 -246 z "},"į":{"ha":272,"x_min":-11,"x_max":206,"o":"m 81 708 l 192 708 l 192 0 l 81 0 l 81 708 m 69 979 l 203 979 l 203 846 l 69 846 l 69 979 m 115 -246 q 22 -218 54 -246 q -11 -143 -11 -190 q 21 -58 -11 -97 q 94 0 53 -19 l 178 0 q 86 -119 86 -72 q 101 -151 86 -139 q 138 -162 115 -162 q 206 -149 174 -162 l 206 -232 q 115 -246 161 -246 z "},"İ":{"ha":331,"x_min":99,"x_max":232,"o":"m 103 993 l 228 993 l 228 0 l 103 0 l 103 993 m 99 1264 l 232 1264 l 232 1131 l 99 1131 l 99 1264 z "},"ı":{"ha":272,"x_min":81,"x_max":192,"o":"m 81 708 l 192 708 l 192 0 l 81 0 l 81 708 z "},"Ĵ":{"ha":701,"x_min":25,"x_max":732,"o":"m 314 -19 q 92 72 160 -19 q 25 303 25 164 l 25 331 l 150 331 l 150 303 q 162 190 150 235 q 210 118 174 144 q 314 92 246 92 q 447 145 414 92 q 479 303 479 199 l 479 993 l 604 993 l 604 303 q 536 72 604 164 q 314 -19 468 -19 m 479 1292 l 604 1292 l 732 1106 l 621 1106 l 543 1232 l 540 1232 l 463 1106 l 351 1106 l 479 1292 z "},"ĵ":{"ha":272,"x_min":-54,"x_max":326,"o":"m 38 -250 q -36 -243 4 -250 l -36 -149 q 19 -153 -1 -153 q 67 -128 53 -153 q 81 -44 81 -104 l 81 708 l 192 708 l 192 -56 q 149 -203 192 -157 q 38 -250 106 -250 m 74 1007 l 199 1007 l 326 821 l 215 821 l 138 947 l 135 947 l 57 821 l -54 821 l 74 1007 z "},"Ķ":{"ha":888,"x_min":103,"x_max":907,"o":"m 103 993 l 228 993 l 228 468 l 732 993 l 874 993 l 482 586 l 907 0 l 761 0 l 401 503 l 228 324 l 228 0 l 103 0 l 103 993 m 411 -264 q 463 -235 449 -253 q 475 -176 476 -217 l 411 -176 l 411 -68 l 544 -68 l 544 -176 q 515 -265 544 -229 q 411 -319 485 -301 l 411 -264 z "},"ķ":{"ha":667,"x_min":81,"x_max":685,"o":"m 81 993 l 192 993 l 192 399 l 522 708 l 656 708 l 376 451 l 685 0 l 553 0 l 301 382 l 192 282 l 192 0 l 81 0 l 81 993 m 303 -264 q 354 -235 340 -253 q 367 -176 368 -217 l 303 -176 l 303 -68 l 436 -68 l 436 -176 q 406 -265 436 -229 q 303 -319 376 -301 l 303 -264 z "},"ĸ":{"ha":675,"x_min":81,"x_max":685,"o":"m 81 708 l 192 708 l 192 383 l 543 708 l 679 708 l 385 439 l 685 0 l 553 0 l 310 369 l 192 261 l 192 0 l 81 0 l 81 708 z "},"Ĺ":{"ha":769,"x_min":103,"x_max":749,"o":"m 103 993 l 228 993 l 228 111 l 749 111 l 749 0 l 103 0 l 103 993 m 190 1292 l 322 1292 l 196 1106 l 106 1106 l 190 1292 z "},"ĺ":{"ha":272,"x_min":76,"x_max":293,"o":"m 81 993 l 192 993 l 192 0 l 81 0 l 81 993 m 161 1229 l 293 1229 l 167 1043 l 76 1043 l 161 1229 z "},"Ļ":{"ha":769,"x_min":103,"x_max":749,"o":"m 103 993 l 228 993 l 228 111 l 749 111 l 749 0 l 103 0 l 103 993 m 360 -264 q 411 -235 397 -253 q 424 -176 425 -217 l 360 -176 l 360 -68 l 493 -68 l 493 -176 q 463 -265 493 -229 q 360 -319 433 -301 l 360 -264 z "},"ļ":{"ha":272,"x_min":69,"x_max":203,"o":"m 81 993 l 192 993 l 192 0 l 81 0 l 81 993 m 69 -264 q 121 -235 107 -253 q 133 -176 135 -217 l 69 -176 l 69 -68 l 203 -68 l 203 -176 q 173 -265 203 -229 q 69 -319 143 -301 l 69 -264 z "},"Ľ":{"ha":769,"x_min":103,"x_max":749,"o":"m 103 993 l 228 993 l 228 111 l 749 111 l 749 0 l 103 0 l 103 993 m 422 993 l 553 993 l 476 726 l 390 726 l 422 993 z "},"ľ":{"ha":289,"x_min":81,"x_max":397,"o":"m 81 993 l 192 993 l 192 0 l 81 0 l 81 993 m 267 993 l 397 993 l 321 726 l 235 726 l 267 993 z "},"Ł":{"ha":818,"x_min":40,"x_max":797,"o":"m 40 372 l 151 454 l 151 993 l 276 993 l 276 546 l 499 708 l 499 601 l 276 439 l 276 111 l 797 111 l 797 0 l 151 0 l 151 347 l 40 265 l 40 372 z "},"ł":{"ha":382,"x_min":33,"x_max":350,"o":"m 33 469 l 136 543 l 136 993 l 247 993 l 247 624 l 350 697 l 350 590 l 247 517 l 247 0 l 136 0 l 136 436 l 33 363 l 33 469 z "},"Ń":{"ha":982,"x_min":103,"x_max":879,"o":"m 103 993 l 256 993 l 751 178 l 754 178 l 754 993 l 879 993 l 879 0 l 726 0 l 231 815 l 228 815 l 228 0 l 103 0 l 103 993 m 517 1292 l 649 1292 l 522 1106 l 432 1106 l 517 1292 z "},"ń":{"ha":740,"x_min":81,"x_max":665,"o":"m 554 467 q 517 585 554 540 q 400 631 479 631 q 249 578 307 631 q 192 442 192 525 l 192 0 l 81 0 l 81 708 l 192 708 l 192 624 l 194 624 q 286 698 228 668 q 428 728 344 728 q 599 669 532 728 q 665 494 665 610 l 665 0 l 554 0 l 554 467 m 399 1007 l 531 1007 l 404 821 l 314 821 l 399 1007 z "},"Ņ":{"ha":982,"x_min":103,"x_max":879,"o":"m 103 993 l 256 993 l 751 178 l 754 178 l 754 993 l 879 993 l 879 0 l 726 0 l 231 815 l 228 815 l 228 0 l 103 0 l 103 993 m 425 -264 q 476 -235 463 -253 q 489 -176 490 -217 l 425 -176 l 425 -68 l 558 -68 l 558 -176 q 528 -265 558 -229 q 425 -319 499 -301 l 425 -264 z "},"ņ":{"ha":740,"x_min":81,"x_max":665,"o":"m 554 467 q 517 585 554 540 q 400 631 479 631 q 249 578 307 631 q 192 442 192 525 l 192 0 l 81 0 l 81 708 l 192 708 l 192 624 l 194 624 q 286 698 228 668 q 428 728 344 728 q 599 669 532 728 q 665 494 665 610 l 665 0 l 554 0 l 554 467 m 307 -264 q 358 -235 344 -253 q 371 -176 372 -217 l 307 -176 l 307 -68 l 440 -68 l 440 -176 q 410 -265 440 -229 q 307 -319 381 -301 l 307 -264 z "},"Ň":{"ha":982,"x_min":103,"x_max":879,"o":"m 103 993 l 256 993 l 751 178 l 754 178 l 754 993 l 879 993 l 879 0 l 726 0 l 231 815 l 228 815 l 228 0 l 103 0 l 103 993 m 301 1292 l 413 1292 l 490 1165 l 493 1165 l 571 1292 l 682 1292 l 554 1106 l 429 1106 l 301 1292 z "},"ň":{"ha":740,"x_min":81,"x_max":665,"o":"m 554 467 q 517 585 554 540 q 400 631 479 631 q 249 578 307 631 q 192 442 192 525 l 192 0 l 81 0 l 81 708 l 192 708 l 192 624 l 194 624 q 286 698 228 668 q 428 728 344 728 q 599 669 532 728 q 665 494 665 610 l 665 0 l 554 0 l 554 467 m 183 1007 l 294 1007 l 372 881 l 375 881 l 453 1007 l 564 1007 l 436 821 l 311 821 l 183 1007 z "},"Ŋ":{"ha":982,"x_min":103,"x_max":879,"o":"m 633 -247 q 556 -239 585 -247 l 556 -142 q 603 -144 589 -144 q 743 -26 742 -144 l 231 815 l 228 815 l 228 0 l 103 0 l 103 993 l 256 993 l 751 175 l 754 175 l 754 993 l 879 993 l 879 0 q 813 -187 879 -128 q 633 -247 746 -247 z "},"ŋ":{"ha":740,"x_min":81,"x_max":665,"o":"m 499 -231 q 415 -222 453 -231 l 415 -125 q 453 -126 429 -126 q 531 -107 507 -126 q 554 -37 554 -87 l 554 467 q 517 585 554 540 q 400 631 479 631 q 249 578 307 631 q 192 442 192 525 l 192 0 l 81 0 l 81 708 l 192 708 l 192 624 l 194 624 q 286 698 228 668 q 428 728 344 728 q 599 669 532 728 q 665 494 665 610 l 665 -49 q 622 -190 665 -150 q 499 -231 578 -231 z "},"Ō":{"ha":1078,"x_min":53,"x_max":1025,"o":"m 539 -19 q 285 47 396 -19 q 114 231 175 114 q 53 497 53 349 q 114 763 53 646 q 285 947 175 881 q 539 1013 396 1013 q 792 947 682 1013 q 964 763 903 881 q 1025 497 1025 646 q 964 231 1025 349 q 792 47 903 114 q 539 -19 682 -19 m 183 497 q 222 293 183 385 q 340 147 260 201 q 539 92 419 92 q 738 147 658 92 q 856 293 818 201 q 894 497 894 385 q 856 700 894 608 q 738 847 818 792 q 539 901 658 901 q 340 847 419 901 q 222 700 260 792 q 183 497 183 608 m 360 1228 l 718 1228 l 718 1131 l 360 1131 l 360 1228 z "},"ō":{"ha":776,"x_min":42,"x_max":735,"o":"m 389 -21 q 203 26 282 -21 q 83 159 125 74 q 42 354 42 244 q 83 549 42 464 q 203 682 125 635 q 389 729 282 729 q 573 682 494 729 q 693 549 651 635 q 735 354 735 464 q 693 159 735 244 q 573 26 651 74 q 389 -21 494 -21 m 158 354 q 217 155 158 233 q 389 76 275 76 q 560 155 501 76 q 618 354 618 233 q 560 553 618 475 q 389 632 501 632 q 217 553 275 632 q 158 354 158 475 m 210 946 l 568 946 l 568 849 l 210 849 l 210 946 z "},"Ő":{"ha":1078,"x_min":53,"x_max":1025,"o":"m 539 -19 q 285 47 396 -19 q 114 231 175 114 q 53 497 53 349 q 114 763 53 646 q 285 947 175 881 q 539 1013 396 1013 q 792 947 682 1013 q 964 763 903 881 q 1025 497 1025 646 q 964 231 1025 349 q 792 47 903 114 q 539 -19 682 -19 m 183 497 q 222 293 183 385 q 340 147 260 201 q 539 92 419 92 q 738 147 658 92 q 856 293 818 201 q 894 497 894 385 q 856 700 894 608 q 738 847 818 792 q 539 901 658 901 q 340 847 419 901 q 222 700 260 792 q 183 497 183 608 m 668 1292 l 800 1292 l 674 1106 l 583 1106 l 668 1292 m 471 1292 l 603 1292 l 476 1106 l 386 1106 l 471 1292 z "},"ő":{"ha":776,"x_min":42,"x_max":735,"o":"m 389 -21 q 203 26 282 -21 q 83 159 125 74 q 42 354 42 244 q 83 549 42 464 q 203 682 125 635 q 389 729 282 729 q 573 682 494 729 q 693 549 651 635 q 735 354 735 464 q 693 159 735 244 q 573 26 651 74 q 389 -21 494 -21 m 158 354 q 217 155 158 233 q 389 76 275 76 q 560 155 501 76 q 618 354 618 233 q 560 553 618 475 q 389 632 501 632 q 217 553 275 632 q 158 354 158 475 m 518 1010 l 650 1010 l 524 824 l 433 824 l 518 1010 m 321 1010 l 453 1010 l 326 824 l 236 824 l 321 1010 z "},"Œ":{"ha":1533,"x_min":54,"x_max":1490,"o":"m 457 -19 q 249 47 340 -19 q 106 232 157 114 q 54 497 54 350 q 106 762 54 644 q 249 946 157 879 q 457 1013 340 1013 q 656 956 571 1013 q 786 779 742 900 l 786 993 l 1474 993 l 1474 882 l 911 882 l 911 569 l 1407 569 l 1407 458 l 911 458 l 911 111 l 1490 111 l 1490 0 l 786 0 l 786 214 q 656 37 742 93 q 457 -19 571 -19 m 185 497 q 257 206 185 319 q 485 92 329 92 q 629 135 564 92 q 733 270 694 179 q 772 497 772 361 q 733 724 772 633 q 629 858 694 815 q 485 901 564 901 q 257 788 329 901 q 185 497 185 675 z "},"œ":{"ha":1332,"x_min":42,"x_max":1290,"o":"m 389 -19 q 203 28 282 -19 q 83 160 125 75 q 42 354 42 244 q 83 549 42 464 q 203 681 125 633 q 389 728 282 728 q 558 689 485 728 q 676 581 632 650 q 794 690 721 651 q 963 729 868 729 q 1138 685 1064 729 q 1251 563 1213 642 q 1290 381 1290 485 q 1289 325 1290 336 l 735 325 q 796 149 738 222 q 964 75 854 75 q 1106 121 1056 75 q 1168 218 1156 167 l 1281 218 q 1172 45 1251 111 q 963 -21 1092 -21 q 792 19 864 -21 q 676 129 719 58 q 558 19 632 58 q 389 -19 485 -19 m 158 354 q 217 156 158 233 q 389 78 275 78 q 560 156 501 78 q 618 354 618 233 q 560 553 618 475 q 389 631 501 631 q 217 553 275 631 q 158 354 158 475 m 1172 422 q 1146 529 1172 481 q 1070 606 1119 578 q 957 633 1021 633 q 803 574 865 633 q 735 422 740 515 l 1172 422 z "},"Ŕ":{"ha":897,"x_min":103,"x_max":847,"o":"m 103 993 l 501 993 q 749 919 664 993 q 833 707 833 846 q 783 549 833 615 q 653 464 732 483 l 653 461 q 758 393 722 447 q 806 274 794 339 q 824 119 818 210 q 832 38 828 63 q 847 8 836 13 l 847 0 l 713 0 q 701 33 704 8 q 699 100 699 57 q 685 249 696 189 q 635 356 675 310 q 513 401 594 401 l 228 401 l 228 0 l 103 0 l 103 993 m 472 513 q 647 562 586 513 q 708 704 708 611 q 653 838 708 793 q 476 882 599 882 l 228 882 l 228 513 l 472 513 m 458 1292 l 590 1292 l 464 1106 l 374 1106 l 458 1292 z "},"ŕ":{"ha":468,"x_min":81,"x_max":456,"o":"m 192 0 l 81 0 l 81 708 l 192 708 l 192 568 l 194 568 q 272 686 225 644 q 390 728 318 728 q 456 724 426 728 l 456 613 q 410 617 431 617 q 252 549 313 617 q 192 378 192 481 l 192 0 m 293 1007 l 425 1007 l 299 821 l 208 821 l 293 1007 z "},"Ŗ":{"ha":897,"x_min":103,"x_max":847,"o":"m 103 993 l 501 993 q 749 919 664 993 q 833 707 833 846 q 783 549 833 615 q 653 464 732 483 l 653 461 q 758 393 722 447 q 806 274 794 339 q 824 119 818 210 q 832 38 828 63 q 847 8 836 13 l 847 0 l 713 0 q 701 33 704 8 q 699 100 699 57 q 685 249 696 189 q 635 356 675 310 q 513 401 594 401 l 228 401 l 228 0 l 103 0 l 103 993 m 472 513 q 647 562 586 513 q 708 704 708 611 q 653 838 708 793 q 476 882 599 882 l 228 882 l 228 513 l 472 513 m 394 -264 q 446 -235 432 -253 q 458 -176 460 -217 l 394 -176 l 394 -68 l 528 -68 l 528 -176 q 498 -265 528 -229 q 394 -319 468 -301 l 394 -264 z "},"ŗ":{"ha":468,"x_min":69,"x_max":456,"o":"m 192 0 l 81 0 l 81 708 l 192 708 l 192 568 l 194 568 q 272 686 225 644 q 390 728 318 728 q 456 724 426 728 l 456 613 q 410 617 431 617 q 252 549 313 617 q 192 378 192 481 l 192 0 m 69 -264 q 121 -235 107 -253 q 133 -176 135 -217 l 69 -176 l 69 -68 l 203 -68 l 203 -176 q 173 -265 203 -229 q 69 -319 143 -301 l 69 -264 z "},"Ř":{"ha":897,"x_min":103,"x_max":847,"o":"m 103 993 l 501 993 q 749 919 664 993 q 833 707 833 846 q 783 549 833 615 q 653 464 732 483 l 653 461 q 758 393 722 447 q 806 274 794 339 q 824 119 818 210 q 832 38 828 63 q 847 8 836 13 l 847 0 l 713 0 q 701 33 704 8 q 699 100 699 57 q 685 249 696 189 q 635 356 675 310 q 513 401 594 401 l 228 401 l 228 0 l 103 0 l 103 993 m 472 513 q 647 562 586 513 q 708 704 708 611 q 653 838 708 793 q 476 882 599 882 l 228 882 l 228 513 l 472 513 m 243 1292 l 354 1292 l 432 1165 l 435 1165 l 513 1292 l 624 1292 l 496 1106 l 371 1106 l 243 1292 z "},"ř":{"ha":468,"x_min":78,"x_max":458,"o":"m 192 0 l 81 0 l 81 708 l 192 708 l 192 568 l 194 568 q 272 686 225 644 q 390 728 318 728 q 456 724 426 728 l 456 613 q 410 617 431 617 q 252 549 313 617 q 192 378 192 481 l 192 0 m 78 1007 l 189 1007 l 267 881 l 269 881 l 347 1007 l 458 1007 l 331 821 l 206 821 l 78 1007 z "},"Ś":{"ha":867,"x_min":35,"x_max":824,"o":"m 469 -19 q 250 23 346 -19 q 98 144 154 65 q 35 333 42 224 l 165 333 q 464 90 190 90 q 641 138 589 90 q 693 271 693 186 q 665 369 693 335 q 588 423 638 404 q 432 468 538 442 q 403 475 422 469 q 235 526 301 500 q 123 607 169 553 q 76 750 76 661 q 165 942 76 871 q 413 1013 254 1013 q 680 931 581 1013 q 792 699 779 849 l 661 699 q 589 852 647 801 q 414 903 531 903 q 259 865 311 903 q 207 756 207 828 q 240 664 207 697 q 319 614 272 631 q 454 576 367 597 q 653 519 579 547 q 775 432 726 490 q 824 275 824 374 q 735 63 824 144 q 469 -19 646 -19 m 447 1292 l 579 1292 l 453 1106 l 363 1106 l 447 1292 z "},"ś":{"ha":665,"x_min":31,"x_max":633,"o":"m 349 -19 q 117 51 200 -19 q 31 236 33 122 l 147 236 q 199 121 151 164 q 349 78 246 78 q 479 112 442 78 q 517 194 517 146 q 494 258 517 235 q 441 293 472 282 q 356 315 410 304 l 328 321 q 190 360 243 340 q 97 420 136 379 q 58 529 58 461 q 127 674 58 619 q 317 728 196 728 q 523 665 449 728 q 606 506 597 603 l 489 506 q 442 595 478 560 q 318 631 406 631 q 210 604 246 631 q 175 533 175 578 q 195 480 175 500 q 246 449 215 460 q 331 428 276 439 q 364 421 342 426 q 502 381 447 401 q 595 316 557 360 q 633 199 633 272 q 558 39 633 97 q 349 -19 483 -19 m 357 1007 l 489 1007 l 363 821 l 272 821 l 357 1007 z "},"Ŝ":{"ha":867,"x_min":35,"x_max":824,"o":"m 469 -19 q 250 23 346 -19 q 98 144 154 65 q 35 333 42 224 l 165 333 q 464 90 190 90 q 641 138 589 90 q 693 271 693 186 q 665 369 693 335 q 588 423 638 404 q 432 468 538 442 q 403 475 422 469 q 235 526 301 500 q 123 607 169 553 q 76 750 76 661 q 165 942 76 871 q 413 1013 254 1013 q 680 931 581 1013 q 792 699 779 849 l 661 699 q 589 852 647 801 q 414 903 531 903 q 259 865 311 903 q 207 756 207 828 q 240 664 207 697 q 319 614 272 631 q 454 576 367 597 q 653 519 579 547 q 775 432 726 490 q 824 275 824 374 q 735 63 824 144 q 469 -19 646 -19 m 360 1292 l 485 1292 l 613 1106 l 501 1106 l 424 1232 l 421 1232 l 343 1106 l 232 1106 l 360 1292 z "},"ŝ":{"ha":665,"x_min":31,"x_max":633,"o":"m 349 -19 q 117 51 200 -19 q 31 236 33 122 l 147 236 q 199 121 151 164 q 349 78 246 78 q 479 112 442 78 q 517 194 517 146 q 494 258 517 235 q 441 293 472 282 q 356 315 410 304 l 328 321 q 190 360 243 340 q 97 420 136 379 q 58 529 58 461 q 127 674 58 619 q 317 728 196 728 q 523 665 449 728 q 606 506 597 603 l 489 506 q 442 595 478 560 q 318 631 406 631 q 210 604 246 631 q 175 533 175 578 q 195 480 175 500 q 246 449 215 460 q 331 428 276 439 q 364 421 342 426 q 502 381 447 401 q 595 316 557 360 q 633 199 633 272 q 558 39 633 97 q 349 -19 483 -19 m 269 1007 l 394 1007 l 522 821 l 411 821 l 333 947 l 331 947 l 253 821 l 142 821 l 269 1007 z "},"Ş":{"ha":867,"x_min":35,"x_max":824,"o":"m 453 -275 q 374 -263 413 -275 q 304 -232 335 -251 l 333 -197 q 431 -218 389 -218 q 483 -204 465 -218 q 500 -167 500 -190 q 446 -124 500 -124 q 415 -126 432 -124 q 389 -133 399 -129 l 372 -107 l 444 -19 q 155 81 265 -12 q 35 333 44 174 l 165 333 q 464 90 190 90 q 641 138 589 90 q 693 271 693 186 q 665 369 693 335 q 588 423 638 404 q 432 468 538 442 q 403 475 422 469 q 235 526 301 500 q 123 607 169 553 q 76 750 76 661 q 165 942 76 871 q 413 1013 254 1013 q 680 931 581 1013 q 792 699 779 849 l 661 699 q 589 852 647 801 q 414 903 531 903 q 259 865 311 903 q 207 756 207 828 q 240 664 207 697 q 319 614 272 631 q 454 576 367 597 q 653 519 579 547 q 775 432 726 490 q 824 275 824 374 q 746 73 824 153 q 514 -18 668 -7 l 464 -76 l 464 -79 q 488 -78 471 -78 q 565 -100 532 -78 q 597 -168 597 -122 q 556 -249 597 -222 q 453 -275 514 -275 z "},"ş":{"ha":665,"x_min":31,"x_max":633,"o":"m 300 -275 q 221 -263 260 -275 q 151 -232 182 -251 l 181 -197 q 278 -218 236 -218 q 330 -204 313 -218 q 347 -167 347 -190 q 293 -124 347 -124 q 263 -126 279 -124 q 236 -133 246 -129 l 219 -107 l 293 -17 q 102 65 171 -4 q 31 236 33 135 l 147 236 q 199 121 151 164 q 349 78 246 78 q 479 112 442 78 q 517 194 517 146 q 494 258 517 235 q 441 293 472 282 q 356 315 410 304 l 328 321 q 190 360 243 340 q 97 420 136 379 q 58 529 58 461 q 127 674 58 619 q 317 728 196 728 q 523 665 449 728 q 606 506 597 603 l 489 506 q 442 595 478 560 q 318 631 406 631 q 210 604 246 631 q 175 533 175 578 q 195 480 175 500 q 246 449 215 460 q 331 428 276 439 q 364 421 342 426 q 502 381 447 401 q 595 316 557 360 q 633 199 633 272 q 561 42 633 100 q 360 -19 489 -17 l 311 -76 l 311 -79 q 335 -78 318 -78 q 412 -100 379 -78 q 444 -168 444 -122 q 403 -249 444 -222 q 300 -275 361 -275 z "},"Š":{"ha":867,"x_min":35,"x_max":824,"o":"m 469 -19 q 250 23 346 -19 q 98 144 154 65 q 35 333 42 224 l 165 333 q 464 90 190 90 q 641 138 589 90 q 693 271 693 186 q 665 369 693 335 q 588 423 638 404 q 432 468 538 442 q 403 475 422 469 q 235 526 301 500 q 123 607 169 553 q 76 750 76 661 q 165 942 76 871 q 413 1013 254 1013 q 680 931 581 1013 q 792 699 779 849 l 661 699 q 589 852 647 801 q 414 903 531 903 q 259 865 311 903 q 207 756 207 828 q 240 664 207 697 q 319 614 272 631 q 454 576 367 597 q 653 519 579 547 q 775 432 726 490 q 824 275 824 374 q 735 63 824 144 q 469 -19 646 -19 m 232 1292 l 343 1292 l 421 1165 l 424 1165 l 501 1292 l 613 1292 l 485 1106 l 360 1106 l 232 1292 z "},"š":{"ha":665,"x_min":31,"x_max":633,"o":"m 349 -19 q 117 51 200 -19 q 31 236 33 122 l 147 236 q 199 121 151 164 q 349 78 246 78 q 479 112 442 78 q 517 194 517 146 q 494 258 517 235 q 441 293 472 282 q 356 315 410 304 l 328 321 q 190 360 243 340 q 97 420 136 379 q 58 529 58 461 q 127 674 58 619 q 317 728 196 728 q 523 665 449 728 q 606 506 597 603 l 489 506 q 442 595 478 560 q 318 631 406 631 q 210 604 246 631 q 175 533 175 578 q 195 480 175 500 q 246 449 215 460 q 331 428 276 439 q 364 421 342 426 q 502 381 447 401 q 595 316 557 360 q 633 199 633 272 q 558 39 633 97 q 349 -19 483 -19 m 142 1007 l 253 1007 l 331 881 l 333 881 l 411 1007 l 522 1007 l 394 821 l 269 821 l 142 1007 z "},"Ţ":{"ha":828,"x_min":21,"x_max":807,"o":"m 351 882 l 21 882 l 21 993 l 807 993 l 807 882 l 476 882 l 476 0 l 351 0 l 351 882 m 382 -275 q 303 -263 342 -275 q 233 -232 264 -251 l 263 -197 q 360 -218 318 -218 q 412 -204 394 -218 q 429 -167 429 -190 q 375 -124 429 -124 q 344 -126 361 -124 q 318 -133 328 -129 l 301 -107 l 389 0 l 458 0 l 393 -76 l 393 -79 q 417 -78 400 -78 q 494 -100 461 -78 q 526 -168 526 -122 q 485 -249 526 -222 q 382 -275 443 -275 z "},"ţ":{"ha":410,"x_min":19,"x_max":386,"o":"m 296 -7 l 253 -57 l 253 -60 q 276 -58 260 -58 q 353 -81 321 -58 q 386 -149 386 -103 q 344 -229 386 -203 q 242 -256 303 -256 q 163 -244 201 -256 q 93 -212 124 -232 l 122 -178 q 219 -199 178 -199 q 272 -185 254 -199 q 289 -147 289 -171 q 235 -104 289 -104 q 204 -107 221 -104 q 178 -114 188 -110 l 161 -87 l 233 0 q 152 58 181 14 q 124 190 124 101 l 124 611 l 19 611 l 19 708 l 124 708 l 124 944 l 235 944 l 235 708 l 374 708 l 374 611 l 235 611 l 235 185 q 251 110 235 129 q 315 90 268 90 q 374 94 339 90 l 374 0 q 300 -7 333 -7 l 296 -7 z "},"Ť":{"ha":828,"x_min":21,"x_max":807,"o":"m 351 882 l 21 882 l 21 993 l 807 993 l 807 882 l 476 882 l 476 0 l 351 0 l 351 882 m 224 1292 l 335 1292 l 413 1165 l 415 1165 l 493 1292 l 604 1292 l 476 1106 l 351 1106 l 224 1292 z "},"ť":{"ha":410,"x_min":19,"x_max":456,"o":"m 300 -7 q 169 35 214 -7 q 124 190 124 78 l 124 611 l 19 611 l 19 708 l 124 708 l 124 944 l 235 944 l 235 708 l 374 708 l 374 611 l 235 611 l 235 185 q 251 110 235 129 q 315 90 268 90 q 374 94 339 90 l 374 0 q 300 -7 333 -7 m 325 993 l 456 993 l 379 779 l 293 779 l 325 993 z "},"Ŧ":{"ha":828,"x_min":21,"x_max":807,"o":"m 351 465 l 151 465 l 151 563 l 351 563 l 351 882 l 21 882 l 21 993 l 807 993 l 807 882 l 476 882 l 476 563 l 718 563 l 718 465 l 476 465 l 476 0 l 351 0 l 351 465 z "},"ŧ":{"ha":418,"x_min":24,"x_max":378,"o":"m 24 482 l 128 482 l 128 611 l 24 611 l 24 708 l 128 708 l 128 944 l 239 944 l 239 708 l 378 708 l 378 611 l 239 611 l 239 482 l 378 482 l 378 385 l 239 385 l 239 185 q 256 110 239 129 q 319 90 272 90 q 378 94 343 90 l 378 0 q 304 -7 338 -7 q 173 35 218 -7 q 128 190 128 78 l 128 385 l 24 385 l 24 482 z "},"Ũ":{"ha":953,"x_min":96,"x_max":857,"o":"m 476 -19 q 190 76 285 -19 q 96 331 96 171 l 96 993 l 221 993 l 221 331 q 284 151 221 210 q 476 92 347 92 q 669 151 606 92 q 732 331 732 210 l 732 993 l 857 993 l 857 331 q 763 76 857 171 q 476 -19 668 -19 m 282 1122 q 312 1220 282 1188 q 385 1253 342 1253 q 434 1245 410 1253 q 493 1222 458 1238 q 522 1211 501 1219 q 554 1203 542 1203 q 586 1250 586 1203 l 669 1250 q 640 1151 669 1183 q 567 1119 610 1119 q 517 1127 542 1119 q 458 1150 493 1135 q 430 1161 450 1153 q 397 1169 410 1169 q 365 1122 365 1169 l 282 1122 z "},"ũ":{"ha":740,"x_min":75,"x_max":660,"o":"m 313 -19 q 142 40 208 -19 q 75 214 75 99 l 75 708 l 186 708 l 186 242 q 224 123 186 168 q 340 78 261 78 q 491 131 433 78 q 549 267 549 183 l 549 708 l 660 708 l 660 0 l 549 0 l 549 85 l 546 85 q 454 10 513 40 q 313 -19 396 -19 m 160 838 q 190 935 160 903 q 263 968 219 968 q 312 960 288 968 q 371 938 336 953 q 399 926 379 935 q 432 918 419 918 q 464 965 464 918 l 547 965 q 517 867 547 899 q 444 835 488 835 q 395 842 419 835 q 336 865 371 850 q 308 876 328 868 q 275 885 288 885 q 243 838 243 885 l 160 838 z "},"Ū":{"ha":953,"x_min":96,"x_max":857,"o":"m 476 -19 q 190 76 285 -19 q 96 331 96 171 l 96 993 l 221 993 l 221 331 q 284 151 221 210 q 476 92 347 92 q 669 151 606 92 q 732 331 732 210 l 732 993 l 857 993 l 857 331 q 763 76 857 171 q 476 -19 668 -19 m 297 1228 l 656 1228 l 656 1131 l 297 1131 l 297 1228 z "},"ū":{"ha":740,"x_min":75,"x_max":660,"o":"m 313 -19 q 142 40 208 -19 q 75 214 75 99 l 75 708 l 186 708 l 186 242 q 224 123 186 168 q 340 78 261 78 q 491 131 433 78 q 549 267 549 183 l 549 708 l 660 708 l 660 0 l 549 0 l 549 85 l 546 85 q 454 10 513 40 q 313 -19 396 -19 m 175 943 l 533 943 l 533 846 l 175 846 l 175 943 z "},"Ŭ":{"ha":953,"x_min":96,"x_max":857,"o":"m 476 -19 q 190 76 285 -19 q 96 331 96 171 l 96 993 l 221 993 l 221 331 q 284 151 221 210 q 476 92 347 92 q 669 151 606 92 q 732 331 732 210 l 732 993 l 857 993 l 857 331 q 763 76 857 171 q 476 -19 668 -19 m 476 1092 q 351 1139 399 1092 q 300 1278 303 1186 l 383 1278 q 409 1199 386 1224 q 476 1175 432 1175 q 544 1199 521 1175 q 569 1278 567 1224 l 653 1278 q 601 1140 649 1188 q 476 1092 554 1092 z "},"ŭ":{"ha":740,"x_min":75,"x_max":660,"o":"m 313 -19 q 142 40 208 -19 q 75 214 75 99 l 75 708 l 186 708 l 186 242 q 224 123 186 168 q 340 78 261 78 q 491 131 433 78 q 549 267 549 183 l 549 708 l 660 708 l 660 0 l 549 0 l 549 85 l 546 85 q 454 10 513 40 q 313 -19 396 -19 m 354 807 q 228 854 276 807 q 178 993 181 901 l 261 993 q 287 915 264 939 q 354 890 310 890 q 422 915 399 890 q 447 993 444 939 l 531 993 q 479 855 526 903 q 354 807 432 807 z "},"Ů":{"ha":953,"x_min":96,"x_max":857,"o":"m 476 -19 q 190 76 285 -19 q 96 331 96 171 l 96 993 l 221 993 l 221 331 q 284 151 221 210 q 476 92 347 92 q 669 151 606 92 q 732 331 732 210 l 732 993 l 857 993 l 857 331 q 763 76 857 171 q 476 -19 668 -19 m 475 1063 q 388 1097 422 1063 q 354 1183 354 1131 q 388 1272 354 1238 q 475 1306 422 1306 q 563 1272 529 1306 q 597 1183 597 1238 q 563 1097 597 1131 q 475 1063 529 1063 m 411 1183 q 429 1135 411 1154 q 475 1117 447 1117 q 522 1135 504 1117 q 540 1183 540 1154 q 522 1232 540 1213 q 475 1251 504 1251 q 429 1232 447 1251 q 411 1183 411 1213 z "},"ů":{"ha":740,"x_min":75,"x_max":660,"o":"m 313 -19 q 142 40 208 -19 q 75 214 75 99 l 75 708 l 186 708 l 186 242 q 224 123 186 168 q 340 78 261 78 q 491 131 433 78 q 549 267 549 183 l 549 708 l 660 708 l 660 0 l 549 0 l 549 85 l 546 85 q 454 10 513 40 q 313 -19 396 -19 m 353 778 q 266 812 300 778 q 232 899 232 846 q 266 987 232 953 q 353 1021 300 1021 q 441 987 407 1021 q 475 899 475 953 q 441 812 475 846 q 353 778 407 778 m 289 899 q 307 851 289 869 q 353 832 325 832 q 400 851 382 832 q 418 899 418 869 q 400 947 418 928 q 353 967 382 967 q 307 947 325 967 q 289 899 289 928 z "},"Ű":{"ha":953,"x_min":96,"x_max":857,"o":"m 476 -19 q 190 76 285 -19 q 96 331 96 171 l 96 993 l 221 993 l 221 331 q 284 151 221 210 q 476 92 347 92 q 669 151 606 92 q 732 331 732 210 l 732 993 l 857 993 l 857 331 q 763 76 857 171 q 476 -19 668 -19 m 606 1292 l 738 1292 l 611 1106 l 521 1106 l 606 1292 m 408 1292 l 540 1292 l 414 1106 l 324 1106 l 408 1292 z "},"ű":{"ha":740,"x_min":75,"x_max":660,"o":"m 313 -19 q 142 40 208 -19 q 75 214 75 99 l 75 708 l 186 708 l 186 242 q 224 123 186 168 q 340 78 261 78 q 491 131 433 78 q 549 267 549 183 l 549 708 l 660 708 l 660 0 l 549 0 l 549 85 l 546 85 q 454 10 513 40 q 313 -19 396 -19 m 483 1007 l 615 1007 l 489 821 l 399 821 l 483 1007 m 286 1007 l 418 1007 l 292 821 l 201 821 l 286 1007 z "},"Ų":{"ha":953,"x_min":96,"x_max":857,"o":"m 476 -19 q 190 76 285 -19 q 96 331 96 171 l 96 993 l 221 993 l 221 331 q 284 151 221 210 q 476 92 347 92 q 669 151 606 92 q 732 331 732 210 l 732 993 l 857 993 l 857 331 q 795 113 857 201 q 607 -6 733 25 q 522 -119 522 -74 q 537 -151 522 -139 q 574 -162 551 -162 q 642 -149 610 -162 l 642 -232 q 551 -246 597 -246 q 458 -218 490 -246 q 425 -143 425 -190 q 446 -74 425 -107 q 499 -19 467 -42 l 476 -19 z "},"ų":{"ha":740,"x_min":75,"x_max":661,"o":"m 313 -19 q 142 40 208 -19 q 75 214 75 99 l 75 708 l 186 708 l 186 242 q 224 123 186 168 q 340 78 261 78 q 491 131 433 78 q 549 267 549 183 l 549 708 l 660 708 l 660 0 l 633 0 q 542 -119 542 -72 q 556 -151 542 -139 q 593 -162 571 -162 q 661 -149 629 -162 l 661 -232 q 571 -246 617 -246 q 477 -218 510 -246 q 444 -143 444 -190 q 476 -58 444 -97 q 550 0 508 -19 l 549 0 l 549 85 l 546 85 q 454 10 513 40 q 313 -19 396 -19 z "},"Ŵ":{"ha":1275,"x_min":22,"x_max":1253,"o":"m 22 993 l 154 993 l 343 179 l 346 179 l 568 993 l 707 993 l 929 179 l 932 179 l 1121 993 l 1253 993 l 1007 0 l 868 0 l 639 851 l 636 851 l 407 0 l 268 0 l 22 993 m 575 1292 l 700 1292 l 828 1106 l 717 1106 l 639 1232 l 636 1232 l 558 1106 l 447 1106 l 575 1292 z "},"ŵ":{"ha":1039,"x_min":15,"x_max":1025,"o":"m 15 708 l 140 708 l 303 125 l 306 125 l 461 708 l 582 708 l 738 125 l 740 125 l 904 708 l 1025 708 l 799 0 l 678 0 l 521 575 l 518 575 l 361 0 l 240 0 l 15 708 m 458 1007 l 583 1007 l 711 821 l 600 821 l 522 947 l 519 947 l 442 821 l 331 821 l 458 1007 z "},"Ŷ":{"ha":872,"x_min":13,"x_max":861,"o":"m 374 407 l 13 993 l 147 993 l 435 503 l 438 503 l 726 993 l 861 993 l 499 407 l 499 0 l 374 0 l 374 407 m 375 1292 l 500 1292 l 628 1106 l 517 1106 l 439 1232 l 436 1232 l 358 1106 l 247 1106 l 375 1292 z "},"ŷ":{"ha":683,"x_min":1,"x_max":675,"o":"m 154 -249 q 81 -242 121 -249 l 81 -147 q 136 -151 117 -151 q 227 -115 186 -151 q 289 7 268 -78 l 1 708 l 126 708 l 344 144 l 347 144 l 556 708 l 675 708 l 389 -21 q 283 -199 338 -150 q 154 -249 229 -249 m 276 1007 l 401 1007 l 529 821 l 418 821 l 340 947 l 338 947 l 260 821 l 149 821 l 276 1007 z "},"Ÿ":{"ha":872,"x_min":13,"x_max":861,"o":"m 374 407 l 13 993 l 147 993 l 435 503 l 438 503 l 726 993 l 861 993 l 499 407 l 499 0 l 374 0 l 374 407 m 479 1264 l 613 1264 l 613 1131 l 479 1131 l 479 1264 m 263 1264 l 396 1264 l 396 1131 l 263 1131 l 263 1264 z "},"Ź":{"ha":836,"x_min":29,"x_max":801,"o":"m 29 111 l 635 879 l 635 882 l 57 882 l 57 993 l 788 993 l 788 882 l 182 114 l 182 111 l 801 111 l 801 0 l 29 0 l 29 111 m 440 1292 l 572 1292 l 446 1106 l 356 1106 l 440 1292 z "},"ź":{"ha":626,"x_min":26,"x_max":599,"o":"m 26 83 l 426 608 l 426 611 l 50 611 l 50 708 l 583 708 l 583 642 l 171 100 l 171 97 l 599 97 l 599 0 l 26 0 l 26 83 m 338 1007 l 469 1007 l 343 821 l 253 821 l 338 1007 z "},"Ż":{"ha":836,"x_min":29,"x_max":801,"o":"m 29 111 l 635 879 l 635 882 l 57 882 l 57 993 l 788 993 l 788 882 l 182 114 l 182 111 l 801 111 l 801 0 l 29 0 l 29 111 m 349 1264 l 482 1264 l 482 1131 l 349 1131 l 349 1264 z "},"ż":{"ha":626,"x_min":26,"x_max":599,"o":"m 26 83 l 426 608 l 426 611 l 50 611 l 50 708 l 583 708 l 583 642 l 171 100 l 171 97 l 599 97 l 599 0 l 26 0 l 26 83 m 246 979 l 379 979 l 379 846 l 246 846 l 246 979 z "},"Ž":{"ha":836,"x_min":29,"x_max":801,"o":"m 29 111 l 635 879 l 635 882 l 57 882 l 57 993 l 788 993 l 788 882 l 182 114 l 182 111 l 801 111 l 801 0 l 29 0 l 29 111 m 225 1292 l 336 1292 l 414 1165 l 417 1165 l 494 1292 l 606 1292 l 478 1106 l 353 1106 l 225 1292 z "},"ž":{"ha":626,"x_min":26,"x_max":599,"o":"m 26 83 l 426 608 l 426 611 l 50 611 l 50 708 l 583 708 l 583 642 l 171 100 l 171 97 l 599 97 l 599 0 l 26 0 l 26 83 m 122 1007 l 233 1007 l 311 881 l 314 881 l 392 1007 l 503 1007 l 375 821 l 250 821 l 122 1007 z "},"ƒ":{"ha":642,"x_min":21,"x_max":619,"o":"m 96 -142 q 26 -133 68 -142 l 21 -39 q 83 -44 64 -44 q 138 -35 119 -44 q 166 -8 157 -26 q 183 50 175 11 l 281 542 l 169 542 l 174 639 l 300 639 l 333 804 q 406 960 356 918 q 543 1001 457 1001 q 619 996 571 1001 l 597 900 q 540 904 556 904 q 472 883 490 904 q 442 799 454 861 l 410 639 l 546 639 l 542 542 l 390 542 l 294 56 q 224 -100 272 -58 q 96 -142 176 -142 z "},"Ș":{"ha":867,"x_min":35,"x_max":824,"o":"m 469 -19 q 250 23 346 -19 q 98 144 154 65 q 35 333 42 224 l 165 333 q 464 90 190 90 q 641 138 589 90 q 693 271 693 186 q 665 369 693 335 q 588 423 638 404 q 432 468 538 442 q 403 475 422 469 q 235 526 301 500 q 123 607 169 553 q 76 750 76 661 q 165 942 76 871 q 413 1013 254 1013 q 680 931 581 1013 q 792 699 779 849 l 661 699 q 589 852 647 801 q 414 903 531 903 q 259 865 311 903 q 207 756 207 828 q 240 664 207 697 q 319 614 272 631 q 454 576 367 597 q 653 519 579 547 q 775 432 726 490 q 824 275 824 374 q 735 63 824 144 q 469 -19 646 -19 m 418 -264 q 469 -235 456 -253 q 482 -176 483 -217 l 418 -176 l 418 -68 l 551 -68 l 551 -176 q 522 -265 551 -229 q 418 -319 492 -301 l 418 -264 z "},"ș":{"ha":665,"x_min":31,"x_max":633,"o":"m 349 -19 q 117 51 200 -19 q 31 236 33 122 l 147 236 q 199 121 151 164 q 349 78 246 78 q 479 112 442 78 q 517 194 517 146 q 494 258 517 235 q 441 293 472 282 q 356 315 410 304 l 328 321 q 190 360 243 340 q 97 420 136 379 q 58 529 58 461 q 127 674 58 619 q 317 728 196 728 q 523 665 449 728 q 606 506 597 603 l 489 506 q 442 595 478 560 q 318 631 406 631 q 210 604 246 631 q 175 533 175 578 q 195 480 175 500 q 246 449 215 460 q 331 428 276 439 q 364 421 342 426 q 502 381 447 401 q 595 316 557 360 q 633 199 633 272 q 558 39 633 97 q 349 -19 483 -19 m 265 -264 q 317 -235 303 -253 q 329 -176 331 -217 l 265 -176 l 265 -68 l 399 -68 l 399 -176 q 369 -265 399 -229 q 265 -319 339 -301 l 265 -264 z "},"Ț":{"ha":828,"x_min":21,"x_max":807,"o":"m 351 882 l 21 882 l 21 993 l 807 993 l 807 882 l 476 882 l 476 0 l 351 0 l 351 882 m 347 -264 q 399 -235 385 -253 q 411 -176 413 -217 l 347 -176 l 347 -68 l 481 -68 l 481 -176 q 451 -265 481 -229 q 347 -319 421 -301 l 347 -264 z "},"ț":{"ha":410,"x_min":19,"x_max":374,"o":"m 300 -7 q 169 35 214 -7 q 124 190 124 78 l 124 611 l 19 611 l 19 708 l 124 708 l 124 944 l 235 944 l 235 708 l 374 708 l 374 611 l 235 611 l 235 185 q 251 110 235 129 q 315 90 268 90 q 374 94 339 90 l 374 0 q 300 -7 333 -7 m 207 -244 q 258 -215 244 -233 q 271 -157 272 -197 l 207 -157 l 207 -49 l 340 -49 l 340 -157 q 310 -246 340 -210 q 207 -300 281 -282 l 207 -244 z "},"ȷ":{"ha":272,"x_min":-36,"x_max":192,"o":"m 38 -250 q -36 -243 4 -250 l -36 -149 q 19 -153 -1 -153 q 67 -128 53 -153 q 81 -44 81 -104 l 81 708 l 192 708 l 192 -56 q 149 -203 192 -157 q 38 -250 106 -250 z "},"ˆ":{"ha":492,"x_min":56,"x_max":436,"o":"m 183 1007 l 308 1007 l 436 821 l 325 821 l 247 947 l 244 947 l 167 821 l 56 821 l 183 1007 z "},"ˇ":{"ha":492,"x_min":56,"x_max":436,"o":"m 56 1007 l 167 1007 l 244 881 l 247 881 l 325 1007 l 436 1007 l 308 821 l 183 821 l 56 1007 z "},"˘":{"ha":464,"x_min":56,"x_max":408,"o":"m 232 807 q 106 854 154 807 q 56 993 58 901 l 139 993 q 165 915 142 939 q 232 890 188 890 q 299 915 276 890 q 325 993 322 939 l 408 993 q 357 855 404 903 q 232 807 310 807 z "},"˙":{"ha":244,"x_min":56,"x_max":189,"o":"m 56 979 l 189 979 l 189 846 l 56 846 l 56 979 z "},"˚":{"ha":354,"x_min":56,"x_max":299,"o":"m 176 764 q 90 798 124 764 q 56 885 56 832 q 90 973 56 939 q 176 1007 124 1007 q 265 973 231 1007 q 299 885 299 939 q 265 798 299 832 q 176 764 231 764 m 113 885 q 131 837 113 856 q 176 818 149 818 q 224 837 206 818 q 242 885 242 856 q 224 933 242 914 q 176 953 206 953 q 131 933 149 953 q 113 885 113 914 z "},"˛":{"ha":328,"x_min":56,"x_max":272,"o":"m 182 -246 q 88 -218 121 -246 q 56 -143 56 -190 q 88 -58 56 -97 q 161 0 119 -19 l 244 0 q 153 -119 153 -72 q 167 -151 153 -139 q 204 -162 182 -162 q 272 -149 240 -162 l 272 -232 q 182 -246 228 -246 z "},"˜":{"ha":499,"x_min":56,"x_max":443,"o":"m 56 838 q 85 935 56 903 q 158 968 115 968 q 208 960 183 968 q 267 938 232 953 q 295 926 275 935 q 328 918 315 918 q 360 965 360 918 l 443 965 q 413 867 443 899 q 340 835 383 835 q 291 842 315 835 q 232 865 267 850 q 203 876 224 868 q 171 885 183 885 q 139 838 139 885 l 56 838 z "},"˝":{"ha":500,"x_min":42,"x_max":456,"o":"m 324 1007 l 456 1007 l 329 821 l 239 821 l 324 1007 m 126 1007 l 258 1007 l 132 821 l 42 821 l 126 1007 z "},"̀":{"ha":0,"x_min":44,"x_max":247,"o":"m 44 1007 l 176 1007 l 247 821 l 157 821 l 44 1007 z "},"́":{"ha":0,"x_min":42,"x_max":258,"o":"m 126 1007 l 258 1007 l 132 821 l 42 821 l 126 1007 z "},"̂":{"ha":0,"x_min":56,"x_max":436,"o":"m 183 1007 l 308 1007 l 436 821 l 325 821 l 247 947 l 244 947 l 167 821 l 56 821 l 183 1007 z "},"̃":{"ha":0,"x_min":56,"x_max":443,"o":"m 56 838 q 85 935 56 903 q 158 968 115 968 q 208 960 183 968 q 267 938 232 953 q 295 926 275 935 q 328 918 315 918 q 360 965 360 918 l 443 965 q 413 867 443 899 q 340 835 383 835 q 291 842 315 835 q 232 865 267 850 q 203 876 224 868 q 171 885 183 885 q 139 838 139 885 l 56 838 z "},"̄":{"ha":0,"x_min":56,"x_max":414,"o":"m 56 943 l 414 943 l 414 846 l 56 846 l 56 943 z "},"̆":{"ha":0,"x_min":56,"x_max":408,"o":"m 232 807 q 106 854 154 807 q 56 993 58 901 l 139 993 q 165 915 142 939 q 232 890 188 890 q 299 915 276 890 q 325 993 322 939 l 408 993 q 357 855 404 903 q 232 807 310 807 z "},"̇":{"ha":0,"x_min":56,"x_max":189,"o":"m 56 979 l 189 979 l 189 846 l 56 846 l 56 979 z "},"̈":{"ha":0,"x_min":57,"x_max":407,"o":"m 274 979 l 407 979 l 407 846 l 274 846 l 274 979 m 57 979 l 190 979 l 190 846 l 57 846 l 57 979 z "},"̊":{"ha":0,"x_min":56,"x_max":299,"o":"m 176 778 q 90 812 124 778 q 56 899 56 846 q 90 987 56 953 q 176 1021 124 1021 q 265 987 231 1021 q 299 899 299 953 q 265 812 299 846 q 176 778 231 778 m 113 899 q 131 851 113 869 q 176 832 149 832 q 224 851 206 832 q 242 899 242 869 q 224 947 242 928 q 176 967 206 967 q 131 947 149 967 q 113 899 113 928 z "},"̋":{"ha":0,"x_min":42,"x_max":456,"o":"m 324 1007 l 456 1007 l 329 821 l 239 821 l 324 1007 m 126 1007 l 258 1007 l 132 821 l 42 821 l 126 1007 z "},"̌":{"ha":0,"x_min":56,"x_max":436,"o":"m 56 1007 l 167 1007 l 244 881 l 247 881 l 325 1007 l 436 1007 l 308 821 l 183 821 l 56 1007 z "},"̒":{"ha":0,"x_min":61,"x_max":194,"o":"m 61 943 q 91 1044 61 1003 q 194 1104 121 1085 l 194 1040 q 143 1008 157 1029 q 131 943 129 988 l 194 943 l 194 821 l 61 821 l 61 943 z "},"̦":{"ha":0,"x_min":57,"x_max":190,"o":"m 57 -264 q 108 -235 94 -253 q 121 -176 122 -217 l 57 -176 l 57 -68 l 190 -68 l 190 -176 q 160 -265 190 -229 q 57 -319 131 -301 l 57 -264 z "},"̧":{"ha":0,"x_min":56,"x_max":349,"o":"m 204 -275 q 125 -263 164 -275 q 56 -232 86 -251 l 85 -197 q 182 -218 140 -218 q 234 -204 217 -218 q 251 -167 251 -190 q 197 -124 251 -124 q 167 -126 183 -124 q 140 -133 150 -129 l 124 -107 l 211 0 l 281 0 l 215 -76 l 215 -79 q 239 -78 222 -78 q 316 -100 283 -78 q 349 -168 349 -122 q 307 -249 349 -222 q 204 -275 265 -275 z "},"̨":{"ha":0,"x_min":56,"x_max":272,"o":"m 182 -246 q 88 -218 121 -246 q 56 -143 56 -190 q 88 -58 56 -97 q 161 0 119 -19 l 244 0 q 153 -119 153 -72 q 167 -151 153 -139 q 204 -162 182 -162 q 272 -149 240 -162 l 272 -232 q 182 -246 228 -246 z "},"̵":{"ha":0,"x_min":56,"x_max":622,"o":"m 56 563 l 622 563 l 622 465 l 56 465 l 56 563 z "},"̶":{"ha":0,"x_min":56,"x_max":750,"o":"m 56 563 l 750 563 l 750 438 l 56 438 l 56 563 z "},"̷":{"ha":0,"x_min":56,"x_max":789,"o":"m 56 36 l 740 724 l 789 675 l 103 -12 l 56 36 z "},"̸":{"ha":0,"x_min":56,"x_max":789,"o":"m 56 36 l 740 724 l 789 675 l 103 -12 l 56 36 z "},"Δ":{"ha":882,"x_min":29,"x_max":853,"o":"m 29 108 l 365 993 l 514 993 l 853 108 l 853 0 l 29 0 l 29 108 m 719 111 l 446 878 l 435 878 l 160 111 l 719 111 z "},"Ω":{"ha":1100,"x_min":51,"x_max":1049,"o":"m 51 111 l 265 111 q 127 278 179 172 q 75 517 75 383 q 135 768 75 654 q 304 947 196 882 q 550 1013 413 1013 q 796 947 688 1013 q 965 768 904 882 q 1025 517 1025 654 q 973 278 1025 383 q 835 111 921 172 l 1049 111 l 1049 0 l 647 0 l 649 93 q 830 250 765 157 q 894 499 894 343 q 853 710 894 619 q 734 849 811 800 q 550 899 657 899 q 366 849 443 899 q 247 710 289 800 q 206 499 206 619 q 270 250 206 343 q 451 93 335 157 l 453 0 l 51 0 l 51 111 z "},"μ":{"ha":746,"x_min":81,"x_max":665,"o":"m 81 708 l 192 708 l 192 242 q 229 122 192 167 q 349 78 267 78 q 497 131 439 78 q 554 267 554 185 l 554 708 l 665 708 l 665 0 l 554 0 l 554 85 l 551 85 q 465 11 521 42 q 335 -19 410 -19 q 192 24 249 -19 l 192 -246 l 81 -246 l 81 708 z "},"π":{"ha":763,"x_min":19,"x_max":721,"o":"m 132 611 l 19 611 l 19 708 l 721 708 l 721 611 l 617 611 l 617 185 q 630 110 617 129 q 681 90 643 90 q 719 94 699 90 l 719 0 q 642 -10 692 -10 q 564 7 593 -10 q 520 66 535 24 q 506 185 506 108 l 506 611 l 243 611 l 243 0 l 132 0 l 132 611 z "},"Ẁ":{"ha":1275,"x_min":22,"x_max":1253,"o":"m 22 993 l 154 993 l 343 179 l 346 179 l 568 993 l 707 993 l 929 179 l 932 179 l 1121 993 l 1253 993 l 1007 0 l 868 0 l 639 851 l 636 851 l 407 0 l 268 0 l 22 993 m 475 1292 l 607 1292 l 678 1106 l 588 1106 l 475 1292 z "},"ẁ":{"ha":1039,"x_min":15,"x_max":1025,"o":"m 15 708 l 140 708 l 303 125 l 306 125 l 461 708 l 582 708 l 738 125 l 740 125 l 904 708 l 1025 708 l 799 0 l 678 0 l 521 575 l 518 575 l 361 0 l 240 0 l 15 708 m 358 1007 l 490 1007 l 561 821 l 471 821 l 358 1007 z "},"Ẃ":{"ha":1275,"x_min":22,"x_max":1253,"o":"m 22 993 l 154 993 l 343 179 l 346 179 l 568 993 l 707 993 l 929 179 l 932 179 l 1121 993 l 1253 993 l 1007 0 l 868 0 l 639 851 l 636 851 l 407 0 l 268 0 l 22 993 m 663 1292 l 794 1292 l 668 1106 l 578 1106 l 663 1292 z "},"ẃ":{"ha":1039,"x_min":15,"x_max":1025,"o":"m 15 708 l 140 708 l 303 125 l 306 125 l 461 708 l 582 708 l 738 125 l 740 125 l 904 708 l 1025 708 l 799 0 l 678 0 l 521 575 l 518 575 l 361 0 l 240 0 l 15 708 m 546 1007 l 678 1007 l 551 821 l 461 821 l 546 1007 z "},"Ẅ":{"ha":1275,"x_min":22,"x_max":1253,"o":"m 22 993 l 154 993 l 343 179 l 346 179 l 568 993 l 707 993 l 929 179 l 932 179 l 1121 993 l 1253 993 l 1007 0 l 868 0 l 639 851 l 636 851 l 407 0 l 268 0 l 22 993 m 679 1264 l 813 1264 l 813 1131 l 679 1131 l 679 1264 m 463 1264 l 596 1264 l 596 1131 l 463 1131 l 463 1264 z "},"ẅ":{"ha":1039,"x_min":15,"x_max":1025,"o":"m 15 708 l 140 708 l 303 125 l 306 125 l 461 708 l 582 708 l 738 125 l 740 125 l 904 708 l 1025 708 l 799 0 l 678 0 l 521 575 l 518 575 l 361 0 l 240 0 l 15 708 m 563 979 l 696 979 l 696 846 l 563 846 l 563 979 m 346 979 l 479 979 l 479 846 l 346 846 l 346 979 z "},"Ỳ":{"ha":872,"x_min":13,"x_max":861,"o":"m 374 407 l 13 993 l 147 993 l 435 503 l 438 503 l 726 993 l 861 993 l 499 407 l 499 0 l 374 0 l 374 407 m 275 1292 l 407 1292 l 478 1106 l 388 1106 l 275 1292 z "},"ỳ":{"ha":683,"x_min":1,"x_max":675,"o":"m 154 -249 q 81 -242 121 -249 l 81 -147 q 136 -151 117 -151 q 227 -115 186 -151 q 289 7 268 -78 l 1 708 l 126 708 l 344 144 l 347 144 l 556 708 l 675 708 l 389 -21 q 283 -199 338 -150 q 154 -249 229 -249 m 176 1007 l 308 1007 l 379 821 l 289 821 l 176 1007 z "}," ":{"ha":694,"x_min":0,"x_max":0,"o":""}," ":{"ha":1389,"x_min":0,"x_max":0,"o":""}," ":{"ha":694,"x_min":0,"x_max":0,"o":""}," ":{"ha":1389,"x_min":0,"x_max":0,"o":""}," ":{"ha":463,"x_min":0,"x_max":0,"o":""}," ":{"ha":347,"x_min":0,"x_max":0,"o":""}," ":{"ha":232,"x_min":0,"x_max":0,"o":""}," ":{"ha":972,"x_min":0,"x_max":0,"o":""}," ":{"ha":264,"x_min":0,"x_max":0,"o":""}," ":{"ha":174,"x_min":0,"x_max":0,"o":""}," ":{"ha":58,"x_min":0,"x_max":0,"o":""},"​":{"ha":0,"x_min":0,"x_max":0,"o":""},"–":{"ha":811,"x_min":58,"x_max":753,"o":"m 58 410 l 753 410 l 753 299 l 58 299 l 58 410 z "},"—":{"ha":1503,"x_min":57,"x_max":1446,"o":"m 57 408 l 1446 408 l 1446 297 l 57 297 l 57 408 z "},"‘":{"ha":258,"x_min":60,"x_max":193,"o":"m 60 817 q 90 926 60 882 q 193 993 119 971 l 193 924 q 142 888 156 911 q 129 817 128 865 l 193 817 l 193 683 l 60 683 l 60 817 z "},"’":{"ha":247,"x_min":65,"x_max":199,"o":"m 65 753 q 117 788 103 765 q 129 860 131 811 l 65 860 l 65 993 l 199 993 l 199 860 q 169 750 199 794 q 65 683 139 706 l 65 753 z "},"‚":{"ha":271,"x_min":68,"x_max":201,"o":"m 68 -107 q 119 -72 106 -94 q 132 0 133 -49 l 68 0 l 68 133 l 201 133 l 201 0 q 172 -110 201 -65 q 68 -176 142 -154 l 68 -107 z "},"“":{"ha":463,"x_min":60,"x_max":397,"o":"m 264 817 q 294 926 264 882 q 397 993 324 971 l 397 924 q 346 888 360 911 q 333 817 332 865 l 397 817 l 397 683 l 264 683 l 264 817 m 60 817 q 90 926 60 882 q 193 993 119 971 l 193 924 q 142 888 156 911 q 129 817 128 865 l 193 817 l 193 683 l 60 683 l 60 817 z "},"”":{"ha":451,"x_min":65,"x_max":403,"o":"m 65 753 q 117 788 103 765 q 129 860 131 811 l 65 860 l 65 993 l 199 993 l 199 860 q 169 750 199 794 q 65 683 139 706 l 65 753 m 269 753 q 321 788 307 765 q 333 860 335 811 l 269 860 l 269 993 l 403 993 l 403 860 q 373 750 403 794 q 269 683 343 706 l 269 753 z "},"„":{"ha":476,"x_min":68,"x_max":407,"o":"m 274 -107 q 325 -72 311 -94 q 338 0 339 -49 l 274 0 l 274 133 l 407 133 l 407 0 q 377 -110 407 -65 q 274 -176 347 -154 l 274 -107 m 68 -107 q 119 -72 106 -94 q 132 0 133 -49 l 68 0 l 68 133 l 201 133 l 201 0 q 172 -110 201 -65 q 68 -176 142 -154 l 68 -107 z "},"†":{"ha":649,"x_min":18,"x_max":631,"o":"m 263 600 l 18 600 l 18 711 l 263 711 l 263 993 l 388 993 l 388 711 l 631 711 l 631 600 l 388 600 l 388 -246 l 263 -246 l 263 600 z "},"‡":{"ha":699,"x_min":43,"x_max":656,"o":"m 288 156 l 43 156 l 43 267 l 288 267 l 288 600 l 43 600 l 43 711 l 288 711 l 288 993 l 413 993 l 413 711 l 656 711 l 656 600 l 413 600 l 413 267 l 656 267 l 656 156 l 413 156 l 413 -246 l 288 -246 l 288 156 z "},"•":{"ha":522,"x_min":108,"x_max":414,"o":"m 108 569 l 414 569 l 414 264 l 108 264 l 108 569 z "},"…":{"ha":808,"x_min":65,"x_max":743,"o":"m 65 133 l 199 133 l 199 0 l 65 0 l 65 133 m 338 133 l 471 133 l 471 0 l 338 0 l 338 133 m 610 133 l 743 133 l 743 0 l 610 0 l 610 133 z "},"‰":{"ha":1633,"x_min":31,"x_max":1606,"o":"m 1378 -19 q 1209 59 1268 -19 q 1150 256 1150 138 q 1208 453 1150 375 q 1378 531 1265 531 q 1547 452 1488 531 q 1606 256 1606 374 q 1548 58 1606 136 q 1378 -19 1490 -19 m 31 704 q 88 901 31 824 q 258 979 146 979 q 427 901 368 979 q 486 704 486 822 q 428 507 486 585 q 258 429 371 429 q 90 508 149 429 q 31 704 31 586 m 132 704 q 164 572 132 621 q 258 522 196 522 q 353 572 321 522 q 385 704 385 621 q 353 837 385 788 q 258 886 321 886 q 164 837 196 886 q 132 704 132 788 m 778 960 l 889 960 l 354 0 l 243 0 l 778 960 m 647 256 q 705 453 647 375 q 875 531 763 531 q 1044 452 985 531 q 1103 256 1103 374 q 1045 58 1103 136 q 875 -19 988 -19 q 706 59 765 -19 q 647 256 647 138 m 749 256 q 781 123 749 172 q 875 74 813 74 q 969 123 938 74 q 1001 256 1001 172 q 969 388 1001 339 q 875 438 938 438 q 781 388 813 438 q 749 256 749 339 m 1251 256 q 1283 123 1251 172 q 1378 74 1315 74 q 1472 123 1440 74 q 1504 256 1504 172 q 1472 388 1504 339 q 1378 438 1440 438 q 1283 388 1315 438 q 1251 256 1251 339 z "},"‹":{"ha":410,"x_min":63,"x_max":339,"o":"m 63 288 l 63 419 l 339 643 l 339 518 l 126 354 l 126 351 l 339 189 l 339 63 l 63 288 z "},"›":{"ha":410,"x_min":71,"x_max":347,"o":"m 71 188 l 283 351 l 283 354 l 71 517 l 71 643 l 347 418 l 347 286 l 71 63 l 71 188 z "},"⁄":{"ha":278,"x_min":-242,"x_max":515,"o":"m 388 993 l 515 993 l -114 0 l -242 0 l 388 993 z "},"⁰":{"ha":549,"x_min":39,"x_max":510,"o":"m 275 501 q 99 584 158 501 q 39 794 39 667 q 99 1006 39 922 q 275 1089 158 1089 q 451 1005 392 1089 q 510 794 510 921 q 451 585 510 668 q 275 501 392 501 m 150 794 q 275 589 150 589 q 399 794 399 589 q 275 1001 399 1001 q 150 794 150 1001 z "},"⁴":{"ha":514,"x_min":31,"x_max":483,"o":"m 293 631 l 31 631 l 31 735 l 293 1069 l 403 1069 l 403 721 l 483 721 l 483 631 l 403 631 l 403 506 l 293 506 l 293 631 m 293 721 l 293 942 l 121 721 l 293 721 z "},"⁵":{"ha":507,"x_min":31,"x_max":468,"o":"m 256 493 q 93 543 153 493 q 31 675 33 593 l 143 675 q 175 608 147 633 q 250 583 203 583 q 327 613 299 583 q 356 699 356 643 q 329 778 356 751 q 253 806 303 806 q 149 760 189 806 l 43 760 l 104 1069 l 440 1069 l 440 979 l 185 979 l 157 843 l 157 842 q 283 888 206 888 q 417 835 365 888 q 468 697 468 782 q 408 548 468 603 q 256 493 347 493 z "},"⁶":{"ha":521,"x_min":40,"x_max":483,"o":"m 272 497 q 95 576 150 497 q 40 789 40 656 q 101 1010 40 932 q 271 1088 163 1088 q 402 1043 349 1088 q 467 932 456 999 l 354 932 q 328 982 350 964 q 269 1000 307 1000 q 151 832 151 1000 l 151 825 l 154 824 q 293 888 200 888 q 431 834 378 888 q 483 697 483 781 q 426 553 483 610 q 272 497 368 497 m 160 692 q 188 615 160 644 q 267 585 217 585 q 345 615 317 585 q 374 692 374 644 q 346 771 374 742 q 271 800 318 800 q 190 770 219 800 q 160 692 160 740 z "},"⁷":{"ha":440,"x_min":14,"x_max":418,"o":"m 100 506 q 128 686 100 593 q 203 856 157 779 q 300 978 249 933 l 300 979 l 14 979 l 14 1069 l 418 1069 l 418 988 q 270 776 325 910 q 215 506 215 643 l 100 506 z "},"⁸":{"ha":519,"x_min":36,"x_max":483,"o":"m 260 500 q 99 545 161 500 q 36 672 36 590 q 143 814 36 768 l 143 815 q 63 936 63 858 q 118 1049 63 1007 q 260 1090 174 1090 q 401 1049 346 1090 q 457 936 457 1007 q 378 815 457 860 l 378 814 q 483 672 483 768 q 421 545 483 590 q 260 500 358 500 m 146 681 q 176 612 146 638 q 260 586 207 586 q 343 612 313 586 q 374 681 374 638 q 343 748 374 722 q 260 774 313 774 q 176 748 207 774 q 146 681 146 722 m 165 929 q 190 871 165 892 q 260 850 215 850 q 329 871 306 850 q 353 929 353 892 q 328 988 353 967 q 260 1008 304 1008 q 190 987 215 1008 q 165 929 165 965 z "},"⁹":{"ha":518,"x_min":38,"x_max":478,"o":"m 249 501 q 117 546 171 501 q 53 657 64 590 l 165 657 q 250 588 176 588 q 342 633 314 588 q 369 753 369 679 l 369 764 l 368 764 q 308 717 344 735 q 226 700 271 700 q 90 753 143 700 q 38 890 38 807 q 94 1035 38 979 q 247 1092 151 1092 q 423 1012 368 1092 q 478 800 478 932 q 417 579 478 657 q 249 501 356 501 m 146 896 q 174 817 146 847 q 249 788 201 788 q 332 818 301 788 q 363 897 363 849 q 333 975 363 946 q 251 1004 304 1004 q 174 974 201 1004 q 146 896 146 944 z "},"₀":{"ha":549,"x_min":39,"x_max":510,"o":"m 275 -150 q 99 -67 158 -150 q 39 143 39 15 q 99 354 39 271 q 275 438 158 438 q 451 353 392 438 q 510 143 510 269 q 451 -67 510 17 q 275 -150 392 -150 m 150 143 q 275 -62 150 -62 q 399 143 399 -62 q 275 350 399 350 q 150 143 150 350 z "},"₁":{"ha":314,"x_min":18,"x_max":247,"o":"m 138 261 q 18 239 108 239 l 18 326 q 121 351 86 328 q 157 425 156 375 l 247 425 l 247 -139 l 138 -139 l 138 261 z "},"₂":{"ha":488,"x_min":28,"x_max":447,"o":"m 28 -139 q 60 -20 28 -69 q 158 78 93 29 l 215 117 q 306 188 278 158 q 335 264 335 218 q 315 325 335 301 q 250 349 294 349 q 147 224 147 349 l 40 224 q 95 378 40 318 q 254 439 150 439 q 394 394 342 439 q 447 271 447 350 q 426 183 447 221 q 373 117 404 144 q 288 54 342 90 q 215 1 242 24 q 175 -47 189 -21 l 175 -49 l 443 -49 l 443 -139 l 28 -139 z "},"₃":{"ha":514,"x_min":31,"x_max":475,"o":"m 265 -151 q 92 -97 153 -151 q 31 57 31 -43 l 139 57 q 167 -31 139 -1 q 257 -61 194 -61 q 361 24 361 -61 q 254 113 361 113 l 211 113 l 211 194 l 251 194 q 344 269 344 194 q 322 328 344 307 q 257 349 300 349 q 179 324 204 349 q 154 254 154 299 l 47 254 q 104 388 47 336 q 264 439 161 439 q 399 397 343 439 q 456 282 456 354 q 371 160 456 197 l 371 158 q 475 19 475 126 q 417 -106 475 -61 q 265 -151 360 -151 z "},"₄":{"ha":514,"x_min":31,"x_max":483,"o":"m 293 -14 l 31 -14 l 31 90 l 293 425 l 403 425 l 403 76 l 483 76 l 483 -14 l 403 -14 l 403 -139 l 293 -139 l 293 -14 m 293 76 l 293 297 l 121 76 l 293 76 z "},"₅":{"ha":507,"x_min":31,"x_max":468,"o":"m 256 -151 q 93 -101 153 -151 q 31 31 33 -51 l 143 31 q 175 -36 147 -11 q 250 -61 203 -61 q 327 -31 299 -61 q 356 54 356 -1 q 329 134 356 107 q 253 161 303 161 q 149 115 189 161 l 43 115 l 104 425 l 440 425 l 440 335 l 185 335 l 157 199 l 157 197 q 283 243 206 243 q 417 190 365 243 q 468 53 468 138 q 408 -97 468 -42 q 256 -151 347 -151 z "},"₆":{"ha":521,"x_min":40,"x_max":483,"o":"m 272 -151 q 95 -72 150 -151 q 40 140 40 7 q 101 361 40 283 q 271 439 163 439 q 402 394 349 439 q 467 283 456 350 l 354 283 q 328 333 350 315 q 269 351 307 351 q 151 183 151 351 l 151 176 l 154 175 q 293 239 200 239 q 431 185 378 239 q 483 49 483 132 q 426 -95 483 -39 q 272 -151 368 -151 m 160 43 q 188 -34 160 -4 q 267 -64 217 -64 q 345 -34 317 -64 q 374 43 374 -4 q 346 122 374 93 q 271 151 318 151 q 190 122 219 151 q 160 43 160 92 z "},"₇":{"ha":440,"x_min":14,"x_max":418,"o":"m 100 -139 q 128 42 100 -51 q 203 212 157 135 q 300 333 249 289 l 300 335 l 14 335 l 14 425 l 418 425 l 418 343 q 270 132 325 265 q 215 -139 215 -1 l 100 -139 z "},"₈":{"ha":519,"x_min":36,"x_max":483,"o":"m 260 -151 q 99 -106 161 -151 q 36 21 36 -61 q 143 163 36 117 l 143 164 q 63 285 63 207 q 118 397 63 356 q 260 439 174 439 q 401 397 346 439 q 457 285 457 356 q 378 164 457 208 l 378 163 q 483 21 483 117 q 421 -106 483 -61 q 260 -151 358 -151 m 146 29 q 176 -40 146 -14 q 260 -65 207 -65 q 343 -40 313 -65 q 374 29 374 -14 q 343 97 374 71 q 260 122 313 122 q 176 97 207 122 q 146 29 146 71 m 165 278 q 190 219 165 240 q 260 199 215 199 q 329 219 306 199 q 353 278 353 240 q 328 336 353 315 q 260 357 304 357 q 190 335 215 357 q 165 278 165 314 z "},"₉":{"ha":518,"x_min":38,"x_max":478,"o":"m 249 -151 q 117 -107 171 -151 q 53 4 64 -62 l 165 4 q 250 -65 176 -65 q 342 -19 314 -65 q 369 100 369 26 l 369 111 l 368 111 q 308 65 344 82 q 226 47 271 47 q 90 101 143 47 q 38 238 38 154 q 94 383 38 326 q 247 439 151 439 q 423 359 368 439 q 478 147 478 279 q 417 -74 478 4 q 249 -151 356 -151 m 146 243 q 174 165 146 194 q 249 135 201 135 q 332 165 301 135 q 363 244 363 196 q 333 322 363 293 q 251 351 304 351 q 174 322 201 351 q 146 243 146 292 z "},"€":{"ha":911,"x_min":69,"x_max":854,"o":"m 519 -19 q 278 80 374 -19 q 157 351 183 179 l 69 351 l 69 435 l 150 435 q 149 476 149 449 q 150 514 149 501 l 69 514 l 69 597 l 157 597 q 278 871 182 771 q 519 971 374 971 q 750 879 664 971 q 854 638 836 788 l 729 638 q 666 797 711 733 q 519 860 621 860 q 360 788 418 860 q 282 597 301 717 l 558 597 l 558 514 l 275 514 q 274 476 274 501 q 275 435 274 449 l 558 435 l 558 351 l 283 351 q 361 163 303 233 q 519 92 419 92 q 674 163 625 92 q 729 344 722 235 l 854 344 q 753 78 838 175 q 519 -19 668 -19 z "},"™":{"ha":907,"x_min":28,"x_max":824,"o":"m 407 993 l 531 993 l 614 714 l 615 714 l 701 993 l 824 993 l 824 604 l 742 604 l 742 892 l 739 892 l 653 604 l 576 604 l 492 892 l 489 892 l 489 604 l 407 604 l 407 993 m 28 993 l 358 993 l 358 918 l 236 918 l 236 604 l 150 604 l 150 918 l 28 918 l 28 993 z "},"Ω":{"ha":1100,"x_min":51,"x_max":1049,"o":"m 51 111 l 265 111 q 127 278 179 172 q 75 517 75 383 q 135 768 75 654 q 304 947 196 882 q 550 1013 413 1013 q 796 947 688 1013 q 965 768 904 882 q 1025 517 1025 654 q 973 278 1025 383 q 835 111 921 172 l 1049 111 l 1049 0 l 647 0 l 649 93 q 830 250 765 157 q 894 499 894 343 q 853 710 894 619 q 734 849 811 800 q 550 899 657 899 q 366 849 443 899 q 247 710 289 800 q 206 499 206 619 q 270 250 206 343 q 451 93 335 157 l 453 0 l 51 0 l 51 111 z "},"⅛":{"ha":1063,"x_min":26,"x_max":1031,"o":"m 146 829 q 26 807 117 807 l 26 894 q 129 919 94 896 q 165 993 164 943 l 256 993 l 256 429 l 146 429 l 146 829 m 717 993 l 844 993 l 215 0 l 88 0 l 717 993 m 807 -12 q 646 33 708 -12 q 583 160 583 78 q 690 301 583 256 l 690 303 q 610 424 610 346 q 665 536 610 494 q 807 578 721 578 q 949 536 893 578 q 1004 424 1004 494 q 925 303 1004 347 l 925 301 q 1031 160 1031 256 q 968 33 1031 78 q 807 -12 906 -12 m 693 168 q 724 99 693 125 q 807 74 754 74 q 890 99 860 74 q 921 168 921 125 q 890 235 921 210 q 807 261 860 261 q 724 235 754 261 q 693 168 693 210 m 713 417 q 738 358 713 379 q 807 338 763 338 q 876 358 853 338 q 900 417 900 379 q 876 475 900 454 q 807 496 851 496 q 738 474 763 496 q 713 417 713 453 z "},"⅜":{"ha":1264,"x_min":42,"x_max":1226,"o":"m 276 418 q 103 472 164 418 q 42 626 42 526 l 150 626 q 178 538 150 568 q 268 508 206 508 q 372 593 372 508 q 265 682 372 682 l 222 682 l 222 764 l 263 764 q 356 839 356 764 q 333 897 356 876 q 268 918 311 918 q 190 893 215 918 q 165 824 165 868 l 58 824 q 115 957 58 906 q 275 1008 172 1008 q 410 966 354 1008 q 467 851 467 924 q 382 729 467 767 l 382 728 q 486 589 486 696 q 428 463 486 508 q 276 418 371 418 m 913 993 l 1040 993 l 411 0 l 283 0 l 913 993 m 1003 -12 q 842 33 904 -12 q 779 160 779 78 q 886 301 779 256 l 886 303 q 806 424 806 346 q 861 536 806 494 q 1003 578 917 578 q 1144 536 1089 578 q 1200 424 1200 494 q 1121 303 1200 347 l 1121 301 q 1226 160 1226 256 q 1164 33 1226 78 q 1003 -12 1101 -12 m 889 168 q 919 99 889 125 q 1003 74 950 74 q 1086 99 1056 74 q 1117 168 1117 125 q 1086 235 1117 210 q 1003 261 1056 261 q 919 235 950 261 q 889 168 889 210 m 908 417 q 933 358 908 379 q 1003 338 958 338 q 1072 358 1049 338 q 1096 417 1096 379 q 1072 475 1096 454 q 1003 496 1047 496 q 933 474 958 496 q 908 417 908 453 z "},"⅝":{"ha":1232,"x_min":32,"x_max":1199,"o":"m 257 417 q 94 467 154 417 q 32 599 35 517 l 144 599 q 176 532 149 557 q 251 507 204 507 q 328 537 300 507 q 357 622 357 567 q 331 702 357 675 q 254 729 304 729 q 150 683 190 729 l 44 683 l 106 993 l 442 993 l 442 903 l 186 903 l 158 767 l 158 765 q 285 811 207 811 q 418 758 367 811 q 469 621 469 706 q 409 472 469 526 q 257 417 349 417 m 885 993 l 1013 993 l 383 0 l 256 0 l 885 993 m 975 -12 q 814 33 876 -12 q 751 160 751 78 q 858 301 751 256 l 858 303 q 778 424 778 346 q 833 536 778 494 q 975 578 889 578 q 1117 536 1061 578 q 1172 424 1172 494 q 1093 303 1172 347 l 1093 301 q 1199 160 1199 256 q 1136 33 1199 78 q 975 -12 1074 -12 m 861 168 q 892 99 861 125 q 975 74 922 74 q 1058 99 1028 74 q 1089 168 1089 125 q 1058 235 1089 210 q 975 261 1028 261 q 892 235 922 261 q 861 168 861 210 m 881 417 q 906 358 881 379 q 975 338 931 338 q 1044 358 1021 338 q 1068 417 1068 379 q 1044 475 1068 454 q 975 496 1019 496 q 906 474 931 496 q 881 417 881 453 z "},"⅞":{"ha":1115,"x_min":21,"x_max":1083,"o":"m 107 429 q 135 610 107 517 q 210 780 164 703 q 307 901 256 857 l 307 903 l 21 903 l 21 993 l 425 993 l 425 911 q 277 700 332 833 q 222 429 222 567 l 107 429 m 742 993 l 869 993 l 240 0 l 113 0 l 742 993 m 860 -12 q 699 33 761 -12 q 636 160 636 78 q 743 301 636 256 l 743 303 q 663 424 663 346 q 718 536 663 494 q 860 578 774 578 q 1001 536 946 578 q 1057 424 1057 494 q 978 303 1057 347 l 978 301 q 1083 160 1083 256 q 1021 33 1083 78 q 860 -12 958 -12 m 746 168 q 776 99 746 125 q 860 74 807 74 q 943 99 913 74 q 974 168 974 125 q 943 235 974 210 q 860 261 913 261 q 776 235 807 261 q 746 168 746 210 m 765 417 q 790 358 765 379 q 860 338 815 338 q 929 358 906 338 q 953 417 953 379 q 928 475 953 454 q 860 496 904 496 q 790 474 815 496 q 765 417 765 453 z "},"←":{"ha":1086,"x_min":60,"x_max":1019,"o":"m 60 443 l 407 818 l 482 750 l 239 492 l 1019 492 l 1019 394 l 239 394 l 482 136 l 407 68 l 60 443 z "},"↑":{"ha":806,"x_min":28,"x_max":778,"o":"m 354 781 l 96 538 l 28 613 l 403 960 l 778 613 l 710 538 l 451 781 l 451 0 l 354 0 l 354 781 z "},"→":{"ha":1086,"x_min":67,"x_max":1026,"o":"m 604 136 l 847 394 l 67 394 l 67 492 l 847 492 l 604 750 l 679 818 l 1026 443 l 679 68 l 604 136 z "},"↓":{"ha":808,"x_min":29,"x_max":779,"o":"m 29 292 l 97 367 l 356 124 l 356 904 l 453 904 l 453 124 l 711 367 l 779 292 l 404 -56 l 29 292 z "},"↔":{"ha":1614,"x_min":57,"x_max":1557,"o":"m 57 443 l 404 818 l 479 750 l 236 492 l 1378 492 l 1135 750 l 1210 818 l 1557 443 l 1210 68 l 1135 136 l 1378 394 l 236 394 l 479 136 l 404 68 l 57 443 z "},"↕":{"ha":819,"x_min":35,"x_max":785,"o":"m 35 101 l 103 176 l 361 -67 l 361 913 l 103 669 l 35 744 l 410 1092 l 785 744 l 717 669 l 458 913 l 458 -67 l 717 176 l 785 101 l 410 -246 l 35 101 z "},"↖":{"ha":821,"x_min":69,"x_max":786,"o":"m 167 650 l 167 301 l 69 301 l 69 815 l 583 815 l 583 718 l 235 718 l 786 167 l 718 97 l 167 650 z "},"↗":{"ha":821,"x_min":35,"x_max":751,"o":"m 35 167 l 586 718 l 238 718 l 238 815 l 751 815 l 751 301 l 654 301 l 654 650 l 103 97 l 35 167 z "},"↘":{"ha":838,"x_min":38,"x_max":754,"o":"m 240 176 l 589 176 l 38 728 l 106 797 l 657 244 l 657 593 l 754 593 l 754 79 l 240 79 l 240 176 z "},"↙":{"ha":838,"x_min":83,"x_max":800,"o":"m 83 593 l 181 593 l 181 244 l 732 797 l 800 728 l 249 176 l 597 176 l 597 79 l 83 79 l 83 593 z "},"∂":{"ha":724,"x_min":29,"x_max":669,"o":"m 313 -19 q 164 19 228 -19 q 65 131 100 58 q 29 301 29 203 q 70 474 29 393 q 184 605 111 556 q 349 654 257 654 q 473 626 421 654 q 558 539 525 599 q 437 783 525 701 q 196 896 349 864 l 196 993 q 550 806 431 953 q 669 439 669 658 q 632 210 669 314 q 514 44 594 107 q 313 -19 433 -19 m 140 289 q 193 134 140 190 q 329 78 246 78 q 497 153 435 78 q 558 344 558 229 q 507 497 558 436 q 368 557 456 557 q 247 522 299 557 q 168 424 196 486 q 140 289 140 363 z "},"∅":{"ha":1164,"x_min":71,"x_max":1094,"o":"m 583 -19 q 401 10 488 -19 q 246 94 314 40 l 157 6 l 108 54 l 196 142 q 103 294 136 208 q 71 479 71 379 q 139 739 71 625 q 324 916 207 853 q 583 979 440 979 q 765 950 679 979 q 919 865 851 921 l 1010 956 l 1058 906 l 969 817 q 1062 665 1029 750 q 1094 479 1094 579 q 1027 220 1094 333 q 843 44 960 107 q 583 -19 726 -19 m 140 479 q 168 323 140 396 q 247 193 196 250 l 868 814 q 737 885 810 860 q 583 910 664 910 q 360 855 461 910 q 199 702 258 800 q 140 479 140 604 m 297 146 q 429 75 356 100 q 583 50 503 50 q 806 105 704 50 q 966 258 907 160 q 1025 479 1025 356 q 997 637 1025 564 q 919 767 969 710 l 297 146 z "},"∆":{"ha":879,"x_min":28,"x_max":851,"o":"m 28 108 l 364 993 l 513 993 l 851 108 l 851 0 l 28 0 l 28 108 m 718 111 l 444 878 l 433 878 l 158 111 l 718 111 z "},"∏":{"ha":985,"x_min":103,"x_max":882,"o":"m 103 993 l 882 993 l 882 -139 l 757 -139 l 757 882 l 228 882 l 228 -139 l 103 -139 l 103 993 z "},"∑":{"ha":829,"x_min":43,"x_max":790,"o":"m 43 -24 l 428 438 l 428 440 l 43 879 l 43 993 l 776 993 l 776 882 l 189 882 l 189 879 l 533 478 l 533 408 l 179 -25 l 179 -28 l 790 -28 l 790 -139 l 43 -139 l 43 -24 z "},"−":{"ha":767,"x_min":68,"x_max":699,"o":"m 68 507 l 699 507 l 699 397 l 68 397 l 68 507 z "},"∙":{"ha":408,"x_min":138,"x_max":271,"o":"m 138 547 l 271 547 l 271 414 l 138 414 l 138 547 z "},"√":{"ha":857,"x_min":60,"x_max":831,"o":"m 163 325 l 60 325 l 60 436 l 242 436 l 382 17 l 385 17 l 706 993 l 831 993 l 439 -139 l 328 -139 l 163 325 z "},"∞":{"ha":1021,"x_min":63,"x_max":958,"o":"m 260 182 q 163 209 207 182 q 90 290 118 236 q 63 422 63 344 q 90 556 63 501 q 163 637 118 610 q 260 664 207 664 q 363 641 317 664 q 440 590 410 618 q 510 514 469 561 l 513 514 q 583 590 554 561 q 658 641 613 618 q 761 664 704 664 q 858 637 814 664 q 931 556 903 610 q 958 422 958 501 q 931 290 958 344 q 858 209 903 236 q 761 182 814 182 q 636 220 688 182 q 553 297 585 258 q 513 346 521 336 l 510 346 q 461 288 501 336 q 369 211 421 240 q 260 182 317 182 m 174 424 q 203 326 174 358 q 283 294 233 294 q 349 315 318 294 q 398 355 381 335 q 454 424 415 375 q 419 469 449 431 q 353 531 389 507 q 283 554 318 554 q 203 522 233 554 q 174 424 174 489 m 567 424 q 602 378 572 417 q 667 317 632 340 q 738 294 703 294 q 817 326 788 294 q 847 424 847 358 q 817 522 847 489 q 738 554 788 554 q 672 534 703 554 q 625 494 642 514 q 567 424 608 475 z "},"∫":{"ha":507,"x_min":19,"x_max":486,"o":"m 118 -243 q 19 -229 61 -243 l 19 -118 q 68 -124 43 -124 q 163 -83 136 -124 q 190 35 190 -43 l 190 794 q 240 963 190 899 q 388 1026 290 1026 q 486 1013 444 1026 l 486 901 q 438 907 463 907 q 315 749 315 907 l 315 -11 q 265 -179 315 -115 q 118 -243 215 -243 z "},"≈":{"ha":813,"x_min":82,"x_max":736,"o":"m 82 454 q 119 565 82 517 q 240 614 156 614 q 338 603 285 614 q 401 590 392 592 q 491 572 456 578 q 561 565 526 565 q 622 579 606 565 q 639 628 639 593 l 736 628 q 699 517 736 565 q 578 468 663 468 q 482 478 535 468 q 418 492 429 489 q 328 510 365 504 q 257 517 292 517 q 196 503 213 517 q 179 454 179 489 l 82 454 m 82 236 q 119 347 82 299 q 240 396 156 396 q 338 385 285 396 q 401 372 392 374 q 491 353 456 360 q 561 347 526 347 q 622 361 606 347 q 639 410 639 375 l 736 410 q 699 299 736 347 q 578 250 663 250 q 482 260 535 250 q 418 274 429 271 q 328 292 365 286 q 257 299 292 299 q 196 285 213 299 q 179 236 179 271 l 82 236 z "},"≠":{"ha":763,"x_min":78,"x_max":696,"o":"m 267 300 l 78 300 l 78 410 l 318 410 l 358 496 l 78 496 l 78 606 l 410 606 l 483 763 l 581 763 l 507 606 l 696 606 l 696 496 l 456 496 l 415 410 l 696 410 l 696 300 l 364 300 l 290 144 l 193 144 l 267 300 z "},"≤":{"ha":693,"x_min":60,"x_max":625,"o":"m 60 376 l 60 501 l 625 731 l 625 619 l 150 440 l 150 438 l 625 260 l 625 149 l 60 376 m 60 97 l 625 97 l 625 0 l 60 0 l 60 97 z "},"≥":{"ha":693,"x_min":68,"x_max":633,"o":"m 68 260 l 543 438 l 543 440 l 68 619 l 68 731 l 633 501 l 633 376 l 68 149 l 68 260 m 68 97 l 633 97 l 633 0 l 68 0 l 68 97 z "},"≦":{"ha":782,"x_min":76,"x_max":694,"o":"m 76 583 l 76 719 l 694 942 l 694 825 l 182 653 l 182 650 l 694 479 l 694 363 l 76 583 m 76 110 l 694 110 l 694 0 l 76 0 l 76 110 m 76 306 l 694 306 l 694 196 l 76 196 l 76 306 z "},"≧":{"ha":782,"x_min":88,"x_max":706,"o":"m 88 479 l 600 650 l 600 653 l 88 825 l 88 942 l 706 719 l 706 583 l 88 363 l 88 479 m 88 110 l 706 110 l 706 0 l 88 0 l 88 110 m 88 306 l 706 306 l 706 196 l 88 196 l 88 306 z "},"①":{"ha":1175,"x_min":68,"x_max":1107,"o":"m 589 -19 q 313 43 431 -19 q 132 222 196 106 q 68 496 68 339 q 132 769 68 653 q 313 949 196 886 q 589 1013 431 1013 q 863 950 746 1013 q 1044 770 981 888 q 1107 496 1107 653 q 1044 222 1107 339 q 863 43 981 106 q 589 -19 746 -19 m 179 496 q 229 274 179 368 q 372 128 279 179 q 589 78 465 78 q 803 128 711 78 q 946 274 896 179 q 996 496 996 368 q 946 719 996 624 q 803 865 896 814 q 589 915 711 915 q 372 865 465 915 q 229 719 279 814 q 179 496 179 624 m 551 615 q 432 593 522 593 l 432 681 q 535 706 500 682 q 571 779 569 729 l 661 779 l 661 215 l 551 215 l 551 615 z "},"②":{"ha":1175,"x_min":68,"x_max":1107,"o":"m 589 -19 q 313 43 431 -19 q 132 222 196 106 q 68 496 68 339 q 132 769 68 653 q 313 949 196 886 q 589 1013 431 1013 q 863 950 746 1013 q 1044 770 981 888 q 1107 496 1107 653 q 1044 222 1107 339 q 863 43 981 106 q 589 -19 746 -19 m 179 496 q 229 274 179 368 q 372 128 279 179 q 589 78 465 78 q 803 128 711 78 q 946 274 896 179 q 996 496 996 368 q 946 719 996 624 q 803 865 896 814 q 589 915 711 915 q 372 865 465 915 q 229 719 279 814 q 179 496 179 624 m 378 215 q 410 334 378 285 q 508 432 443 383 l 565 471 q 656 542 628 513 q 685 618 685 572 q 665 679 685 656 q 600 703 644 703 q 497 578 497 703 l 390 578 q 445 733 390 672 q 604 793 500 793 q 744 749 692 793 q 797 625 797 704 q 776 537 797 575 q 723 472 754 499 q 638 408 692 444 q 565 356 592 378 q 525 307 539 333 l 525 306 l 793 306 l 793 215 l 378 215 z "},"③":{"ha":1175,"x_min":68,"x_max":1107,"o":"m 589 -19 q 313 43 431 -19 q 132 222 196 106 q 68 496 68 339 q 132 769 68 653 q 313 949 196 886 q 589 1013 431 1013 q 863 950 746 1013 q 1044 770 981 888 q 1107 496 1107 653 q 1044 222 1107 339 q 863 43 981 106 q 589 -19 746 -19 m 179 496 q 229 274 179 368 q 372 128 279 179 q 589 78 465 78 q 803 128 711 78 q 946 274 896 179 q 996 496 996 368 q 946 719 996 624 q 803 865 896 814 q 589 915 711 915 q 372 865 465 915 q 229 719 279 814 q 179 496 179 624 m 600 201 q 426 256 488 201 q 365 410 365 310 l 474 410 q 501 322 474 351 q 592 292 529 292 q 696 376 696 292 q 589 465 696 465 l 546 465 l 546 547 l 586 547 q 679 622 679 547 q 657 681 679 660 q 592 701 635 701 q 514 676 539 701 q 489 607 489 651 l 382 607 q 439 740 382 689 q 599 792 496 792 q 734 749 678 792 q 790 635 790 707 q 706 513 790 550 l 706 511 q 810 372 810 479 q 752 247 810 292 q 600 201 694 201 z "},"④":{"ha":1175,"x_min":68,"x_max":1107,"o":"m 589 -19 q 313 43 431 -19 q 132 222 196 106 q 68 496 68 339 q 132 769 68 653 q 313 949 196 886 q 589 1013 431 1013 q 863 950 746 1013 q 1044 770 981 888 q 1107 496 1107 653 q 1044 222 1107 339 q 863 43 981 106 q 589 -19 746 -19 m 179 496 q 229 274 179 368 q 372 128 279 179 q 589 78 465 78 q 803 128 711 78 q 946 274 896 179 q 996 496 996 368 q 946 719 996 624 q 803 865 896 814 q 589 915 711 915 q 372 865 465 915 q 229 719 279 814 q 179 496 179 624 m 610 339 l 347 339 l 347 443 l 610 778 l 719 778 l 719 429 l 800 429 l 800 339 l 719 339 l 719 214 l 610 214 l 610 339 m 610 429 l 610 650 l 438 429 l 610 429 z "},"⑤":{"ha":1175,"x_min":68,"x_max":1107,"o":"m 589 -19 q 313 43 431 -19 q 132 222 196 106 q 68 496 68 339 q 132 769 68 653 q 313 949 196 886 q 589 1013 431 1013 q 863 950 746 1013 q 1044 770 981 888 q 1107 496 1107 653 q 1044 222 1107 339 q 863 43 981 106 q 589 -19 746 -19 m 179 496 q 229 274 179 368 q 372 128 279 179 q 589 78 465 78 q 803 128 711 78 q 946 274 896 179 q 996 496 996 368 q 946 719 996 624 q 803 865 896 814 q 589 915 711 915 q 372 865 465 915 q 229 719 279 814 q 179 496 179 624 m 594 201 q 432 251 492 201 q 369 383 372 301 l 482 383 q 514 317 486 342 q 589 292 542 292 q 666 322 638 292 q 694 407 694 351 q 668 487 694 460 q 592 514 642 514 q 488 468 528 514 l 382 468 l 443 778 l 779 778 l 779 688 l 524 688 l 496 551 l 496 550 q 622 596 544 596 q 756 543 704 596 q 807 406 807 490 q 747 256 807 311 q 594 201 686 201 z "},"⑥":{"ha":1175,"x_min":68,"x_max":1107,"o":"m 589 -19 q 313 43 431 -19 q 132 222 196 106 q 68 496 68 339 q 132 769 68 653 q 313 949 196 886 q 589 1013 431 1013 q 863 950 746 1013 q 1044 770 981 888 q 1107 496 1107 653 q 1044 222 1107 339 q 863 43 981 106 q 589 -19 746 -19 m 179 496 q 229 274 179 368 q 372 128 279 179 q 589 78 465 78 q 803 128 711 78 q 946 274 896 179 q 996 496 996 368 q 946 719 996 624 q 803 865 896 814 q 589 915 711 915 q 372 865 465 915 q 229 719 279 814 q 179 496 179 624 m 599 201 q 422 281 476 201 q 367 493 367 360 q 428 714 367 636 q 597 792 489 792 q 728 747 675 792 q 793 636 782 703 l 681 636 q 655 686 676 668 q 596 704 633 704 q 478 536 478 704 l 478 529 l 481 528 q 619 592 526 592 q 757 538 704 592 q 810 401 810 485 q 752 258 810 314 q 599 201 694 201 m 486 396 q 515 319 486 349 q 593 289 543 289 q 672 319 643 289 q 700 396 700 349 q 672 475 700 446 q 597 504 644 504 q 516 474 546 504 q 486 396 486 444 z "},"⑦":{"ha":1175,"x_min":68,"x_max":1107,"o":"m 589 -19 q 313 43 431 -19 q 132 222 196 106 q 68 496 68 339 q 132 769 68 653 q 313 949 196 886 q 589 1013 431 1013 q 863 950 746 1013 q 1044 770 981 888 q 1107 496 1107 653 q 1044 222 1107 339 q 863 43 981 106 q 589 -19 746 -19 m 179 496 q 229 274 179 368 q 372 128 279 179 q 589 78 465 78 q 803 128 711 78 q 946 274 896 179 q 996 496 996 368 q 946 719 996 624 q 803 865 896 814 q 589 915 711 915 q 372 865 465 915 q 229 719 279 814 q 179 496 179 624 m 472 199 q 501 379 472 286 q 575 549 529 472 q 672 671 621 626 l 672 672 l 386 672 l 386 763 l 790 763 l 790 681 q 642 469 697 603 q 588 199 588 336 l 472 199 z "},"⑧":{"ha":1175,"x_min":68,"x_max":1107,"o":"m 589 -19 q 313 43 431 -19 q 132 222 196 106 q 68 496 68 339 q 132 769 68 653 q 313 949 196 886 q 589 1013 431 1013 q 863 950 746 1013 q 1044 770 981 888 q 1107 496 1107 653 q 1044 222 1107 339 q 863 43 981 106 q 589 -19 746 -19 m 179 496 q 229 274 179 368 q 372 128 279 179 q 589 78 465 78 q 803 128 711 78 q 946 274 896 179 q 996 496 996 368 q 946 719 996 624 q 803 865 896 814 q 589 915 711 915 q 372 865 465 915 q 229 719 279 814 q 179 496 179 624 m 588 201 q 426 247 489 201 q 364 374 364 292 q 471 515 364 469 l 471 517 q 390 638 390 560 q 446 750 390 708 q 588 792 501 792 q 729 750 674 792 q 785 638 785 708 q 706 517 785 561 l 706 515 q 811 374 811 469 q 749 247 811 292 q 588 201 686 201 m 474 382 q 504 313 474 339 q 588 288 535 288 q 671 313 640 288 q 701 382 701 339 q 671 449 701 424 q 588 475 640 475 q 504 449 535 475 q 474 382 474 424 m 493 631 q 518 572 493 593 q 588 551 543 551 q 657 572 633 551 q 681 631 681 593 q 656 689 681 668 q 588 710 632 710 q 518 688 543 710 q 493 631 493 667 z "},"⑨":{"ha":1175,"x_min":68,"x_max":1107,"o":"m 589 -19 q 313 43 431 -19 q 132 222 196 106 q 68 496 68 339 q 132 769 68 653 q 313 949 196 886 q 589 1013 431 1013 q 863 950 746 1013 q 1044 770 981 888 q 1107 496 1107 653 q 1044 222 1107 339 q 863 43 981 106 q 589 -19 746 -19 m 179 496 q 229 274 179 368 q 372 128 279 179 q 589 78 465 78 q 803 128 711 78 q 946 274 896 179 q 996 496 996 368 q 946 719 996 624 q 803 865 896 814 q 589 915 711 915 q 372 865 465 915 q 229 719 279 814 q 179 496 179 624 m 579 201 q 448 246 501 201 q 383 357 394 290 l 496 357 q 581 288 507 288 q 672 333 644 288 q 700 453 700 379 l 700 464 l 699 464 q 638 417 675 435 q 557 400 601 400 q 421 453 474 400 q 368 590 368 507 q 425 735 368 679 q 578 792 482 792 q 753 712 699 792 q 808 500 808 632 q 747 279 808 357 q 579 201 686 201 m 476 596 q 504 517 476 547 q 579 488 532 488 q 663 518 632 488 q 693 597 693 549 q 664 675 693 646 q 582 704 635 704 q 504 674 532 704 q 476 596 476 644 z "},"⓪":{"ha":1175,"x_min":68,"x_max":1107,"o":"m 589 -19 q 313 43 431 -19 q 132 222 196 106 q 68 496 68 339 q 132 769 68 653 q 313 949 196 886 q 589 1013 431 1013 q 863 950 746 1013 q 1044 770 981 888 q 1107 496 1107 653 q 1044 222 1107 339 q 863 43 981 106 q 589 -19 746 -19 m 179 496 q 229 274 179 368 q 372 128 279 179 q 589 78 465 78 q 803 128 711 78 q 946 274 896 179 q 996 496 996 368 q 946 719 996 624 q 803 865 896 814 q 589 915 711 915 q 372 865 465 915 q 229 719 279 814 q 179 496 179 624 m 589 203 q 413 285 472 203 q 353 496 353 368 q 413 707 353 624 q 589 790 472 790 q 765 706 706 790 q 824 496 824 622 q 765 286 824 369 q 589 203 706 203 m 464 496 q 589 290 464 290 q 713 496 713 290 q 589 703 713 703 q 464 496 464 703 z "},"▀":{"ha":1165,"x_min":86,"x_max":1079,"o":"m 86 993 l 1079 993 l 1079 496 l 86 496 l 86 993 z "},"▄":{"ha":1168,"x_min":88,"x_max":1081,"o":"m 88 497 l 1081 497 l 1081 0 l 88 0 l 88 497 z "},"█":{"ha":1199,"x_min":103,"x_max":1096,"o":"m 103 993 l 1096 993 l 1096 0 l 103 0 l 103 993 z "},"■":{"ha":1199,"x_min":103,"x_max":1096,"o":"m 103 993 l 1096 993 l 1096 0 l 103 0 l 103 993 z "},"□":{"ha":1199,"x_min":103,"x_max":1096,"o":"m 103 993 l 1096 993 l 1096 0 l 103 0 l 103 993 m 985 111 l 985 882 l 214 882 l 214 111 l 985 111 z "},"▪":{"ha":464,"x_min":79,"x_max":385,"o":"m 79 597 l 385 597 l 385 292 l 79 292 l 79 597 z "},"▫":{"ha":519,"x_min":79,"x_max":440,"o":"m 79 625 l 440 625 l 440 264 l 79 264 l 79 625 m 329 375 l 329 514 l 190 514 l 190 375 l 329 375 z "},"▲":{"ha":1147,"x_min":18,"x_max":1129,"o":"m 574 993 l 1129 0 l 18 0 l 574 993 z "},"►":{"ha":1161,"x_min":119,"x_max":1113,"o":"m 119 1051 l 1113 496 l 119 -60 l 119 1051 z "},"▼":{"ha":1150,"x_min":19,"x_max":1131,"o":"m 19 993 l 1131 993 l 575 0 l 19 993 z "},"◄":{"ha":1161,"x_min":49,"x_max":1042,"o":"m 49 496 l 1042 1051 l 1042 -60 l 49 496 z "},"◊":{"ha":797,"x_min":56,"x_max":742,"o":"m 56 497 l 336 993 l 461 993 l 742 496 l 461 0 l 336 0 l 56 497 m 399 111 l 401 111 l 617 492 l 399 882 l 396 882 l 181 500 l 399 111 z "},"○":{"ha":1175,"x_min":68,"x_max":1107,"o":"m 589 -19 q 313 43 431 -19 q 132 222 196 106 q 68 496 68 339 q 132 769 68 653 q 313 949 196 886 q 589 1013 431 1013 q 863 950 746 1013 q 1044 770 981 888 q 1107 496 1107 653 q 1044 222 1107 339 q 863 43 981 106 q 589 -19 746 -19 m 179 496 q 229 274 179 368 q 372 128 279 179 q 589 78 465 78 q 803 128 711 78 q 946 274 896 179 q 996 496 996 368 q 946 719 996 624 q 803 865 896 814 q 589 915 711 915 q 372 865 465 915 q 229 719 279 814 q 179 496 179 624 z "},"●":{"ha":1165,"x_min":67,"x_max":1099,"o":"m 583 -19 q 324 50 443 -19 q 136 238 206 119 q 67 496 67 356 q 136 755 67 636 q 324 943 206 874 q 583 1013 443 1013 q 842 943 724 1013 q 1029 755 960 874 q 1099 496 1099 636 q 1029 238 1099 356 q 842 50 960 119 q 583 -19 724 -19 z "},"⬎":{"ha":890,"x_min":33,"x_max":839,"o":"m 89 350 l 157 425 l 408 188 l 408 614 l 33 614 l 33 711 l 519 711 l 519 188 l 771 425 l 839 350 l 464 3 l 89 350 z "},"⬏":{"ha":893,"x_min":35,"x_max":840,"o":"m 35 97 l 410 97 l 410 524 l 158 286 l 90 361 l 465 708 l 840 361 l 772 286 l 521 524 l 521 0 l 35 0 l 35 97 z "},"⬐":{"ha":893,"x_min":51,"x_max":857,"o":"m 51 344 l 119 419 l 371 182 l 371 706 l 857 706 l 857 608 l 482 608 l 482 182 l 733 419 l 801 344 l 426 -3 l 51 344 z "},"⬑":{"ha":892,"x_min":51,"x_max":857,"o":"m 371 521 l 119 283 l 51 358 l 426 706 l 801 358 l 733 283 l 482 521 l 482 94 l 857 94 l 857 -3 l 371 -3 l 371 521 z "},"⮠":{"ha":832,"x_min":50,"x_max":758,"o":"m 50 351 l 397 726 l 472 658 l 235 407 l 661 407 l 661 782 l 758 782 l 758 296 l 235 296 l 472 44 l 397 -24 l 50 351 z "},"⮡":{"ha":833,"x_min":72,"x_max":781,"o":"m 358 49 l 596 300 l 72 300 l 72 786 l 169 786 l 169 411 l 596 411 l 358 663 l 433 731 l 781 356 l 433 -19 l 358 49 z "},"⮢":{"ha":833,"x_min":53,"x_max":761,"o":"m 53 369 l 400 744 l 475 676 l 238 425 l 761 425 l 761 -61 l 664 -61 l 664 314 l 238 314 l 475 63 l 400 -6 l 53 369 z "},"⮣":{"ha":833,"x_min":72,"x_max":781,"o":"m 358 63 l 596 314 l 169 314 l 169 -61 l 72 -61 l 72 425 l 596 425 l 358 676 l 433 744 l 781 369 l 433 -6 l 358 63 z "},"⮤":{"ha":892,"x_min":51,"x_max":857,"o":"m 371 521 l 119 283 l 51 358 l 426 706 l 801 358 l 733 283 l 482 521 l 482 94 l 857 94 l 857 -3 l 371 -3 l 371 521 z "},"⮥":{"ha":893,"x_min":35,"x_max":840,"o":"m 35 97 l 410 97 l 410 524 l 158 286 l 90 361 l 465 708 l 840 361 l 772 286 l 521 524 l 521 0 l 35 0 l 35 97 z "},"⮦":{"ha":893,"x_min":51,"x_max":857,"o":"m 51 344 l 119 419 l 371 182 l 371 706 l 857 706 l 857 608 l 482 608 l 482 182 l 733 419 l 801 344 l 426 -3 l 51 344 z "},"⮧":{"ha":890,"x_min":33,"x_max":839,"o":"m 89 350 l 157 425 l 408 188 l 408 614 l 33 614 l 33 711 l 519 711 l 519 188 l 771 425 l 839 350 l 464 3 l 89 350 z "},"ﬁ":{"ha":654,"x_min":29,"x_max":585,"o":"m 128 804 q 171 960 128 918 q 300 1001 214 1001 q 374 994 329 1001 l 374 900 q 315 904 332 904 q 254 885 269 904 q 239 810 239 867 l 239 708 l 374 708 l 374 611 l 239 611 l 239 0 l 128 0 l 128 611 l 29 611 l 29 708 l 128 708 l 128 804 m 463 708 l 574 708 l 574 0 l 463 0 l 463 708 m 451 979 l 585 979 l 585 846 l 451 846 l 451 979 z "},"ﬂ":{"ha":654,"x_min":29,"x_max":574,"o":"m 128 804 q 171 960 128 918 q 300 1001 214 1001 q 374 994 329 1001 l 374 900 q 315 904 332 904 q 254 885 269 904 q 239 810 239 867 l 239 708 l 374 708 l 374 611 l 239 611 l 239 0 l 128 0 l 128 611 l 29 611 l 29 708 l 128 708 l 128 804 m 463 993 l 574 993 l 574 0 l 463 0 l 463 993 z "},"﻿":{"ha":0,"x_min":0,"x_max":0,"o":""},"А":{"ha":894,"x_min":10,"x_max":886,"o":"m 376 993 l 517 993 l 886 0 l 751 0 l 664 249 l 226 249 l 139 0 l 10 0 l 376 993 m 624 360 l 447 878 l 444 878 l 268 360 l 624 360 z "},"Б":{"ha":876,"x_min":103,"x_max":839,"o":"m 103 993 l 764 993 l 764 882 l 228 882 l 228 619 l 518 619 q 753 541 668 619 q 839 315 839 463 q 749 85 839 171 q 504 0 658 0 l 103 0 l 103 993 m 511 111 q 655 166 601 111 q 708 315 708 221 q 658 456 708 404 q 524 508 608 508 l 228 508 l 228 111 l 511 111 z "},"В":{"ha":917,"x_min":103,"x_max":867,"o":"m 103 993 l 503 993 q 741 926 654 993 q 828 743 828 858 q 674 538 828 590 l 674 535 q 813 458 758 521 q 867 289 867 394 q 776 76 867 153 q 531 0 686 0 l 103 0 l 103 993 m 538 111 q 736 289 736 111 q 690 418 736 369 q 565 467 643 467 l 228 467 l 228 111 l 538 111 m 517 578 q 657 617 617 578 q 697 729 697 656 q 656 841 697 800 q 531 882 614 882 l 228 882 l 228 578 l 517 578 z "},"Г":{"ha":674,"x_min":103,"x_max":653,"o":"m 103 993 l 653 993 l 653 882 l 228 882 l 228 0 l 103 0 l 103 993 z "},"Ѓ":{"ha":674,"x_min":103,"x_max":653,"o":"m 103 993 l 653 993 l 653 882 l 228 882 l 228 0 l 103 0 l 103 993 m 404 1292 l 536 1292 l 410 1106 l 319 1106 l 404 1292 z "},"Ґ":{"ha":674,"x_min":103,"x_max":653,"o":"m 103 993 l 535 993 l 535 1131 l 653 1131 l 653 882 l 228 882 l 228 0 l 103 0 l 103 993 z "},"Ғ":{"ha":754,"x_min":7,"x_max":729,"o":"m 7 533 l 179 533 l 179 993 l 729 993 l 729 882 l 304 882 l 304 533 l 596 533 l 596 436 l 304 436 l 304 0 l 179 0 l 179 436 l 7 436 l 7 533 z "},"Д":{"ha":939,"x_min":6,"x_max":903,"o":"m 6 110 l 78 110 q 139 135 117 110 q 172 213 161 160 q 188 360 183 265 l 215 993 l 785 993 l 785 110 l 903 110 l 903 -181 l 785 -181 l 785 -1 l 124 -1 l 124 -181 l 6 -181 l 6 110 m 660 110 l 660 882 l 340 882 l 313 303 q 295 188 310 233 q 256 113 281 143 l 256 110 l 660 110 z "},"Е":{"ha":850,"x_min":103,"x_max":807,"o":"m 103 993 l 790 993 l 790 882 l 228 882 l 228 569 l 724 569 l 724 458 l 228 458 l 228 111 l 807 111 l 807 0 l 103 0 l 103 993 z "},"Ѐ":{"ha":850,"x_min":103,"x_max":807,"o":"m 103 993 l 790 993 l 790 882 l 228 882 l 228 569 l 724 569 l 724 458 l 228 458 l 228 111 l 807 111 l 807 0 l 103 0 l 103 993 m 286 1292 l 418 1292 l 489 1106 l 399 1106 l 286 1292 z "},"Ё":{"ha":850,"x_min":103,"x_max":807,"o":"m 103 993 l 790 993 l 790 882 l 228 882 l 228 569 l 724 569 l 724 458 l 228 458 l 228 111 l 807 111 l 807 0 l 103 0 l 103 993 m 490 1264 l 624 1264 l 624 1131 l 490 1131 l 490 1264 m 274 1264 l 407 1264 l 407 1131 l 274 1131 l 274 1264 z "},"Ж":{"ha":1289,"x_min":-10,"x_max":1299,"o":"m 372 493 l 19 993 l 151 993 l 471 540 l 582 540 l 582 993 l 707 993 l 707 540 l 822 540 l 1142 993 l 1269 993 l 917 493 l 1299 0 l 1149 0 l 819 429 l 707 429 l 707 0 l 582 0 l 582 429 l 469 429 l 140 0 l -10 0 l 372 493 z "},"З":{"ha":814,"x_min":39,"x_max":760,"o":"m 414 -19 q 39 269 39 -19 l 169 269 q 404 92 169 92 q 567 142 506 92 q 629 281 629 193 q 576 401 629 357 q 433 446 524 446 l 315 446 l 315 557 l 428 557 q 557 603 513 557 q 601 732 601 650 q 544 851 601 806 q 394 896 486 896 q 236 850 292 896 q 181 728 181 804 l 50 728 q 142 931 50 856 q 394 1007 233 1007 q 571 974 494 1007 q 690 878 647 940 q 732 732 732 815 q 693 596 732 657 q 579 504 654 535 l 579 501 q 711 417 663 475 q 760 281 760 358 q 717 127 760 196 q 595 19 674 58 q 414 -19 517 -19 z "},"И":{"ha":1014,"x_min":103,"x_max":911,"o":"m 103 993 l 228 993 l 228 190 l 231 190 l 786 993 l 911 993 l 911 0 l 786 0 l 786 800 l 783 800 l 228 0 l 103 0 l 103 993 z "},"Й":{"ha":1014,"x_min":103,"x_max":911,"o":"m 103 993 l 228 993 l 228 190 l 231 190 l 786 993 l 911 993 l 911 0 l 786 0 l 786 800 l 783 800 l 228 0 l 103 0 l 103 993 z "},"Ѝ":{"ha":1014,"x_min":103,"x_max":911,"o":"m 103 993 l 228 993 l 228 190 l 231 190 l 786 993 l 911 993 l 911 0 l 786 0 l 786 800 l 783 800 l 228 0 l 103 0 l 103 993 m 344 1292 l 476 1292 l 547 1106 l 457 1106 l 344 1292 z "},"К":{"ha":869,"x_min":103,"x_max":889,"o":"m 354 429 l 228 429 l 228 0 l 103 0 l 103 993 l 228 993 l 228 540 l 357 540 l 724 993 l 860 993 l 454 492 l 889 0 l 732 0 l 354 429 z "},"Ќ":{"ha":869,"x_min":103,"x_max":889,"o":"m 354 429 l 228 429 l 228 0 l 103 0 l 103 993 l 228 993 l 228 540 l 357 540 l 724 993 l 860 993 l 454 492 l 889 0 l 732 0 l 354 429 m 476 1292 l 608 1292 l 482 1106 l 392 1106 l 476 1292 z "},"Л":{"ha":911,"x_min":1,"x_max":808,"o":"m 89 -21 q 42 -17 67 -21 q 1 -4 17 -12 l 1 104 q 75 90 40 90 q 165 124 135 90 q 197 250 194 158 l 225 993 l 808 993 l 808 0 l 683 0 l 683 882 l 350 882 l 322 263 q 258 42 315 106 q 89 -21 200 -21 z "},"М":{"ha":1172,"x_min":103,"x_max":1069,"o":"m 103 993 l 274 993 l 585 168 l 588 168 l 899 993 l 1069 993 l 1069 0 l 944 0 l 944 817 l 942 817 l 642 0 l 531 0 l 231 817 l 228 817 l 228 0 l 103 0 l 103 993 z "},"Н":{"ha":986,"x_min":103,"x_max":883,"o":"m 103 993 l 228 993 l 228 571 l 758 571 l 758 993 l 883 993 l 883 0 l 758 0 l 758 460 l 228 460 l 228 0 l 103 0 l 103 993 z "},"О":{"ha":1078,"x_min":53,"x_max":1025,"o":"m 539 -19 q 285 47 396 -19 q 114 231 175 114 q 53 497 53 349 q 114 763 53 646 q 285 947 175 881 q 539 1013 396 1013 q 792 947 682 1013 q 964 763 903 881 q 1025 497 1025 646 q 964 231 1025 349 q 792 47 903 114 q 539 -19 682 -19 m 183 497 q 222 293 183 385 q 340 147 260 201 q 539 92 419 92 q 738 147 658 92 q 856 293 818 201 q 894 497 894 385 q 856 700 894 608 q 738 847 818 792 q 539 901 658 901 q 340 847 419 901 q 222 700 260 792 q 183 497 183 608 z "},"П":{"ha":958,"x_min":103,"x_max":856,"o":"m 103 993 l 856 993 l 856 0 l 731 0 l 731 882 l 228 882 l 228 0 l 103 0 l 103 993 z "},"Р":{"ha":850,"x_min":103,"x_max":819,"o":"m 103 993 l 497 993 q 731 923 643 993 q 819 704 819 853 q 731 485 819 556 q 497 415 643 415 l 228 415 l 228 0 l 103 0 l 103 993 m 506 526 q 644 570 599 526 q 689 704 689 614 q 644 838 689 794 q 506 882 599 882 l 228 882 l 228 526 l 506 526 z "},"С":{"ha":976,"x_min":53,"x_max":935,"o":"m 513 -19 q 274 47 378 -19 q 111 231 169 114 q 53 497 53 349 q 111 763 53 646 q 274 947 169 881 q 513 1013 378 1013 q 722 966 631 1013 q 868 840 814 919 q 935 665 922 761 l 804 665 q 719 830 786 758 q 513 901 651 901 q 326 844 400 901 q 218 696 253 788 q 183 497 183 604 q 218 298 183 390 q 326 149 253 206 q 513 92 400 92 q 726 170 656 92 q 804 358 797 249 l 935 358 q 869 163 924 249 q 724 28 815 76 q 513 -19 632 -19 z "},"Т":{"ha":828,"x_min":21,"x_max":807,"o":"m 351 882 l 21 882 l 21 993 l 807 993 l 807 882 l 476 882 l 476 0 l 351 0 l 351 882 z "},"У":{"ha":817,"x_min":14,"x_max":803,"o":"m 338 288 l 14 993 l 147 993 l 403 424 l 406 424 l 675 993 l 803 993 l 329 0 l 203 0 l 338 288 z "},"Ў":{"ha":817,"x_min":14,"x_max":803,"o":"m 338 288 l 14 993 l 147 993 l 403 424 l 406 424 l 675 993 l 803 993 l 329 0 l 203 0 l 338 288 z "},"Ф":{"ha":1008,"x_min":46,"x_max":963,"o":"m 439 122 q 151 235 256 138 q 46 490 46 333 q 151 744 46 646 q 439 857 256 842 l 439 993 l 564 993 l 564 857 q 856 745 750 843 q 963 490 963 647 q 856 234 963 332 q 564 122 750 136 l 564 0 l 439 0 l 439 122 m 169 490 q 242 307 169 378 q 439 221 314 236 l 439 758 q 242 672 314 743 q 169 490 169 601 m 564 219 q 766 306 693 235 q 839 490 839 378 q 766 674 839 603 q 564 760 693 744 l 564 219 z "},"Х":{"ha":807,"x_min":-4,"x_max":806,"o":"m 335 507 l 19 993 l 161 993 l 406 596 l 407 596 l 653 993 l 792 993 l 476 510 l 806 0 l 658 0 l 401 418 l 400 418 l 146 0 l -4 0 l 335 507 z "},"Ч":{"ha":832,"x_min":63,"x_max":729,"o":"m 604 431 l 601 431 q 494 348 558 381 q 356 315 429 315 q 143 397 224 315 q 63 624 63 478 l 63 993 l 188 993 l 188 624 q 239 477 188 528 q 383 426 290 426 q 501 452 456 426 q 604 540 547 478 l 604 993 l 729 993 l 729 0 l 604 0 l 604 431 z "},"Ц":{"ha":993,"x_min":103,"x_max":957,"o":"m 839 -1 l 103 -1 l 103 992 l 228 992 l 228 110 l 717 110 l 717 992 l 842 992 l 842 110 l 957 110 l 957 -181 l 839 -181 l 839 -1 z "},"Ш":{"ha":1192,"x_min":103,"x_max":1089,"o":"m 103 992 l 228 992 l 228 110 l 533 110 l 533 992 l 658 992 l 658 110 l 964 110 l 964 992 l 1089 992 l 1089 -1 l 103 -1 l 103 992 z "},"Щ":{"ha":1239,"x_min":103,"x_max":1203,"o":"m 1085 -1 l 103 -1 l 103 992 l 228 992 l 228 110 l 533 110 l 533 992 l 658 992 l 658 110 l 964 110 l 964 992 l 1089 992 l 1089 110 l 1203 110 l 1203 -181 l 1085 -181 l 1085 -1 z "},"Џ":{"ha":944,"x_min":103,"x_max":842,"o":"m 414 -1 l 103 -1 l 103 992 l 228 992 l 228 110 l 717 110 l 717 992 l 842 992 l 842 -1 l 532 -1 l 532 -181 l 414 -181 l 414 -1 z "},"Ь":{"ha":842,"x_min":103,"x_max":811,"o":"m 103 993 l 228 993 l 228 619 l 490 619 q 726 541 640 619 q 811 315 811 463 q 721 85 811 171 q 476 0 631 0 l 103 0 l 103 993 m 483 111 q 627 166 574 111 q 681 315 681 221 q 631 456 681 404 q 496 508 581 508 l 228 508 l 228 111 l 483 111 z "},"Ы":{"ha":1099,"x_min":103,"x_max":996,"o":"m 103 993 l 228 993 l 228 619 l 435 619 q 670 541 585 619 q 756 315 756 463 q 665 85 756 171 q 421 0 575 0 l 103 0 l 103 993 m 428 111 q 572 166 518 111 q 625 315 625 221 q 575 456 625 404 q 440 508 525 508 l 228 508 l 228 111 l 428 111 m 871 993 l 996 993 l 996 0 l 871 0 l 871 993 z "},"Ъ":{"ha":919,"x_min":14,"x_max":889,"o":"m 181 882 l 14 882 l 14 993 l 306 993 l 306 619 l 568 619 q 803 541 718 619 q 889 315 889 463 q 799 85 889 171 q 554 0 708 0 l 181 0 l 181 882 m 561 111 q 705 166 651 111 q 758 315 758 221 q 708 456 758 404 q 574 508 658 508 l 306 508 l 306 111 l 561 111 z "},"Љ":{"ha":1261,"x_min":1,"x_max":1231,"o":"m 89 -21 q 42 -17 67 -21 q 1 -4 17 -12 l 1 104 q 75 90 40 90 q 165 124 135 90 q 197 250 194 158 l 225 993 l 739 993 l 739 619 l 910 619 q 1145 541 1060 619 q 1231 315 1231 463 q 1140 85 1231 171 q 896 0 1050 0 l 614 0 l 614 882 l 350 882 l 322 263 q 258 42 315 106 q 89 -21 200 -21 m 903 111 q 1047 166 993 111 q 1100 315 1100 221 q 1050 456 1100 404 q 915 508 1000 508 l 739 508 l 739 111 l 903 111 z "},"Њ":{"ha":1296,"x_min":103,"x_max":1265,"o":"m 103 993 l 228 993 l 228 593 l 649 593 l 649 993 l 774 993 l 774 593 l 944 593 q 1179 515 1093 593 q 1265 300 1265 438 q 1176 78 1265 157 q 931 0 1086 0 l 649 0 l 649 482 l 228 482 l 228 0 l 103 0 l 103 993 m 938 111 q 1083 160 1031 111 q 1135 300 1135 208 q 1085 435 1135 388 q 950 482 1036 482 l 774 482 l 774 111 l 938 111 z "},"Ѕ":{"ha":867,"x_min":35,"x_max":824,"o":"m 469 -19 q 250 23 346 -19 q 98 144 154 65 q 35 333 42 224 l 165 333 q 464 90 190 90 q 641 138 589 90 q 693 271 693 186 q 665 369 693 335 q 588 423 638 404 q 432 468 538 442 q 403 475 422 469 q 235 526 301 500 q 123 607 169 553 q 76 750 76 661 q 165 942 76 871 q 413 1013 254 1013 q 680 931 581 1013 q 792 699 779 849 l 661 699 q 589 852 647 801 q 414 903 531 903 q 259 865 311 903 q 207 756 207 828 q 240 664 207 697 q 319 614 272 631 q 454 576 367 597 q 653 519 579 547 q 775 432 726 490 q 824 275 824 374 q 735 63 824 144 q 469 -19 646 -19 z "},"Є":{"ha":954,"x_min":56,"x_max":911,"o":"m 507 -19 q 267 41 368 -19 q 110 219 165 101 q 56 501 56 336 q 113 777 56 663 q 274 952 169 892 q 515 1013 378 1013 q 709 974 624 1013 q 847 867 794 936 q 911 707 899 799 l 781 707 q 694 850 761 799 q 517 901 626 901 q 290 810 379 901 q 188 553 201 718 l 569 553 l 569 442 l 189 442 q 288 183 203 274 q 507 92 372 92 q 698 153 622 92 q 781 317 774 214 l 911 317 q 856 142 907 218 q 714 23 804 65 q 507 -19 624 -19 z "},"Э":{"ha":953,"x_min":42,"x_max":897,"o":"m 446 -19 q 239 23 329 -19 q 97 142 149 65 q 42 317 46 218 l 172 317 q 255 153 179 214 q 446 92 331 92 q 665 183 581 92 q 764 442 750 274 l 383 442 l 383 553 l 765 553 q 663 810 751 718 q 436 901 574 901 q 259 850 326 901 q 172 707 192 799 l 42 707 q 106 867 54 799 q 244 974 158 936 q 438 1013 329 1013 q 679 952 575 1013 q 840 777 783 892 q 897 501 897 663 q 842 219 897 336 q 686 41 788 101 q 446 -19 585 -19 z "},"І":{"ha":331,"x_min":103,"x_max":228,"o":"m 103 993 l 228 993 l 228 0 l 103 0 l 103 993 z "},"Ї":{"ha":331,"x_min":-10,"x_max":340,"o":"m 103 993 l 228 993 l 228 0 l 103 0 l 103 993 m 207 1264 l 340 1264 l 340 1131 l 207 1131 l 207 1264 m -10 1264 l 124 1264 l 124 1131 l -10 1131 l -10 1264 z "},"Ј":{"ha":701,"x_min":25,"x_max":604,"o":"m 314 -19 q 92 72 160 -19 q 25 303 25 164 l 25 331 l 150 331 l 150 303 q 162 190 150 235 q 210 118 174 144 q 314 92 246 92 q 447 145 414 92 q 479 303 479 199 l 479 993 l 604 993 l 604 303 q 536 72 604 164 q 314 -19 468 -19 z "},"Ћ":{"ha":1000,"x_min":22,"x_max":939,"o":"m 272 882 l 22 882 l 22 993 l 703 993 l 703 882 l 397 882 l 397 535 l 400 535 q 661 650 500 650 q 865 576 790 650 q 939 364 939 501 l 939 0 l 814 0 l 814 342 q 633 539 814 539 q 460 477 524 539 q 397 300 397 415 l 397 0 l 272 0 l 272 882 z "},"Ю":{"ha":1313,"x_min":103,"x_max":1257,"o":"m 826 -19 q 608 37 703 -19 q 460 198 514 93 q 397 446 406 303 l 228 446 l 228 0 l 103 0 l 103 993 l 228 993 l 228 557 l 397 557 q 463 800 407 697 q 611 958 518 903 q 826 1013 704 1013 q 1054 950 957 1013 q 1204 771 1151 888 q 1257 497 1257 654 q 1204 223 1257 340 q 1054 43 1151 106 q 826 -19 957 -19 m 526 497 q 563 282 526 374 q 667 141 600 190 q 826 92 735 92 q 985 141 918 92 q 1090 282 1053 190 q 1126 497 1126 374 q 1090 712 1126 621 q 986 852 1054 803 q 826 901 918 901 q 667 852 735 901 q 563 712 599 803 q 526 497 526 621 z "},"Я":{"ha":892,"x_min":44,"x_max":789,"o":"m 44 8 q 60 39 56 14 q 72 126 65 64 q 94 284 81 218 q 145 406 107 350 q 253 475 183 461 l 253 478 q 122 557 172 497 q 72 707 72 617 q 163 919 72 844 q 418 993 254 993 l 789 993 l 789 0 l 664 0 l 664 415 l 393 415 q 269 367 311 415 q 214 256 226 319 q 196 104 201 193 q 190 32 193 54 q 179 0 188 10 l 44 0 l 44 8 m 197 711 q 258 573 197 619 q 433 526 318 526 l 664 526 l 664 882 l 429 882 q 251 840 306 882 q 197 711 197 799 z "},"Ђ":{"ha":1003,"x_min":22,"x_max":939,"o":"m 769 -254 q 679 -244 708 -254 l 679 -136 q 751 -146 713 -146 q 797 -128 779 -146 q 814 -72 814 -110 l 814 369 q 633 567 814 567 q 460 505 524 567 q 397 328 397 443 l 397 0 l 272 0 l 272 882 l 22 882 l 22 993 l 703 993 l 703 882 l 397 882 l 397 563 l 400 563 q 661 678 500 678 q 865 603 790 678 q 939 392 939 529 l 939 -83 q 892 -212 939 -169 q 769 -254 846 -254 z "},"Җ":{"ha":1289,"x_min":-10,"x_max":1317,"o":"m 372 493 l 19 993 l 151 993 l 471 540 l 582 540 l 582 993 l 707 993 l 707 540 l 822 540 l 1142 993 l 1269 993 l 917 493 l 1240 75 l 1317 75 l 1317 -181 l 1199 -181 l 1199 0 l 1149 0 l 819 429 l 707 429 l 707 0 l 582 0 l 582 429 l 469 429 l 140 0 l -10 0 l 372 493 z "},"Қ":{"ha":869,"x_min":103,"x_max":908,"o":"m 354 429 l 228 429 l 228 0 l 103 0 l 103 993 l 228 993 l 228 540 l 357 540 l 724 993 l 860 993 l 454 492 l 822 75 l 908 75 l 908 -181 l 790 -181 l 790 0 l 732 0 l 354 429 z "},"Ң":{"ha":986,"x_min":103,"x_max":938,"o":"m 103 993 l 228 993 l 228 571 l 758 571 l 758 993 l 883 993 l 883 75 l 938 75 l 938 -181 l 819 -181 l 819 0 l 758 0 l 758 460 l 228 460 l 228 0 l 103 0 l 103 993 z "},"Ү":{"ha":872,"x_min":13,"x_max":861,"o":"m 374 407 l 13 993 l 147 993 l 435 503 l 438 503 l 726 993 l 861 993 l 499 407 l 499 0 l 374 0 l 374 407 z "},"Ұ":{"ha":863,"x_min":8,"x_max":857,"o":"m 135 364 l 369 364 l 369 407 l 8 993 l 143 993 l 431 503 l 433 503 l 722 993 l 857 993 l 494 407 l 494 364 l 715 364 l 715 267 l 494 267 l 494 0 l 369 0 l 369 267 l 135 267 l 135 364 z "},"Ҳ":{"ha":807,"x_min":-4,"x_max":831,"o":"m 335 507 l 19 993 l 161 993 l 406 596 l 407 596 l 653 993 l 792 993 l 476 510 l 757 75 l 831 75 l 831 -181 l 713 -181 l 713 0 l 658 0 l 401 418 l 400 418 l 146 0 l -4 0 l 335 507 z "},"Ҷ":{"ha":832,"x_min":63,"x_max":793,"o":"m 604 431 l 601 431 q 494 348 558 381 q 356 315 429 315 q 143 397 224 315 q 63 624 63 478 l 63 993 l 188 993 l 188 624 q 239 477 188 528 q 383 426 290 426 q 501 452 456 426 q 604 540 547 478 l 604 993 l 729 993 l 729 75 l 793 75 l 793 -181 l 675 -181 l 675 0 l 604 0 l 604 431 z "},"Һ":{"ha":847,"x_min":103,"x_max":783,"o":"m 103 993 l 228 993 l 228 576 l 231 576 q 492 692 331 692 q 707 617 631 692 q 783 406 783 543 l 783 0 l 658 0 l 658 383 q 611 531 658 482 q 464 581 564 581 q 291 519 354 581 q 228 342 228 457 l 228 0 l 103 0 l 103 993 z "},"Ә":{"ha":1011,"x_min":51,"x_max":958,"o":"m 501 -21 q 269 41 372 -21 q 109 210 167 103 q 51 451 51 318 q 54 526 51 506 l 828 526 q 779 724 822 639 q 663 856 736 810 q 499 901 590 901 q 301 844 382 901 q 206 699 221 788 l 75 699 q 154 865 92 793 q 311 974 217 936 q 514 1013 406 1013 q 743 944 642 1013 q 901 759 844 876 q 958 499 958 642 q 900 230 958 349 q 738 45 842 111 q 501 -21 633 -21 m 186 415 q 225 249 186 324 q 337 133 264 175 q 510 90 410 90 q 722 179 640 90 q 822 415 804 268 l 186 415 z "},"Ӣ":{"ha":1014,"x_min":103,"x_max":911,"o":"m 103 993 l 228 993 l 228 190 l 231 190 l 786 993 l 911 993 l 911 0 l 786 0 l 786 800 l 783 800 l 228 0 l 103 0 l 103 993 m 328 1228 l 686 1228 l 686 1131 l 328 1131 l 328 1228 z "},"Ө":{"ha":1078,"x_min":53,"x_max":1025,"o":"m 539 -19 q 285 47 396 -19 q 114 231 175 114 q 53 497 53 349 q 114 763 53 646 q 285 947 175 881 q 539 1013 396 1013 q 792 947 682 1013 q 964 763 903 881 q 1025 497 1025 646 q 964 231 1025 349 q 792 47 903 114 q 539 -19 682 -19 m 186 442 q 289 190 200 288 q 539 92 378 92 q 789 190 700 92 q 892 442 878 288 l 186 442 m 892 553 q 790 804 878 707 q 539 901 701 901 q 288 804 376 901 q 186 553 200 707 l 892 553 z "},"Ӯ":{"ha":817,"x_min":14,"x_max":803,"o":"m 338 288 l 14 993 l 147 993 l 403 424 l 406 424 l 675 993 l 803 993 l 329 0 l 203 0 l 338 288 m 240 1228 l 599 1228 l 599 1131 l 240 1131 l 240 1228 z "},"а":{"ha":724,"x_min":43,"x_max":683,"o":"m 276 -19 q 106 36 169 -19 q 43 182 43 92 q 79 307 43 260 q 179 379 115 354 q 346 422 243 404 q 451 446 415 435 q 504 476 486 457 q 522 528 522 494 q 375 632 522 632 q 270 618 308 632 q 215 573 232 604 q 194 489 199 542 l 78 489 q 157 664 83 599 q 379 729 231 729 q 560 675 490 729 q 631 500 631 621 l 631 160 q 639 97 631 117 q 667 76 647 76 l 683 78 l 683 0 q 629 -7 653 -7 q 555 17 581 -7 q 524 104 529 42 l 521 104 q 424 13 485 44 q 276 -19 363 -19 m 160 188 q 190 106 160 133 q 288 78 221 78 q 458 127 393 78 q 522 274 522 176 l 522 386 q 356 331 497 358 q 204 278 249 308 q 160 188 160 247 z "},"б":{"ha":765,"x_min":57,"x_max":722,"o":"m 397 -21 q 148 89 239 -21 q 57 410 57 199 q 117 746 57 614 q 329 907 176 878 l 468 933 q 579 994 579 956 l 703 994 q 543 843 703 876 l 343 803 q 219 728 264 788 q 160 579 174 668 l 163 579 q 262 685 192 640 q 425 729 332 729 q 643 630 564 729 q 722 363 722 531 q 685 169 722 257 q 574 31 647 82 q 397 -21 501 -21 m 188 354 q 240 154 188 232 q 397 76 293 76 q 553 158 500 76 q 606 363 606 240 q 553 558 606 483 q 397 632 501 632 q 240 554 293 632 q 188 354 188 476 z "},"в":{"ha":682,"x_min":81,"x_max":642,"o":"m 81 708 l 392 708 q 553 659 496 708 q 611 525 611 610 q 576 430 611 471 q 485 372 540 389 l 485 369 q 599 313 556 358 q 642 201 642 268 q 578 54 642 108 q 408 0 515 0 l 81 0 l 81 708 m 396 97 q 492 125 460 97 q 525 203 525 153 q 492 286 525 256 q 408 317 460 317 l 192 317 l 192 97 l 396 97 m 386 407 q 465 439 435 407 q 494 515 494 471 q 466 586 494 561 q 386 611 438 611 l 192 611 l 192 407 l 386 407 z "},"г":{"ha":568,"x_min":81,"x_max":551,"o":"m 81 708 l 551 708 l 551 611 l 192 611 l 192 0 l 81 0 l 81 708 z "},"ѓ":{"ha":568,"x_min":81,"x_max":551,"o":"m 81 708 l 551 708 l 551 611 l 192 611 l 192 0 l 81 0 l 81 708 m 350 1007 l 482 1007 l 356 821 l 265 821 l 350 1007 z "},"ґ":{"ha":568,"x_min":81,"x_max":551,"o":"m 81 708 l 454 708 l 454 861 l 551 861 l 551 611 l 192 611 l 192 0 l 81 0 l 81 708 z "},"ғ":{"ha":614,"x_min":7,"x_max":596,"o":"m 7 400 l 125 400 l 125 708 l 596 708 l 596 611 l 236 611 l 236 400 l 479 400 l 479 317 l 236 317 l 236 0 l 125 0 l 125 317 l 7 317 l 7 400 z "},"д":{"ha":771,"x_min":10,"x_max":740,"o":"m 10 97 l 65 97 q 119 132 97 97 q 143 219 140 167 l 171 708 l 643 708 l 643 97 l 740 97 l 740 -181 l 643 -181 l 643 0 l 107 0 l 107 -181 l 10 -181 l 10 97 m 532 97 l 532 611 l 276 611 l 254 225 q 215 100 250 136 l 215 97 l 532 97 z "},"е":{"ha":757,"x_min":43,"x_max":715,"o":"m 388 -21 q 201 28 279 -21 q 83 162 124 76 q 43 356 43 247 q 85 553 43 468 q 206 683 128 638 q 388 729 283 729 q 563 685 489 729 q 676 563 638 642 q 715 381 715 485 q 714 325 715 336 l 160 325 q 221 149 163 222 q 389 75 279 75 q 531 121 481 75 q 593 218 581 167 l 706 218 q 597 45 676 111 q 388 -21 517 -21 m 597 422 q 571 529 597 481 q 495 606 544 578 q 382 633 446 633 q 228 574 290 633 q 160 422 165 515 l 597 422 z "},"ѐ":{"ha":757,"x_min":43,"x_max":715,"o":"m 388 -21 q 201 28 279 -21 q 83 162 124 76 q 43 356 43 247 q 85 553 43 468 q 206 683 128 638 q 388 729 283 729 q 563 685 489 729 q 676 563 638 642 q 715 381 715 485 q 714 325 715 336 l 160 325 q 221 149 163 222 q 389 75 279 75 q 531 121 481 75 q 593 218 581 167 l 706 218 q 597 45 676 111 q 388 -21 517 -21 m 597 422 q 571 529 597 481 q 495 606 544 578 q 382 633 446 633 q 228 574 290 633 q 160 422 165 515 l 597 422 m 217 1010 l 349 1010 l 419 824 l 329 824 l 217 1010 z "},"ё":{"ha":757,"x_min":43,"x_max":715,"o":"m 388 -21 q 201 28 279 -21 q 83 162 124 76 q 43 356 43 247 q 85 553 43 468 q 206 683 128 638 q 388 729 283 729 q 563 685 489 729 q 676 563 638 642 q 715 381 715 485 q 714 325 715 336 l 160 325 q 221 149 163 222 q 389 75 279 75 q 531 121 481 75 q 593 218 581 167 l 706 218 q 597 45 676 111 q 388 -21 517 -21 m 597 422 q 571 529 597 481 q 495 606 544 578 q 382 633 446 633 q 228 574 290 633 q 160 422 165 515 l 597 422 m 421 982 l 554 982 l 554 849 l 421 849 l 421 982 m 204 982 l 338 982 l 338 849 l 204 849 l 204 982 z "},"ж":{"ha":931,"x_min":3,"x_max":928,"o":"m 247 354 l 4 708 l 128 708 l 340 397 l 410 397 l 410 708 l 521 708 l 521 397 l 590 397 l 803 708 l 926 708 l 683 354 l 928 0 l 793 0 l 586 300 l 521 300 l 521 0 l 410 0 l 410 300 l 342 300 l 135 0 l 3 0 l 247 354 z "},"з":{"ha":628,"x_min":32,"x_max":586,"o":"m 296 -19 q 103 42 175 -19 q 32 206 32 104 l 143 206 q 188 113 143 149 q 313 78 233 78 q 428 110 388 78 q 469 200 469 142 q 432 281 469 251 q 335 310 394 310 l 249 310 l 249 407 l 331 407 q 422 437 390 407 q 454 521 454 467 q 416 603 454 575 q 306 632 378 632 q 192 597 233 632 q 151 510 151 563 l 40 510 q 114 668 40 607 q 306 729 188 729 q 494 675 422 729 q 565 525 565 621 q 533 425 565 469 q 446 361 500 381 l 446 360 q 548 299 510 343 q 586 200 586 256 q 509 38 586 96 q 296 -19 432 -19 z "},"и":{"ha":788,"x_min":81,"x_max":707,"o":"m 81 708 l 192 708 l 192 160 l 596 708 l 707 708 l 707 0 l 596 0 l 596 549 l 192 0 l 81 0 l 81 708 z "},"й":{"ha":788,"x_min":81,"x_max":707,"o":"m 81 708 l 192 708 l 192 160 l 596 708 l 707 708 l 707 0 l 596 0 l 596 549 l 192 0 l 81 0 l 81 708 z "},"ѝ":{"ha":788,"x_min":81,"x_max":707,"o":"m 81 708 l 192 708 l 192 160 l 596 708 l 707 708 l 707 0 l 596 0 l 596 549 l 192 0 l 81 0 l 81 708 m 232 1007 l 364 1007 l 435 821 l 344 821 l 232 1007 z "},"к":{"ha":654,"x_min":81,"x_max":668,"o":"m 285 300 l 192 300 l 192 0 l 81 0 l 81 708 l 192 708 l 192 397 l 289 397 l 524 708 l 653 708 l 383 353 l 668 0 l 526 0 l 285 300 z "},"ќ":{"ha":654,"x_min":81,"x_max":668,"o":"m 285 300 l 192 300 l 192 0 l 81 0 l 81 708 l 192 708 l 192 397 l 289 397 l 524 708 l 653 708 l 383 353 l 668 0 l 526 0 l 285 300 m 376 1007 l 508 1007 l 382 821 l 292 821 l 376 1007 z "},"л":{"ha":719,"x_min":8,"x_max":639,"o":"m 82 -21 q 8 -8 42 -21 l 8 86 q 64 76 36 76 q 109 100 96 76 q 125 185 122 124 l 153 708 l 639 708 l 639 0 l 528 0 l 528 611 l 258 611 l 236 174 q 190 25 231 71 q 82 -21 149 -21 z "},"м":{"ha":933,"x_min":81,"x_max":853,"o":"m 81 708 l 231 708 l 468 156 l 471 156 l 708 708 l 853 708 l 853 0 l 742 0 l 742 531 l 739 531 l 513 1 l 415 1 l 194 531 l 192 531 l 192 0 l 81 0 l 81 708 z "},"н":{"ha":760,"x_min":81,"x_max":679,"o":"m 568 313 l 192 313 l 192 0 l 81 0 l 81 708 l 192 708 l 192 410 l 568 410 l 568 708 l 679 708 l 679 0 l 568 0 l 568 313 z "},"о":{"ha":776,"x_min":42,"x_max":735,"o":"m 389 -21 q 203 26 282 -21 q 83 159 125 74 q 42 354 42 244 q 83 549 42 464 q 203 682 125 635 q 389 729 282 729 q 573 682 494 729 q 693 549 651 635 q 735 354 735 464 q 693 159 735 244 q 573 26 651 74 q 389 -21 494 -21 m 158 354 q 217 155 158 233 q 389 76 275 76 q 560 155 501 76 q 618 354 618 233 q 560 553 618 475 q 389 632 501 632 q 217 553 275 632 q 158 354 158 475 z "},"п":{"ha":746,"x_min":81,"x_max":665,"o":"m 81 708 l 665 708 l 665 0 l 554 0 l 554 611 l 192 611 l 192 0 l 81 0 l 81 708 z "},"р":{"ha":779,"x_min":81,"x_max":736,"o":"m 417 -19 q 194 92 271 -19 l 192 92 l 192 -246 l 81 -246 l 81 708 l 192 708 l 192 621 l 194 621 q 417 728 276 728 q 578 683 506 728 q 694 553 651 638 q 736 354 736 468 q 694 156 736 240 q 578 26 651 71 q 417 -19 506 -19 m 192 354 q 249 153 192 229 q 406 78 307 78 q 524 117 475 78 q 596 219 572 156 q 619 354 619 282 q 596 490 619 426 q 524 592 572 553 q 406 631 475 631 q 249 555 307 631 q 192 354 192 479 z "},"с":{"ha":731,"x_min":42,"x_max":696,"o":"m 385 -19 q 204 28 282 -19 q 84 160 126 75 q 42 354 42 244 q 84 549 42 464 q 204 681 126 633 q 385 728 282 728 q 538 692 471 728 q 647 594 606 657 q 696 453 688 532 l 579 453 q 527 577 574 524 q 385 631 481 631 q 213 549 268 631 q 158 354 158 468 q 213 159 158 240 q 385 78 268 78 q 528 132 482 78 q 579 261 574 186 l 696 261 q 650 117 692 181 q 540 17 608 53 q 385 -19 471 -19 z "},"т":{"ha":631,"x_min":17,"x_max":614,"o":"m 260 611 l 17 611 l 17 708 l 614 708 l 614 611 l 371 611 l 371 0 l 260 0 l 260 611 z "},"у":{"ha":683,"x_min":1,"x_max":675,"o":"m 154 -249 q 81 -242 121 -249 l 81 -147 q 136 -151 117 -151 q 227 -115 186 -151 q 289 7 268 -78 l 1 708 l 126 708 l 344 144 l 347 144 l 556 708 l 675 708 l 389 -21 q 283 -199 338 -150 q 154 -249 229 -249 z "},"ў":{"ha":683,"x_min":1,"x_max":675,"o":"m 154 -249 q 81 -242 121 -249 l 81 -147 q 136 -151 117 -151 q 227 -115 186 -151 q 289 7 268 -78 l 1 708 l 126 708 l 344 144 l 347 144 l 556 708 l 675 708 l 389 -21 q 283 -199 338 -150 q 154 -249 229 -249 z "},"ф":{"ha":888,"x_min":42,"x_max":846,"o":"m 388 -18 q 206 40 285 -8 q 85 169 128 89 q 42 354 42 250 q 85 539 42 458 q 206 668 128 619 q 388 726 285 717 l 388 993 l 499 993 l 499 726 q 751 611 657 711 q 846 354 846 511 q 751 97 846 197 q 499 -18 657 -3 l 499 -246 l 388 -246 l 388 -18 m 158 354 q 221 170 158 243 q 388 81 283 97 l 388 628 q 221 538 283 611 q 158 354 158 465 m 499 81 q 666 169 603 96 q 729 354 729 242 q 666 540 729 467 q 499 628 603 613 l 499 81 z "},"х":{"ha":663,"x_min":-10,"x_max":674,"o":"m 264 363 l 13 708 l 146 708 l 331 440 l 333 440 l 515 708 l 647 708 l 397 363 l 674 0 l 540 0 l 331 286 l 328 286 l 122 0 l -10 0 l 264 363 z "},"ч":{"ha":683,"x_min":46,"x_max":603,"o":"m 492 315 l 489 315 q 403 243 457 272 q 283 214 350 214 q 115 275 183 214 q 46 475 46 336 l 46 708 l 157 708 l 157 503 q 196 354 157 397 q 313 311 235 311 q 492 419 426 311 l 492 708 l 603 708 l 603 0 l 492 0 l 492 315 z "},"ц":{"ha":779,"x_min":81,"x_max":749,"o":"m 651 0 l 81 0 l 81 708 l 192 708 l 192 97 l 540 97 l 540 708 l 651 708 l 651 97 l 749 97 l 749 -181 l 651 -181 l 651 0 z "},"ш":{"ha":994,"x_min":81,"x_max":914,"o":"m 81 708 l 192 708 l 192 97 l 442 97 l 442 708 l 553 708 l 553 97 l 803 97 l 803 708 l 914 708 l 914 0 l 81 0 l 81 708 z "},"щ":{"ha":1042,"x_min":81,"x_max":1011,"o":"m 914 0 l 81 0 l 81 708 l 192 708 l 192 97 l 442 97 l 442 708 l 553 708 l 553 97 l 803 97 l 803 708 l 914 708 l 914 97 l 1011 97 l 1011 -181 l 914 -181 l 914 0 z "},"џ":{"ha":732,"x_min":81,"x_max":651,"o":"m 319 0 l 81 0 l 81 708 l 192 708 l 192 97 l 540 97 l 540 708 l 651 708 l 651 0 l 417 0 l 417 -181 l 319 -181 l 319 0 z "},"ь":{"ha":621,"x_min":81,"x_max":596,"o":"m 81 708 l 192 708 l 192 442 l 361 442 q 533 383 471 442 q 596 221 596 324 q 533 60 596 119 q 361 0 469 0 l 81 0 l 81 708 m 361 97 q 448 131 417 97 q 479 221 479 164 q 449 312 479 279 q 361 344 419 344 l 192 344 l 192 97 l 361 97 z "},"ы":{"ha":822,"x_min":81,"x_max":742,"o":"m 81 708 l 192 708 l 192 442 l 319 442 q 492 383 429 442 q 554 221 554 324 q 491 60 554 119 q 319 0 428 0 l 81 0 l 81 708 m 319 97 q 406 131 375 97 q 438 221 438 164 q 408 312 438 279 q 319 344 378 344 l 192 344 l 192 97 l 319 97 m 631 708 l 742 708 l 742 0 l 631 0 l 631 708 z "},"ъ":{"ha":692,"x_min":13,"x_max":667,"o":"m 151 611 l 13 611 l 13 708 l 263 708 l 263 442 l 432 442 q 604 383 542 442 q 667 221 667 324 q 603 60 667 119 q 432 0 540 0 l 151 0 l 151 611 m 432 97 q 519 131 488 97 q 550 221 550 164 q 520 312 550 279 q 432 344 490 344 l 263 344 l 263 97 l 432 97 z "},"љ":{"ha":958,"x_min":8,"x_max":933,"o":"m 82 -21 q 8 -8 42 -21 l 8 86 q 64 76 36 76 q 109 100 96 76 q 125 185 122 124 l 153 708 l 571 708 l 571 442 l 699 442 q 871 383 808 442 q 933 221 933 324 q 870 60 933 119 q 699 0 807 0 l 460 0 l 460 611 l 258 611 l 236 174 q 190 25 231 71 q 82 -21 149 -21 m 699 97 q 785 131 754 97 q 817 221 817 164 q 787 312 817 279 q 699 344 757 344 l 571 344 l 571 97 l 699 97 z "},"њ":{"ha":968,"x_min":81,"x_max":943,"o":"m 469 331 l 192 331 l 192 0 l 81 0 l 81 708 l 192 708 l 192 428 l 469 428 l 469 708 l 581 708 l 581 428 l 708 428 q 881 372 819 428 q 943 214 943 315 q 881 56 943 113 q 708 0 818 0 l 469 0 l 469 331 m 708 97 q 795 127 764 97 q 826 214 826 157 q 708 331 826 331 l 581 331 l 581 97 l 708 97 z "},"ѕ":{"ha":665,"x_min":31,"x_max":633,"o":"m 349 -19 q 117 51 200 -19 q 31 236 33 122 l 147 236 q 199 121 151 164 q 349 78 246 78 q 479 112 442 78 q 517 194 517 146 q 494 258 517 235 q 441 293 472 282 q 356 315 410 304 l 328 321 q 190 360 243 340 q 97 420 136 379 q 58 529 58 461 q 127 674 58 619 q 317 728 196 728 q 523 665 449 728 q 606 506 597 603 l 489 506 q 442 595 478 560 q 318 631 406 631 q 210 604 246 631 q 175 533 175 578 q 195 480 175 500 q 246 449 215 460 q 331 428 276 439 q 364 421 342 426 q 502 381 447 401 q 595 316 557 360 q 633 199 633 272 q 558 39 633 97 q 349 -19 483 -19 z "},"є":{"ha":703,"x_min":43,"x_max":669,"o":"m 368 -19 q 192 29 265 -19 q 81 163 119 78 q 43 354 43 247 q 83 547 43 461 q 198 680 122 632 q 376 728 274 728 q 579 664 501 728 q 669 494 657 600 l 553 494 q 500 593 544 556 q 376 631 456 631 q 228 572 283 631 q 163 403 172 514 l 415 403 l 415 306 l 161 306 q 223 136 171 194 q 368 78 275 78 q 495 117 446 78 q 553 219 544 157 l 669 219 q 578 47 660 113 q 368 -19 497 -19 z "},"э":{"ha":703,"x_min":33,"x_max":660,"o":"m 343 -19 q 125 47 210 -19 q 33 219 40 113 l 150 219 q 210 118 158 158 q 343 78 263 78 q 542 306 525 78 l 288 306 l 288 403 l 542 403 q 479 573 532 515 q 333 631 426 631 q 206 592 254 631 q 150 494 158 554 l 33 494 q 126 663 46 599 q 333 728 207 728 q 510 681 436 728 q 622 549 583 633 q 660 354 660 464 q 577 84 660 188 q 343 -19 494 -19 z "},"і":{"ha":272,"x_min":69,"x_max":203,"o":"m 81 708 l 192 708 l 192 0 l 81 0 l 81 708 m 69 979 l 203 979 l 203 846 l 69 846 l 69 979 z "},"ї":{"ha":272,"x_min":-11,"x_max":283,"o":"m 150 979 l 283 979 l 283 846 l 150 846 l 150 979 m -11 979 l 122 979 l 122 846 l -11 846 l -11 979 m 81 708 l 192 708 l 192 0 l 81 0 l 81 708 z "},"ј":{"ha":272,"x_min":-36,"x_max":203,"o":"m 38 -250 q -36 -243 4 -250 l -36 -149 q 19 -153 -1 -153 q 67 -128 53 -153 q 81 -44 81 -104 l 81 708 l 192 708 l 192 -56 q 149 -203 192 -157 q 38 -250 106 -250 m 69 979 l 203 979 l 203 846 l 69 846 l 69 979 z "},"ћ":{"ha":740,"x_min":-3,"x_max":665,"o":"m -3 899 l 81 899 l 81 993 l 192 993 l 192 899 l 411 899 l 411 815 l 192 815 l 192 624 l 194 624 q 286 698 228 668 q 428 728 344 728 q 599 669 532 728 q 665 494 665 610 l 665 0 l 554 0 l 554 467 q 517 585 554 540 q 400 631 479 631 q 249 578 307 631 q 192 442 192 525 l 192 0 l 81 0 l 81 815 l -3 815 l -3 899 z "},"ю":{"ha":969,"x_min":81,"x_max":926,"o":"m 622 -21 q 412 67 493 -21 q 318 306 331 154 l 192 306 l 192 0 l 81 0 l 81 708 l 192 708 l 192 403 l 318 403 q 412 642 331 554 q 622 729 493 729 q 784 683 715 729 q 890 553 853 638 q 926 354 926 468 q 890 156 926 240 q 784 25 853 71 q 622 -21 715 -21 m 433 354 q 484 151 433 226 q 622 76 535 76 q 759 151 708 76 q 810 354 810 226 q 759 557 810 482 q 622 632 708 632 q 484 557 535 632 q 433 354 433 482 z "},"я":{"ha":664,"x_min":31,"x_max":583,"o":"m 31 6 q 42 28 39 10 q 50 85 46 46 q 67 192 57 149 q 103 272 76 235 q 181 319 131 310 l 181 321 q 88 381 124 335 q 51 492 51 428 q 119 650 51 592 q 311 708 186 708 l 583 708 l 583 0 l 472 0 l 472 269 l 307 269 q 219 239 249 269 q 180 169 189 208 q 167 71 171 129 q 163 24 165 40 q 154 0 161 7 l 31 0 l 31 6 m 168 497 q 201 406 168 444 q 308 367 235 367 l 472 367 l 472 611 l 306 611 q 201 578 233 611 q 168 497 168 544 z "},"ђ":{"ha":740,"x_min":-3,"x_max":665,"o":"m 511 -250 q 419 -240 465 -250 l 419 -146 q 493 -153 458 -153 q 540 -128 526 -153 q 554 -44 554 -104 l 554 467 q 517 585 554 540 q 400 631 479 631 q 249 578 307 631 q 192 442 192 525 l 192 0 l 81 0 l 81 815 l -3 815 l -3 899 l 81 899 l 81 993 l 192 993 l 192 899 l 411 899 l 411 815 l 192 815 l 192 624 l 194 624 q 286 698 228 668 q 428 728 344 728 q 599 669 532 728 q 665 494 665 610 l 665 -56 q 622 -203 665 -157 q 511 -250 579 -250 z "},"җ":{"ha":931,"x_min":3,"x_max":947,"o":"m 247 354 l 4 708 l 128 708 l 340 397 l 410 397 l 410 708 l 521 708 l 521 397 l 590 397 l 803 708 l 926 708 l 683 354 l 871 83 l 947 83 l 947 -181 l 850 -181 l 850 0 l 793 0 l 586 300 l 521 300 l 521 0 l 410 0 l 410 300 l 342 300 l 135 0 l 3 0 l 247 354 z "},"қ":{"ha":654,"x_min":81,"x_max":672,"o":"m 285 300 l 192 300 l 192 0 l 81 0 l 81 708 l 192 708 l 192 397 l 289 397 l 524 708 l 653 708 l 383 353 l 601 83 l 672 83 l 672 -181 l 575 -181 l 575 0 l 526 0 l 285 300 z "},"ң":{"ha":760,"x_min":81,"x_max":728,"o":"m 568 313 l 192 313 l 192 0 l 81 0 l 81 708 l 192 708 l 192 410 l 568 410 l 568 708 l 679 708 l 679 83 l 728 83 l 728 -181 l 631 -181 l 631 0 l 568 0 l 568 313 z "},"ү":{"ha":679,"x_min":1,"x_max":675,"o":"m 289 49 l 1 708 l 126 708 l 344 186 l 347 186 l 556 708 l 675 708 l 400 49 l 400 -246 l 289 -246 l 289 49 z "},"ұ":{"ha":679,"x_min":1,"x_max":675,"o":"m 108 -21 l 289 -21 l 289 49 l 1 708 l 126 708 l 344 186 l 347 186 l 556 708 l 675 708 l 400 49 l 400 -21 l 581 -21 l 581 -104 l 400 -104 l 400 -246 l 289 -246 l 289 -104 l 108 -104 l 108 -21 z "},"ҳ":{"ha":663,"x_min":-10,"x_max":685,"o":"m 264 363 l 13 708 l 146 708 l 331 440 l 333 440 l 515 708 l 647 708 l 397 363 l 610 83 l 685 83 l 685 -181 l 588 -181 l 588 0 l 540 0 l 331 286 l 328 286 l 122 0 l -10 0 l 264 363 z "},"ҷ":{"ha":683,"x_min":46,"x_max":636,"o":"m 492 315 l 489 315 q 403 243 457 272 q 283 214 350 214 q 115 275 183 214 q 46 475 46 336 l 46 708 l 157 708 l 157 503 q 196 354 157 397 q 313 311 235 311 q 492 419 426 311 l 492 708 l 603 708 l 603 83 l 636 83 l 636 -181 l 539 -181 l 539 0 l 492 0 l 492 315 z "},"һ":{"ha":740,"x_min":81,"x_max":665,"o":"m 554 467 q 517 585 554 540 q 400 631 479 631 q 249 578 307 631 q 192 442 192 525 l 192 0 l 81 0 l 81 993 l 192 993 l 192 624 l 194 624 q 286 698 228 668 q 428 728 344 728 q 599 669 532 728 q 665 494 665 610 l 665 0 l 554 0 l 554 467 z "},"ә":{"ha":729,"x_min":43,"x_max":686,"o":"m 365 -19 q 192 27 265 -19 q 81 157 119 74 q 43 346 43 240 q 47 403 43 368 l 567 403 q 502 572 557 514 q 360 631 447 631 q 229 597 279 631 q 168 506 179 564 l 51 506 q 155 668 72 608 q 360 728 238 728 q 536 681 463 728 q 648 549 610 633 q 686 354 686 464 q 649 161 686 246 q 539 28 611 76 q 365 -19 467 -19 m 161 306 q 210 144 161 210 q 365 78 260 78 q 508 135 457 78 q 568 306 558 193 l 161 306 z "},"ӣ":{"ha":788,"x_min":81,"x_max":707,"o":"m 81 708 l 192 708 l 192 160 l 596 708 l 707 708 l 707 0 l 596 0 l 596 549 l 192 0 l 81 0 l 81 708 m 215 943 l 574 943 l 574 846 l 215 846 l 215 943 z "},"ө":{"ha":776,"x_min":42,"x_max":735,"o":"m 389 -21 q 203 26 282 -21 q 83 159 125 74 q 42 354 42 244 q 83 549 42 464 q 203 682 125 635 q 389 729 282 729 q 573 682 494 729 q 693 549 651 635 q 735 354 735 464 q 693 159 735 244 q 573 26 651 74 q 389 -21 494 -21 m 161 306 q 230 140 172 203 q 389 76 288 76 q 547 140 490 76 q 615 306 604 203 l 161 306 m 615 403 q 547 569 604 506 q 389 632 490 632 q 230 569 288 632 q 161 403 172 506 l 615 403 z "},"ӯ":{"ha":683,"x_min":1,"x_max":675,"o":"m 154 -249 q 81 -242 121 -249 l 81 -147 q 136 -151 117 -151 q 227 -115 186 -151 q 289 7 268 -78 l 1 708 l 126 708 l 344 144 l 347 144 l 556 708 l 675 708 l 389 -21 q 283 -199 338 -150 q 154 -249 229 -249 m 160 943 l 518 943 l 518 846 l 160 846 l 160 943 z "},"᎚":{"ha":914,"x_min":0,"x_max":0,"o":""}}}
